<?xml version="1.0" encoding="UTF-8"?>
<svg width="42px" height="50px" viewBox="0 0 42 50" version="1.1" xmlns="http://www.w3.org/2000/svg" xmlns:xlink="http://www.w3.org/1999/xlink">
    <!-- Generator: sketchtool 52 (66869) - http://www.bohemiancoding.com/sketch -->
    <title>94449A8E-98E4-4858-8120-4DAEBC16C8C1</title>
    <desc>Created with sketchtool.</desc>
    <g id="Page-2" stroke="none" stroke-width="1" fill="none" fill-rule="evenodd">
        <g id="EthParis_1" transform="translate(-165.000000, -22.000000)" fill="#FFFFFF">
            <g id="Ethparis_logo_Logomark" transform="translate(165.000000, 22.000000)">
                <path d="M22.8764485,31.7236369 L20.8358036,33.0413981 L18.7929648,31.7236369 L20.8358036,34.7412102 L22.8764485,31.7236369 Z M22.0343763,14.8250045 C21.9941557,15.0580074 21.9649044,15.2688196 21.9649044,15.4130596 C21.9649044,15.4130596 21.8478991,19.3593161 23.1426355,24.9402919 L18.688757,24.9402919 C19.9831277,19.3593161 19.8664881,15.4130596 19.8664881,15.4130596 C19.8664881,15.2728879 19.8405276,15.0580074 19.800307,14.8250045 C20.1187807,14.4407345 20.5429248,13.9299772 20.7659661,13.6599896 C20.8427508,13.5675282 20.9886417,13.5675282 21.0654264,13.6599896 L22.0343763,14.8250045 Z M27.4166184,36.4055171 L14.4144084,36.4055171 C16.3599866,32.7662327 17.6137711,29.1898222 18.418548,26.0498298 L23.4132102,26.0498298 C24.2212778,29.1898222 25.4717716,32.7625343 27.4166184,36.4055171 Z M3.27587288,35.5234345 L11.6454057,40.9098713 C12.4377507,39.7822109 13.1587957,38.6475234 13.8041528,37.5150551 L28.0312617,37.5150551 C28.6832004,38.6645364 29.4141177,39.8136478 30.2196258,40.9553623 L38.6472956,35.5238043 L20.9736504,4.46044085 L3.27587288,35.5234345 Z M39.6791358,36.1743634 L21.2687231,48.0390223 C21.1787753,48.0970881 21.0763957,48.1259361 20.9740161,48.1259361 C20.8720021,48.1259361 20.7696225,48.0970881 20.6796747,48.0393921 L2.2440327,36.1747332 C1.99649344,36.0153296 1.9167836,35.6869064 2.06340582,35.4294936 L20.4990478,3.07166922 C20.5970397,2.89969084 20.7780322,2.79391489 20.9740161,2.79391489 L20.9743817,2.79391489 C21.1703655,2.79391489 21.3517237,2.90006068 21.4497156,3.07203906 L39.8597627,35.4298635 C40.0060193,35.6869064 39.9263094,36.0149598 39.6791358,36.1743634 Z M41.8536055,35.4568622 L21.8248637,0.545251357 C21.4062043,-0.184454752 20.3626636,-0.181126139 19.9487574,0.551538739 L0.142691279,35.6073895 C-0.144702902,36.1162976 0.0150824122,36.7638979 0.504676316,37.0771574 L11.4249239,44.0472747 L15.3595916,46.5603781 L20.4811314,49.830926 C20.8365349,50.0580115 21.2899303,50.0561622 21.6438712,49.8264879 L26.8473147,46.4479449 L30.7728413,43.895268 L41.5022241,36.9277397 C41.9892585,36.6115213 42.1442905,35.9631813 41.8536055,35.4568622 Z M20.9158791,40.2925983 C18.5381127,40.2925983 16.6576187,41.6961638 15.2985295,43.2609821 L20.9740161,46.913581 L26.572718,43.3053637 C25.2088754,41.724642 23.3170465,40.2925983 20.9158791,40.2925983 Z M22.8764485,31.3005331 L20.8358036,27.7141367 L18.7929648,31.3005331 L20.8358036,32.6153356 L22.8764485,31.3005331 Z" id="Fill-1"></path>
            </g>
        </g>
    </g>
</svg>