<?xml version="1.0" encoding="UTF-8"?>
<svg width="35px" height="34px" viewBox="0 0 35 34" version="1.1" xmlns="http://www.w3.org/2000/svg" xmlns:xlink="http://www.w3.org/1999/xlink">
    <!-- Generator: sketchtool 52 (66869) - http://www.bohemiancoding.com/sketch -->
    <title>62E925CF-8CC6-4596-97FC-6F1E7B8F4555</title>
    <desc>Created with sketchtool.</desc>
    <g id="Final-Version" stroke="none" stroke-width="1" fill="none" fill-rule="evenodd">
        <g id="Ethglobal_Website_Version" transform="translate(-1250.000000, -925.000000)" fill="#1F294F">
            <g id="Group-16" transform="translate(1122.000000, 925.000000)">
                <path d="M145.499855,1.52766688e-13 L145.499855,0.000288640006 C155.164361,0.000288640006 162.99971,7.80395983 163,17.4303927 C163,25.1289989 157.991555,31.6603449 151.042384,33.9677331 C150.155626,34.1388966 149.840334,33.5953875 149.840334,33.131543 C149.840334,32.5574381 149.860619,30.6804121 149.860619,28.3482009 C149.860619,26.7222917 149.301324,25.661251 148.673348,25.1203397 C152.570158,24.6885342 156.664025,23.2147384 156.664025,16.5200221 C156.664025,14.6170185 155.985047,13.0621148 154.862979,11.8411676 C155.044677,11.4024348 155.643674,9.62931922 154.691133,7.2287003 C154.691133,7.2287003 153.223635,6.76023757 149.883513,9.01538193 C148.484695,8.62889296 146.986479,8.43521552 145.499855,8.4285768 C144.012362,8.43521552 142.515015,8.62947024 141.118806,9.01595921 C137.774626,6.76081485 136.305389,7.22927758 136.305389,7.22927758 C135.355167,9.63018514 135.954163,11.4030121 136.136152,11.8417449 C135.016692,13.0626921 134.332787,14.6175958 134.332787,16.5205994 C134.332787,23.1994404 138.41912,24.694307 142.306076,25.134483 C141.805609,25.5697522 141.352087,26.3389778 141.195021,27.4655397 C140.196403,27.9106226 137.663346,28.6807141 136.102536,26.0165669 C136.102536,26.0165669 135.176946,24.3430321 133.419948,24.2203601 C133.419948,24.2203601 131.712213,24.1978462 133.300264,25.279669 C133.300264,25.279669 134.447254,25.8153848 135.243308,27.830092 C135.243308,27.830092 136.270614,30.941054 141.139091,29.8866521 C141.146626,31.3431296 141.162854,32.7161901 141.162854,33.1318317 C141.162854,33.5922125 140.841766,34.1319693 139.967469,33.9703309 C133.014241,31.6652518 128,25.1318853 128,17.4303927 C128,7.80338255 135.836219,1.52766688e-13 145.499855,1.52766688e-13 Z M134.628083,25.0259544 C134.589541,25.1125464 134.45276,25.138524 134.32815,25.0793528 C134.200643,25.0227794 134.129644,24.9047256 134.170794,24.817845 C134.208467,24.7283665 134.345538,24.7038321 134.472176,24.7635806 C134.599684,24.8204427 134.672131,24.939651 134.627793,25.026243 L134.628083,25.0259544 Z M135.33691,25.813653 C135.25374,25.8907199 135.090588,25.8549285 134.979889,25.7328338 C134.865132,25.611605 134.843687,25.4491006 134.928596,25.3708792 C135.014953,25.294101 135.173179,25.3304696 135.287936,25.4516984 C135.402113,25.574659 135.424717,25.7357202 135.3372,25.8139416 L135.33691,25.813653 Z M136.027191,26.8172543 C135.919968,26.8917234 135.744355,26.8221611 135.635974,26.6671615 C135.528751,26.5118731 135.528751,26.3257003 135.638872,26.2515199 C135.746963,26.1770507 135.919968,26.2443039 136.030089,26.3978603 C136.136731,26.5551691 136.136731,26.7413419 136.027191,26.8169656 L136.027191,26.8172543 Z M136.972197,27.7873733 C136.876566,27.8927269 136.671974,27.8644402 136.522442,27.7209861 C136.369723,27.5804184 136.327124,27.3803909 136.423044,27.275326 C136.520414,27.1696837 136.725875,27.199125 136.876276,27.3417132 C137.028996,27.4819922 137.075072,27.6823084 136.972776,27.7870847 L136.972197,27.7873733 Z M138.276253,28.35051 C138.233654,28.4870367 138.037176,28.5490943 137.83867,28.490789 C137.640743,28.4310405 137.511207,28.2714226 137.551777,28.1334527 C137.592348,27.9957714 137.790275,27.9314047 137.98994,27.9934623 C138.187867,28.0529221 138.317403,28.2116741 138.276253,28.35051 Z M139.708686,28.454709 C139.713613,28.5984517 139.545534,28.7173714 139.337755,28.7202578 C139.128236,28.7251647 138.958709,28.6085541 138.95668,28.4671205 C138.95668,28.3219346 139.121281,28.2044581 139.33051,28.2004172 C139.53829,28.1966649 139.708976,28.3121209 139.708976,28.4544204 L139.708686,28.454709 Z M141.041142,28.2289925 C141.066064,28.3689829 140.921459,28.5130143 140.714838,28.5514034 C140.511985,28.5889266 140.323621,28.5017573 140.29754,28.3629215 C140.272618,28.2191788 140.419832,28.0751474 140.622685,28.0379129 C140.829595,28.0024101 141.015061,28.0869817 141.041142,28.2292812 L141.041142,28.2289925 Z" id="Github"></path>
            </g>
        </g>
    </g>
</svg>