<svg xmlns="http://www.w3.org/2000/svg" viewBox="0 0 119.77 63.202"><defs><style>.cls-1{fill:#1b1e2a}.Graphic-Style-7{fill:url(#linear-gradient)}</style><linearGradient id="linear-gradient" x1="53.761" y1="53.735" x2="2.914" y2="2.888" gradientUnits="userSpaceOnUse"><stop offset="0" stop-color="#1438cf"/><stop offset="1" stop-color="#7926ab"/></linearGradient></defs><title>Aztec g &amp;amp; wordmark - c - bb</title><g id="Layer_2" data-name="Layer 2"><g id="content"><path class="cls-1" d="M87.089 17.007a4.794 4.794 0 0 0 3.46-1.078l.134-.1a.4.4 0 1 0-.483-.637l-.14.107a4.056 4.056 0 0 1-2.971.911 3.24 3.24 0 0 1-3.236-3.236v-.962h5.055a2.369 2.369 0 0 0 1.586-.494 1.923 1.923 0 0 0 .622-1.536 3.959 3.959 0 0 0-4.029-3.769 4.045 4.045 0 0 0-4.036 4.04v2.723a4.043 4.043 0 0 0 4.037 4.036zm-3.24-6.759a3.241 3.241 0 0 1 3.235-3.239 3.15 3.15 0 0 1 3.229 2.968 1.153 1.153 0 0 1-.343.93 1.613 1.613 0 0 1-1.065.3h-5.056zM66.627 37.026a5.373 5.373 0 0 0 4.073-8.911l1.21-1.211a.4.4 0 1 0-.566-.565l-1.213 1.211a5.355 5.355 0 0 0-3.507-1.327 5.4 5.4 0 0 0 0 10.8zm-4.6-5.4a4.606 4.606 0 0 1 4.6-4.6 4.6 4.6 0 0 1 0 9.2 4.606 4.606 0 0 1-4.604-4.599zm10.005 4.984a5.407 5.407 0 0 1-5.4 5.4.4.4 0 0 1 0-.8 4.6 4.6 0 0 0 4.6-4.6.4.4 0 1 1 .8 0zm47.742-.01a.4.4 0 0 1-.8 0v-6.36a3.24 3.24 0 0 0-3.237-3.236 3.24 3.24 0 0 0-3.236 3.225v6.374a.4.4 0 0 1-.8 0v-14.99a.4.4 0 1 1 .8 0v6.216a4.2 4.2 0 0 1 .383-.442 4.014 4.014 0 0 1 2.855-1.183 4.044 4.044 0 0 1 4.038 4.036zm-17.683-10.394a4.034 4.034 0 0 0-3.237 1.629v-1.228a.4.4 0 0 0-.8 0v15.019a.4.4 0 1 0 .8 0v-6.24a4.033 4.033 0 0 0 3.236 1.626 4.043 4.043 0 0 0 4.036-4.039v-2.731a4.043 4.043 0 0 0-4.035-4.036zm0 10a3.24 3.24 0 0 1-3.237-3.2v-2.761a3.239 3.239 0 0 1 3.235-3.239 3.24 3.24 0 0 1 3.236 3.236v2.731a3.239 3.239 0 0 1-3.232 3.238zM82.04 26.675a.39.39 0 0 1-.427.364H81.6a3.925 3.925 0 0 0-.423-.016 3.28 3.28 0 0 0-3.237 3.237v6.361a.4.4 0 1 1-.8 0v-10a.4.4 0 1 1 .8 0v1.257a4.07 4.07 0 0 1 3.238-1.66 4.471 4.471 0 0 1 .5.02.4.4 0 0 1 .362.437zm10.451 6.759v-3.181a3.992 3.992 0 0 0-1.165-3 4.094 4.094 0 0 0-2.871-1.031 4.824 4.824 0 0 0-2.525.643.4.4 0 1 0 .387.7 4.023 4.023 0 0 1 2.138-.541 3.31 3.31 0 0 1 2.323.813 3.216 3.216 0 0 1 .912 2.421v1a39.386 39.386 0 0 0-3.482-.032 2.977 2.977 0 0 0-2.882 2.9 2.9 2.9 0 0 0 2.9 2.9h.689a3.573 3.573 0 0 0 2.779-1.329v.927a.4.4 0 0 0 .8 0v-3.136c-.003-.025-.003-.039-.003-.054zm-.8.039a2.782 2.782 0 0 1-2.778 2.742h-.689a2.095 2.095 0 0 1-2.1-2.1 2.169 2.169 0 0 1 2.112-2.1c.393-.016.8-.023 1.238-.023.678 0 1.413.019 2.214.057zM77.594 10.25a3.239 3.239 0 0 0-3.237-3.235 3.235 3.235 0 0 0-3.237 3.225v6.374a.4.4 0 0 1-.8 0V1.621a.4.4 0 1 1 .8 0v6.222a4.033 4.033 0 0 1 3.236-1.629A4.044 4.044 0 0 1 78.4 10.25v6.361a.4.4 0 1 1-.8 0zm-16.366 4.1l-.005-10.231a.4.4 0 1 1 .8 0v3.006H63.9a.4.4 0 1 1 0 .8h-1.876v6.42a1.874 1.874 0 0 0 1.876 1.871h.913a.4.4 0 1 1 0 .8H63.9a2.676 2.676 0 0 1-2.672-2.671z"/><path class="Graphic-Style-7" d="M21.625 43.238A21.594 21.594 0 0 0 37.97 7.52l4.783-4.787A1.6 1.6 0 0 0 40.487.469L35.7 5.256A21.439 21.439 0 0 0 21.615.009h-.01a21.615 21.615 0 0 0 .01 43.229zM3.2 21.631A18.436 18.436 0 0 1 21.607 3.21h.008a18.414 18.414 0 0 1 .008 36.827h-.008A18.436 18.436 0 0 1 3.2 21.631zm40.038 19.946A21.638 21.638 0 0 1 21.634 63.2a1.6 1.6 0 0 1 0-3.2 18.434 18.434 0 0 0 18.4-18.421 1.6 1.6 0 0 1 1.6-1.6 1.6 1.6 0 0 1 1.604 1.598z"/></g></g></svg>