<svg width="255" height="131" viewBox="0 0 255 131" fill="none" xmlns="http://www.w3.org/2000/svg"><path d="M0 0h254.93v130.261H0z"/><path d="M0 0h254.93v130.261H0z"/><path d="M199.43 72.93c0 4.1-.5 7.6-1.4 10.7-.9 3.1-2.3 5.7-4 7.8-1.8 2.1-3.9 3.7-6.4 4.7-2.5 1.1-5.4 1.6-8.6 1.6-3.1 0-6-.5-8.5-1.6s-4.7-2.6-6.5-4.7c-1.8-2.1-3.1-4.7-4.1-7.8-1-3.1-1.4-6.7-1.4-10.7v-15c0-4.1.5-7.6 1.4-10.7 1-3.1 2.3-5.7 4.1-7.8 1.8-2.1 3.9-3.7 6.4-4.7 2.5-1.1 5.4-1.6 8.5-1.6 3.2 0 6 .5 8.6 1.6 2.5 1.1 4.7 2.6 6.5 4.7 1.8 2.1 3.1 4.7 4.1 7.8 1 3.1 1.4 6.7 1.4 10.7v15h-.1zm-30.6-3.9l20.1-15c-.2-4.3-1.2-7.5-2.8-9.5-1.7-2.1-4.1-3.1-7.2-3.1-3.4 0-5.9 1.2-7.6 3.6-1.7 2.4-2.5 6.1-2.5 11v13zm20.2-6.9l-20.1 15c.5 8.2 3.9 12.4 10.1 12.4 6.7 0 10.1-4.9 10.1-14.7v-12.7h-.1zm42.7 1.8l11.2-15.8h11.5l-16.5 23 17 23.7h-11.5l-11.6-16.4-11.5 16.4h-11.5l17-23.7-16.5-23h11.5l10.9 15.8z" fill="#000"/><path d="M0 0h130.261v130.261H0z"/><path d="M0 0h130.261v130.261H0z"/><path d="M32.43 121.43c8.4 4.9 18.1 8 28.5 8.7 14.4.9 27.9-2.9 39.2-10.1 5.6-3.6 10.6-8 14.9-13.1-3.5-4.9-7.3-10-11.3-15.2l-3.3-4.2c-4.3 6.8-10.4 12.2-17.7 15.5l-11.1-10.9-39.2 29.3zm-23.8-88.7c-4.8 8.4-7.8 17.9-8.5 28.2-.9 14.4 2.9 28 10.1 39.2 3.6 5.6 8 10.6 13.1 14.9 4.9-3.5 10-7.3 15.2-11.3l4.2-3.3c-6.7-4.3-12.1-10.4-15.5-17.7l11-11.2-29.6-38.8zm89.2-23.9c-8.4-4.9-18.1-8-28.5-8.7-14.4-.9-28 2.9-39.2 10.1-5.6 3.6-10.6 8-14.9 13.1 3.5 4.9 7.3 10 11.3 15.2l3.3 4.2c4.3-6.7 10.4-12.1 17.7-15.5l10.5 10.2 39.8-28.6zm23.9 88.4c4.7-8.3 7.7-17.7 8.4-27.9.9-14.4-2.9-27.9-10.1-39.2-3.6-5.6-8-10.6-13.1-14.9-4.9 3.5-10 7.3-15.2 11.3l-4.2 3.3c6.8 4.3 12.2 10.5 15.6 17.7l.1.2-10.6 11 29.1 38.5z" fill="#000"/></svg>