<svg width="372" height="163" viewBox="0 0 372 163" xmlns="http://www.w3.org/2000/svg" xmlns:xlink="http://www.w3.org/1999/xlink"><title>Artboard</title><defs><path id="a" d="M0 .302h30.72V42H0z"/></defs><g fill="none" fill-rule="evenodd"><path d="M109.023 143h34.51a5.65 5.65 0 0 0 3.72-1.398l20.994-17.08c.56-.489 1.057-1.066 1.344-1.75 1.353-3.236-.793-7.202-4.361-7.202h-32.633a5.65 5.65 0 0 1-3.741-1.416L106.53 94.416A5.65 5.65 0 0 0 102.787 93H9m122.256-74h12.63a5.62 5.62 0 0 1 3.52 1.24l20.464 15.196c1.876 1.51 2.69 4.096 1.715 6.292-.734 1.651-2.277 2.89-4.262 2.89h-32.309c-1.432 0-2.81.545-3.849 1.527L106 68m-52 2H22m65 0H73m-22 47l-21 .002M104 45H73m-18 0h-8m31 72h-8m33 0h-8m-5 26h-8m-17 0h-8m54-123h-8m-19 0H65" stroke-linecap="round" stroke="#3AA6FE" stroke-width="8"/><g transform="translate(212 60.698)"><mask id="b" fill="#fff"><use xlink:href="#a"/></mask><path d="M30.658 40.08c-1.92.96-5.76 1.92-10.68 1.92C8.58 42 0 34.801 0 21.541 0 8.882 8.58.302 21.12.302c5.038 0 8.218 1.08 9.6 1.8l-1.26 4.26c-1.982-.96-4.802-1.68-8.16-1.68-9.48 0-15.78 6.06-15.78 16.68 0 9.9 5.7 16.258 15.538 16.258 3.18 0 6.42-.659 8.52-1.68l1.08 4.14z" fill="#000" mask="url(#b)"/></g><path fill="#000" d="M270.139 83.14h-15.72v14.579h17.519v4.38H249.2V61.66h21.838v4.379h-16.62v12.78h15.72zm8.579-21.48h5.22v36.06h17.279v4.378h-22.5zm49.259 21.48h-15.72v14.579h17.52v4.38h-22.74V61.66h21.84v4.379h-16.62v12.78h15.72zm13.8-2.52h5.34c5.58 0 9.12-3.06 9.12-7.68 0-5.22-3.78-7.5-9.3-7.56-2.52 0-4.32.24-5.16.48v14.76zm-5.22-18.42c2.64-.54 6.42-.84 10.02-.84 5.58 0 9.18 1.02 11.7 3.3 2.04 1.8 3.18 4.56 3.18 7.68 0 5.34-3.362 8.88-7.62 10.32v.18c3.12 1.08 4.98 3.96 5.94 8.16 1.318 5.64 2.278 9.54 3.118 11.098h-5.399c-.66-1.139-1.56-4.62-2.7-9.659-1.2-5.58-3.36-7.679-8.1-7.86h-4.919v17.52h-5.22V62.2z"/></g></svg>