<?xml version="1.0" encoding="UTF-8"?>
<svg width="34px" height="34px" viewBox="0 0 34 34" version="1.1" xmlns="http://www.w3.org/2000/svg" xmlns:xlink="http://www.w3.org/1999/xlink">
    <!-- Generator: sketchtool 52 (66869) - http://www.bohemiancoding.com/sketch -->
    <title>E0BC8D3E-0F5A-46F5-9B3E-C6760D12BAC5</title>
    <desc>Created with sketchtool.</desc>
    <g id="Final-Version" stroke="none" stroke-width="1" fill="none" fill-rule="evenodd">
        <g id="Ethglobal_Website_Version" transform="translate(-1190.000000, -925.000000)" fill="#1F294F">
            <g id="Group-16" transform="translate(1122.000000, 925.000000)">
                <path d="M68,0 L102,0 L102,34 L68,34 L68,0 Z M94.8622116,24.5649288 C94.6588637,24.4228395 94.5562223,24.1688392 94.6010134,23.9185582 L94.6010134,10.1612406 C94.5584953,9.90441332 94.6596851,9.64473095 94.8622116,9.49093044 L96.5523177,7.53585918 L96.5523177,7.48 L90.5370763,7.48 L86.004519,19.1386085 L80.8573776,7.48 L74.7115371,7.48 L74.7115371,7.53585918 L76.4246902,9.84204526 C76.7206004,10.2272853 76.863517,10.7154664 76.8241698,11.2066052 L76.8241698,21.1814585 C76.8942254,21.7828742 76.7955198,22.392507 76.5399247,22.9370327 L74.12,26.248684 L74.12,26.3045432 L80.5424033,26.3045432 L80.5424033,26.248684 L78.1224786,22.9450126 C77.864982,22.3982688 77.7662185,21.7855063 77.8382335,21.1814585 L77.8382335,12.1562112 C77.9227388,12.3876278 77.9611503,12.4115675 78.0917494,12.7547024 L84.1069908,26.52 L84.1761315,26.52 L89.9839507,11.55772 C89.9071277,12.0843923 89.9071277,12.6988433 89.9071277,13.1536966 L89.9071277,23.9185582 C89.9492744,24.1615267 89.8610018,24.4090948 89.6766587,24.5649288 L87.948141,26.248684 L87.948141,26.3045432 L96.56,26.3045432 L96.56,26.248684 L94.8622116,24.5649288 Z" id="Medium"></path>
            </g>
        </g>
    </g>
</svg>