<?xml version="1.0" encoding="UTF-8"?>
<svg width="42px" height="34px" viewBox="0 0 42 34" version="1.1" xmlns="http://www.w3.org/2000/svg" xmlns:xlink="http://www.w3.org/1999/xlink">
    <!-- Generator: sketchtool 52 (66869) - http://www.bohemiancoding.com/sketch -->
    <title>F4E64D8B-A349-473D-BA76-574B6B7CC11A</title>
    <desc>Created with sketchtool.</desc>
    <g id="Final-Version" stroke="none" stroke-width="1" fill="none" fill-rule="evenodd">
        <g id="Ethglobal_Website_Version" transform="translate(-1122.000000, -925.000000)" fill="#1F294F">
            <g id="Group-16" transform="translate(1122.000000, 925.000000)">
                <path d="M13.2081749,34 C29.0579848,34 37.7248099,20.9168808 37.7248099,9.57397885 C37.7248099,9.2027325 37.7248099,8.83148615 37.7015209,8.4635545 C39.3878138,7.24783547 40.8433578,5.74267269 42,4.01854237 C40.4280449,4.71319561 38.7604205,5.1690638 37.0527567,5.37093979 C38.8508216,4.29702309 40.1962542,2.6090803 40.8388783,0.620975308 C39.147115,1.62151622 37.2961688,2.32664817 35.3659696,2.70592134 C32.6952825,-0.123347251 28.4515906,-0.815714806 25.0146243,1.01707686 C21.5776581,2.84986853 19.8022261,6.75198541 20.6839354,10.5352417 C13.755378,10.189408 7.29998949,6.92906364 2.92442966,1.56566469 C0.635028539,5.48728638 1.80051817,10.5064954 5.58602662,13.0278958 C4.22417456,12.9820412 2.89302416,12.6126968 1.70342205,11.9506184 C1.70342205,11.9870801 1.70342205,12.0235418 1.70342205,12.0600035 C1.70293502,16.1417734 4.58608292,19.6599869 8.60028517,20.4760257 C7.33101197,20.8204969 5.99935602,20.8703911 4.70769962,20.6218725 C5.83514915,24.1211174 9.07093702,26.5190062 12.7590304,26.5883318 C9.70483286,28.9713273 5.93537937,30.2624702 2.05608365,30.2543895 C1.36896806,30.2547715 0.682423598,30.2149264 0,30.1350603 C3.94006067,32.65653 8.52532069,33.994804 13.2081749,33.9900559" id="Twitter"></path>
            </g>
        </g>
    </g>
</svg>