<svg xmlns="http://www.w3.org/2000/svg" viewBox="0 0 408.06448 716.0027"><title>Mobile Cover</title><rect x="-17.82701" y="-23.44342" width="431.83027" height="753.61963" style="fill:#fff"/><polygon points="128.261 459.096 134.869 448.59 141.478 459.096 134.869 462.917 128.261 459.096" style="fill:#1f294f;fill-rule:evenodd"/><polygon points="128.261 460.891 134.869 464.711 141.478 460.891 134.869 469.964 128.261 460.891" style="fill:#1f294f;fill-rule:evenodd"/><path d="M137.87477,444.32861a30.90255,30.90255,0,0,0-2.99351,1.62066,29.16659,29.16659,0,0,0-3.01829-1.62817,34.75532,34.75532,0,0,1,2.996-1.83358Q136.37433,443.31033,137.87477,444.32861Z" style="fill:#5f9a34;fill-rule:evenodd"/><path d="M151.98562,441.96146c-3.62737-3.66961-10.23835-3.23126-17.12665.526q1.51536.82283,3.0158,1.8411a17.97951,17.97951,0,0,1,7.35874-1.91626,6.33178,6.33178,0,0,1,4.65738,1.66578c2.37453,2.40213,2.09226,7.05119-.24512,12.15864q1.00281,1.51413,1.8199,3.05092C155.1797,452.31913,155.613,445.63114,151.98562,441.96146Z" style="fill:#ffc750;fill-rule:evenodd"/><path d="M137.87477,444.32861a30.90255,30.90255,0,0,0-2.99351,1.62066,40.69938,40.69938,0,0,1,13.15508,13.32842,32.10834,32.10834,0,0,0,1.60942-3.04089,43.78256,43.78256,0,0,0-5.32593-6.52025A43.09284,43.09284,0,0,0,137.87477,444.32861Z" style="fill:#ffc750;fill-rule:evenodd"/><path d="M151.46566,459.28773c-.53728,1.00946-1.144,2.0264-1.81742,3.03838a31.67441,31.67441,0,0,0-1.61189-3.04841,32.10826,32.10826,0,0,0,1.60941-3.04089Q150.64862,457.75093,151.46566,459.28773Z" style="fill:#ff512f;fill-rule:evenodd"/><path d="M149.64824,462.32608a31.66994,31.66994,0,0,0-1.61189-3.04841,40.65954,40.65954,0,0,1-13.15509,13.32592,29.87532,29.87532,0,0,0,2.99351,1.62065,43.09208,43.09208,0,0,0,6.44507-5.388A43.65724,43.65724,0,0,0,149.64824,462.32608Z" style="fill:#ff6895;fill-rule:evenodd"/><path d="M153.5876,464.31243a29.16666,29.16666,0,0,0-2.12193-5.02473c-.53731,1.00947-1.14395,2.0264-1.81743,3.03838,2.33489,5.105,2.61718,9.749.24265,12.14863-2.37446,2.4022-6.9675,2.11416-12.01612-.25049-.208.1428-.416.28058-.624.41579-.79235.516-1.59209.992-2.39184,1.42532a22.3024,22.3024,0,0,0,10.35722,3.06095,9.20936,9.20936,0,0,0,6.76945-2.53245C154.63992,473.9086,155.20693,469.54765,153.5876,464.31243Z" style="fill:#ff6895;fill-rule:evenodd"/><path d="M137.87477,474.22422c-.208.1428-.416.28058-.624.41579-.79234.516-1.59208.992-2.39184,1.42532q-1.493-.81155-2.996-1.83359a29.16738,29.16738,0,0,0,3.01829-1.62816A29.87509,29.87509,0,0,0,137.87477,474.22422Z" style="fill:#552990;fill-rule:evenodd"/><path d="M129.00567,475.35392c-4.0706,1.29-7.3241.97688-9.15881-.87921s-2.14428-5.14751-.86909-9.26552a24.51871,24.51871,0,0,1,1.10678-2.88812c-.671-1.00946-1.27515-2.02389-1.81246-3.03085a29.13,29.13,0,0,0-2.11949,5.02222c-1.62178,5.23521-1.05231,9.59617,1.59953,12.28138a9.17156,9.17156,0,0,0,6.74469,2.535,17.94147,17.94147,0,0,0,5.39277-.91676,28.50208,28.50208,0,0,0,4.96938-2.14669q-1.493-.81155-2.996-1.83359A23.694,23.694,0,0,1,129.00567,475.35392Z" style="fill:#5666f6;fill-rule:evenodd"/><path d="M131.863,474.23174a29.16841,29.16841,0,0,0,3.01829-1.62816,40.37548,40.37548,0,0,1-13.18483-13.33844,30.29858,30.29858,0,0,0-1.61189,3.05593,43.75562,43.75562,0,0,0,5.33581,6.51517A43.04251,43.04251,0,0,0,131.863,474.23174Z" style="fill:#5666f6;fill-rule:evenodd"/><path d="M121.69644,459.26514a30.29858,30.29858,0,0,0-1.61189,3.05593c-.671-1.00947-1.27515-2.0239-1.81247-3.03086.54224-1.022,1.15135-2.044,1.82238-3.05343A30.44836,30.44836,0,0,0,121.69644,459.26514Z" style="fill:#204fa0;fill-rule:evenodd"/><path d="M119.84686,444.07813c1.83471-1.85615,5.08821-2.16926,9.15881-.87671a24.094,24.094,0,0,1,2.85731,1.11968,34.75549,34.75549,0,0,1,2.996-1.83358,28.30865,28.30865,0,0,0-4.96938-2.1467c-5.17242-1.63813-9.48317-1.06457-12.13747,1.62066a9.44066,9.44066,0,0,0-2.50326,6.84834,22.99124,22.99124,0,0,0,3.02322,10.4804c.54224-1.022,1.15136-2.044,1.82238-3.05342C117.75708,451.12932,117.47233,446.48026,119.84686,444.07813Z" style="fill:#5fc5a6;fill-rule:evenodd"/><path d="M131.863,444.32109a44.63815,44.63815,0,0,0-11.76852,11.91569,30.45053,30.45053,0,0,0,1.602,3.02836,40.65446,40.65446,0,0,1,13.18482-13.31588A29.16937,29.16937,0,0,0,131.863,444.32109Z" style="fill:#5fc5a6;fill-rule:evenodd"/><path d="M288.30957,467.38071v1.65936a1.81414,1.81414,0,0,1-.9437.25531,2.92622,2.92622,0,0,1-2.89424-2.20183,6.451,6.451,0,0,1-7.906,1.35359,6.64652,6.64652,0,0,1-3.217-7.4497,6.53416,6.53416,0,0,1,6.34137-4.97692,6.44392,6.44392,0,0,1,4.59289,1.91466V456.2758h1.95048v9.44556c0,1.18072.59773,1.65935,1.2898,1.65935Zm-4.0267-4.72274a4.5934,4.5934,0,1,0-4.59289,4.659A4.6263,4.6263,0,0,0,284.28287,462.658Zm6.48569-12.86055h2.04914v19.49886h-2.04914ZM270.277,462.57206a6.72529,6.72529,0,0,1-4.02589,6.204,6.43476,6.43476,0,0,1-7.13405-1.41958v1.681h-1.95463v-19.6549h1.95463v8.40508a6.43478,6.43478,0,0,1,7.13407-1.41957A6.72526,6.72526,0,0,1,270.277,462.57206Zm-1.95454,0a4.60416,4.60416,0,1,0-4.6027,4.71977,4.53069,4.53069,0,0,0,3.25893-1.37794,4.76644,4.76644,0,0,0,1.34378-3.34183Zm-27.96306.08634a6.55777,6.55777,0,1,1,6.55732,6.63788,6.51212,6.51212,0,0,1-4.63819-1.94268A6.67448,6.67448,0,0,1,240.35944,462.6584Zm11.15995,0a4.603,4.603,0,1,0-4.60263,4.6593A4.63122,4.63122,0,0,0,251.51939,462.6584Zm-20.99611-3.9646v.57785a9.85514,9.85514,0,0,1-8.33243,9.933,9.64006,9.64006,0,0,1-10.59554-7.2722,10.0475,10.0475,0,0,1,5.6208-11.79415,9.4785,9.4785,0,0,1,12.034,4.25381l-1.70785.99519a7.482,7.482,0,0,0-9.15927-3.527,7.8858,7.8858,0,0,0-4.933,8.723,7.55443,7.55443,0,0,0,14.96174.03658h-7.48368v-1.92616Zm4.09853-8.89638H236.671v19.49886h-2.04916Zm-26.639,0v19.49886H203.853v-7.86452H196.1608v7.86452h-4.16133V449.79742h4.16133v7.832H203.853v-7.832Zm-17.6227,3.80229h-4.7055v15.69657h-4.08222V453.59971h-4.73668v-3.80229h13.5244Zm-22.03322-.03251V457.662h6.23037v3.76979h-6.23037v4.09473h7.27934v3.76978H164.131V449.79742h11.47525v3.76978Z" style="fill:#1f294f"/><path d="M67.54483,500.4359a5.58005,5.58005,0,1,1-5.37208,5.56836A5.33221,5.33221,0,0,1,67.54483,500.4359Zm0,9.79395a4.23431,4.23431,0,1,0-3.86329-4.22559A3.86721,3.86721,0,0,0,67.54483,510.22985Z" style="fill:#535f87"/><path d="M76.22109,511.36168H74.80215v-7.25879h1.38867v1.04151a2.48567,2.48567,0,0,1,2.2334-1.25293c1.73535,0,2.5957,1.25293,2.5957,2.86767v4.60254H79.60147v-4.36133c0-1.01123-.42286-1.82617-1.69043-1.82617-1.1167,0-1.68995.89063-1.68995,1.99219Z" style="fill:#535f87"/><path d="M83.28262,511.36168V500.4359h1.40332v4.69336a2.64771,2.64771,0,0,1,2.39941-1.23779c2.20313,0,3.335,1.69043,3.335,3.80322,0,2.15772-1.22216,3.86328-3.38037,3.86328a2.58942,2.58942,0,0,1-2.354-1.25244v1.05615Zm3.5459-6.21728c-1.25244,0-2.15772.981-2.15772,2.55029s.90528,2.5957,2.15772,2.5957c1.29785,0,2.14306-1.02636,2.14306-2.5957S88.1415,505.1444,86.82852,505.1444Z" style="fill:#535f87"/><path d="M99.05117,507.725a3.71481,3.71481,0,1,1-3.7124-3.84863A3.66436,3.66436,0,0,1,99.05117,507.725Zm-1.44873,0a2.28485,2.28485,0,1,0-2.26367,2.59522A2.31559,2.31559,0,0,0,97.60244,507.725Z" style="fill:#535f87"/><path d="M102.61172,507.21178l1.96143-.28662c.438-.06055.55859-.28711.55859-.54346,0-.70947-.46777-1.29785-1.56934-1.29785a1.54021,1.54021,0,0,0-1.645,1.46387l-1.35839-.3169a2.79947,2.79947,0,0,1,2.97314-2.35449c2.17285,0,3.01807,1.23779,3.01807,2.65625v3.63672a6.811,6.811,0,0,0,.09082,1.19238h-1.38868a5.31018,5.31018,0,0,1-.07519-.98095,2.6469,2.6469,0,0,1-2.33936,1.20752,2.19456,2.19456,0,1,1-.22607-4.37647Zm2.52,1.041v-.332l-2.21826.332a1.08609,1.08609,0,0,0-1.05664,1.08691,1.1011,1.1011,0,0,0,1.17724,1.05615A1.90355,1.90355,0,0,0,105.13174,508.2528Z" style="fill:#535f87"/><path d="M112.78164,505.53649a4.40734,4.40734,0,0,0-.61865-.04541c-1.1919,0-1.9917.63427-1.9917,2.23388v3.63672h-1.41895v-7.25879H110.141v1.26758a2.27276,2.27276,0,0,1,2.17285-1.38818,2.6563,2.6563,0,0,1,.46777.04541Z" style="fill:#535f87"/><path d="M119.37588,510.26012a2.42987,2.42987,0,0,1-2.24854,1.29785c-2.12792,0-3.44091-1.69043-3.44091-3.84814a3.56714,3.56714,0,0,1,3.44091-3.80323,2.23061,2.23061,0,0,1,2.21827,1.22266V500.4359h1.40332v9.58252a11.44832,11.44832,0,0,0,.07568,1.34326h-1.37353a6.1372,6.1372,0,0,1-.0752-.98095Zm-2.11279.04541c1.29785,0,2.09765-1.13184,2.09765-2.626s-.78466-2.52-2.08252-2.52-2.14306,1.05616-2.14306,2.5503C115.13516,509.20348,115.90469,510.30553,117.26309,510.30553Z" style="fill:#535f87"/><path d="M123.85684,500.33043a1.01858,1.01858,0,1,1-1.01123,1.02588A1.01757,1.01757,0,0,1,123.85684,500.33043Zm-.69434,11.03125v-7.25879h1.40381v7.25879Z" style="fill:#535f87"/><path d="M128.39883,511.36168h-1.419v-7.25879h1.38868v1.04151a2.48566,2.48566,0,0,1,2.23339-1.25293c1.73536,0,2.59571,1.25293,2.59571,2.86767v4.60254H131.7792v-4.36133c0-1.01123-.42285-1.82617-1.69043-1.82617-1.1167,0-1.68994.89063-1.68994,1.99219Z" style="fill:#535f87"/><path d="M136.30508,511.43737a1.93,1.93,0,0,0,1.977,1.78027c1.52393,0,2.21826-.78467,2.21826-2.354v-1.041a2.41778,2.41778,0,0,1-2.21826,1.19189,3.529,3.529,0,0,1,0-7.04736,2.29124,2.29124,0,0,1,2.2334,1.147v-1.01123h1.40332v6.71534a3.31892,3.31892,0,0,1-3.63672,3.6372,3.17794,3.17794,0,0,1-3.3501-2.70117Zm4.25586-3.939a2.09509,2.09509,0,1,0-2.06738,2.32422A2.08966,2.08966,0,0,0,140.56094,507.4984Z" style="fill:#535f87"/><path d="M149.85537,504.10289h1.56934v1.28272h-1.56934v3.773c0,.66406.27149.99609,1.01074.99609a2.86332,2.86332,0,0,0,.5586-.06055v1.207a3.09541,3.09541,0,0,1-.96582.13623,1.88435,1.88435,0,0,1-2.022-2.06787v-3.98389h-1.38868v-1.28272h.39258a1.01558,1.01558,0,0,0,1.1167-1.1167V501.809h1.29785Z" style="fill:#535f87"/><path d="M154.7294,511.36168h-1.41846V500.4359h1.41846v4.51221a2.56738,2.56738,0,0,1,2.20312-1.05664c1.73535,0,2.5957,1.25293,2.5957,2.86767v4.60254h-1.41845v-4.36133c0-1.01123-.42285-1.82617-1.69043-1.82617-1.08643,0-1.66016.84522-1.68994,1.917Z" style="fill:#535f87"/><path d="M168.61172,507.725a3.71481,3.71481,0,1,1-3.7124-3.84863A3.66436,3.66436,0,0,1,168.61172,507.725Zm-1.44873,0a2.28485,2.28485,0,1,0-2.26367,2.59522A2.31559,2.31559,0,0,0,167.163,507.725Z" style="fill:#535f87"/><path d="M173.0624,511.58825a2.6846,2.6846,0,0,1-2.71631-2.9126v-4.57276h1.41846v4.36133c0,.9961.45264,1.8711,1.645,1.8711a1.64055,1.64055,0,0,0,1.72022-1.856v-4.37647h1.41845v5.91553a12.16939,12.16939,0,0,0,.07569,1.34326h-1.3584a6.4959,6.4959,0,0,1-.06006-.87549A2.368,2.368,0,0,1,173.0624,511.58825Z" style="fill:#535f87"/><path d="M179.56582,509.02282a1.547,1.547,0,0,0,1.68994,1.35791c.79981,0,1.2378-.45264,1.2378-.96582,0-.45264-.332-.79981-.936-.93555l-1.2373-.27149a2.06535,2.06535,0,0,1-1.811-2.03759,2.4743,2.4743,0,0,1,2.58057-2.29395,2.5744,2.5744,0,0,1,2.76172,1.94678l-1.25245.46826a1.40842,1.40842,0,0,0-1.50927-1.20752,1.09435,1.09435,0,0,0-1.207.96582c0,.4375.27148.7544.83007.87549l1.17676.25635a2.20646,2.20646,0,0,1,2.00733,2.1582,2.40816,2.40816,0,0,1-2.65625,2.24854,2.74112,2.74112,0,0,1-2.95752-2.1128Z" style="fill:#535f87"/><path d="M187.53311,507.21178l1.96142-.28662c.438-.06055.5586-.28711.5586-.54346,0-.70947-.46778-1.29785-1.56934-1.29785a1.54021,1.54021,0,0,0-1.645,1.46387l-1.3584-.3169a2.79949,2.79949,0,0,1,2.97315-2.35449c2.17285,0,3.01806,1.23779,3.01806,2.65625v3.63672a6.81208,6.81208,0,0,0,.09082,1.19238h-1.38867a5.31018,5.31018,0,0,1-.07519-.98095,2.64692,2.64692,0,0,1-2.33936,1.20752,2.19456,2.19456,0,1,1-.22607-4.37647Zm2.52,1.041v-.332l-2.21827.332a1.08577,1.08577,0,0,0-1.05664,1.08691,1.10081,1.10081,0,0,0,1.17725,1.05615A1.90355,1.90355,0,0,0,190.05313,508.2528Z" style="fill:#535f87"/><path d="M195.09268,511.36168h-1.41846v-7.25879h1.38818v1.04151a2.48568,2.48568,0,0,1,2.2334-1.25293c1.73535,0,2.5957,1.25293,2.5957,2.86767v4.60254h-1.41845v-4.36133c0-1.01123-.42285-1.82617-1.69043-1.82617-1.1167,0-1.68994.89063-1.68994,1.99219Z" style="fill:#535f87"/><path d="M207.23965,510.26012a2.42987,2.42987,0,0,1-2.24854,1.29785c-2.12793,0-3.44091-1.69043-3.44091-3.84814a3.56714,3.56714,0,0,1,3.44091-3.80323,2.23061,2.23061,0,0,1,2.21827,1.22266V500.4359h1.40332v9.58252a11.44832,11.44832,0,0,0,.07568,1.34326h-1.37354a6.13872,6.13872,0,0,1-.07519-.98095Zm-2.11279.04541c1.29785,0,2.09765-1.13184,2.09765-2.626s-.78467-2.52-2.08252-2.52-2.14306,1.05616-2.14306,2.5503C202.99893,509.20348,203.76846,510.30553,205.12686,510.30553Z" style="fill:#535f87"/><path d="M211.63027,509.02282a1.547,1.547,0,0,0,1.69,1.35791c.7998,0,1.23779-.45264,1.23779-.96582,0-.45264-.332-.79981-.936-.93555l-1.2373-.27149a2.06535,2.06535,0,0,1-1.811-2.03759,2.4743,2.4743,0,0,1,2.58057-2.29395,2.57439,2.57439,0,0,1,2.76172,1.94678l-1.25244.46826a1.40844,1.40844,0,0,0-1.50928-1.20752,1.09435,1.09435,0,0,0-1.207.96582c0,.4375.27148.7544.83008.87549l1.17675.25635a2.20646,2.20646,0,0,1,2.00733,2.1582,2.40816,2.40816,0,0,1-2.65625,2.24854,2.74112,2.74112,0,0,1-2.95752-2.1128Z" style="fill:#535f87"/><path d="M228.43984,507.725a3.71481,3.71481,0,1,1-3.7124-3.84863A3.66436,3.66436,0,0,1,228.43984,507.725Zm-1.44873,0a2.28485,2.28485,0,1,0-2.26367,2.59522A2.31559,2.31559,0,0,0,226.99111,507.725Z" style="fill:#535f87"/><path d="M232.15127,505.38561v5.97607H230.6874v-5.97607h-1.34326v-1.28272h1.34326v-1.22216a2.30175,2.30175,0,0,1,2.38428-2.49024,1.83978,1.83978,0,0,1,.84522.15088V501.809a1.65071,1.65071,0,0,0-.61866-.09033,1.088,1.088,0,0,0-1.147,1.2373v1.147h1.75049v1.28272Z" style="fill:#535f87"/><path d="M244.28311,510.26012a2.42987,2.42987,0,0,1-2.24854,1.29785c-2.12793,0-3.44092-1.69043-3.44092-3.84814a3.56714,3.56714,0,0,1,3.44092-3.80323,2.23059,2.23059,0,0,1,2.21826,1.22266V500.4359h1.40332v9.58252a11.4473,11.4473,0,0,0,.07569,1.34326H244.3583a6.13872,6.13872,0,0,1-.07519-.98095Zm-2.1128.04541c1.29786,0,2.09766-1.13184,2.09766-2.626s-.78467-2.52-2.08252-2.52-2.14307,1.05616-2.14307,2.5503C240.04238,509.20348,240.81192,510.30553,242.17031,510.30553Z" style="fill:#535f87"/><path d="M254.393,509.2943a3.29,3.29,0,0,1-3.25977,2.29395,3.86928,3.86928,0,0,1-.18066-7.71192c2.2334,0,3.48584,1.53955,3.48584,3.80322a3.17539,3.17539,0,0,1-.03027.45264h-5.46289a2.15526,2.15526,0,0,0,2.188,2.20313,1.97807,1.97807,0,0,0,2.0376-1.46387Zm-1.43359-2.30908a1.829,1.829,0,0,0-1.99219-1.856,1.95209,1.95209,0,0,0-1.97656,1.856Z" style="fill:#535f87"/><path d="M259.56826,511.36168h-1.43359l-2.94287-7.25879h1.59961l2.06738,5.59864,2.08252-5.59864h1.52441Z" style="fill:#535f87"/><path d="M270.1459,509.2943a3.29,3.29,0,0,1-3.25977,2.29395,3.86928,3.86928,0,0,1-.18066-7.71192c2.2334,0,3.48584,1.53955,3.48584,3.80322a3.17539,3.17539,0,0,1-.03027.45264h-5.46289a2.15526,2.15526,0,0,0,2.188,2.20313,1.97807,1.97807,0,0,0,2.0376-1.46387Zm-1.43359-2.30908a1.829,1.829,0,0,0-1.99219-1.856,1.95209,1.95209,0,0,0-1.97656,1.856Z" style="fill:#535f87"/><path d="M272.00137,511.36168V500.4359h1.41846v10.92578Z" style="fill:#535f87"/><path d="M282.65518,507.725a3.71482,3.71482,0,1,1-3.71241-3.84863A3.66436,3.66436,0,0,1,282.65518,507.725Zm-1.44873,0a2.28485,2.28485,0,1,0-2.26368,2.59522A2.31559,2.31559,0,0,0,281.20645,507.725Z" style="fill:#535f87"/><path d="M284.46524,514.22887v-10.126h1.373v1.13184a2.67758,2.67758,0,0,1,2.42969-1.29785c2.17285,0,3.335,1.67529,3.335,3.78808,0,2.15772-1.25244,3.833-3.38037,3.833a2.69927,2.69927,0,0,1-2.354-1.17724v3.84814Zm3.54589-9.03955a2.58628,2.58628,0,0,0,0,5.10107c1.313,0,2.14307-1.07177,2.14307-2.56543A2.2461,2.2461,0,0,0,288.01113,505.18932Z" style="fill:#535f87"/><path d="M299.73574,509.2943a3.28992,3.28992,0,0,1-3.25976,2.29395,3.86928,3.86928,0,0,1-.18067-7.71192c2.2334,0,3.48584,1.53955,3.48584,3.80322a3.1739,3.1739,0,0,1-.03027.45264H294.288a2.15527,2.15527,0,0,0,2.188,2.20313,1.97809,1.97809,0,0,0,2.0376-1.46387Zm-1.43359-2.30908a1.829,1.829,0,0,0-1.99219-1.856,1.9521,1.9521,0,0,0-1.97656,1.856Z" style="fill:#535f87"/><path d="M305.62,505.53649a4.40734,4.40734,0,0,0-.61865-.04541c-1.1919,0-1.9917.63427-1.9917,2.23388v3.63672h-1.41846v-7.25879h1.38819v1.26758a2.27276,2.27276,0,0,1,2.17285-1.38818,2.6563,2.6563,0,0,1,.46777.04541Z" style="fill:#535f87"/><path d="M307.73233,509.02282a1.547,1.547,0,0,0,1.68994,1.35791c.7998,0,1.23779-.45264,1.23779-.96582,0-.45264-.332-.79981-.936-.93555l-1.2373-.27149a2.06535,2.06535,0,0,1-1.811-2.03759,2.4743,2.4743,0,0,1,2.58057-2.29395,2.57439,2.57439,0,0,1,2.76172,1.94678l-1.25244.46826a1.40844,1.40844,0,0,0-1.50928-1.20752,1.09435,1.09435,0,0,0-1.207.96582c0,.4375.27148.7544.83008.87549l1.17676.25635a2.20646,2.20646,0,0,1,2.00732,2.1582,2.40816,2.40816,0,0,1-2.65625,2.24854,2.74112,2.74112,0,0,1-2.95752-2.1128Z" style="fill:#535f87"/><path d="M318.41494,500.33043a1.01858,1.01858,0,1,1-1.01123,1.02588A1.01758,1.01758,0,0,1,318.41494,500.33043Zm-.69385,11.03125v-7.25879h1.40333v7.25879Z" style="fill:#535f87"/><path d="M322.95742,511.36168h-1.41894v-7.25879h1.38867v1.04151a2.48567,2.48567,0,0,1,2.2334-1.25293c1.73535,0,2.5957,1.25293,2.5957,2.86767v4.60254h-1.41846v-4.36133c0-1.01123-.42285-1.82617-1.69043-1.82617-1.11669,0-1.68994.89063-1.68994,1.99219Z" style="fill:#535f87"/><path d="M331.92031,504.10289h1.56934v1.28272h-1.56934v3.773c0,.66406.27149.99609,1.01075.99609a2.8633,2.8633,0,0,0,.55859-.06055v1.207a3.09541,3.09541,0,0,1-.96582.13623,1.88472,1.88472,0,0,1-2.02246-2.06787v-3.98389h-1.38819v-1.28272h.39258a1.01558,1.01558,0,0,0,1.1167-1.1167V501.809h1.29785Z" style="fill:#535f87"/><path d="M342.19619,507.725a3.71481,3.71481,0,1,1-3.7124-3.84863A3.66436,3.66436,0,0,1,342.19619,507.725Zm-1.44873,0a2.28485,2.28485,0,1,0-2.26367,2.59522A2.31559,2.31559,0,0,0,340.74746,507.725Z" style="fill:#535f87"/><path d="M123.26846,522.20983h1.56933v1.28271h-1.56933v3.773c0,.66406.27148.99561,1.01074.99561a2.86728,2.86728,0,0,0,.55859-.06006v1.207a3.09535,3.09535,0,0,1-.96582.13623,1.88435,1.88435,0,0,1-2.022-2.06787v-3.98389h-1.38867v-1.28271h.39258a1.01558,1.01558,0,0,0,1.1167-1.1167v-1.17725h1.29785Z" style="fill:#535f87"/><path d="M128.142,529.46862h-1.41894V518.54283H128.142V523.055a2.5674,2.5674,0,0,1,2.20313-1.05664c1.73535,0,2.5957,1.25293,2.5957,2.86768v4.60254h-1.41846v-4.36133c0-1.01123-.42285-1.82617-1.69043-1.82617-1.08642,0-1.65966.84521-1.68994,1.917Z" style="fill:#535f87"/><path d="M141.52676,527.40123a3.28993,3.28993,0,0,1-3.25977,2.29395,3.869,3.869,0,0,1-.18066-7.71143c2.2334,0,3.48584,1.53907,3.48584,3.80274a3.17534,3.17534,0,0,1-.03027.45263H136.079a2.15527,2.15527,0,0,0,2.188,2.20313,1.97807,1.97807,0,0,0,2.0376-1.46387Zm-1.43359-2.30908a1.829,1.829,0,0,0-1.99219-1.856,1.95209,1.95209,0,0,0-1.97656,1.856Z" style="fill:#535f87"/><path d="M153.47695,527.40123a3.28991,3.28991,0,0,1-3.25976,2.29395,3.869,3.869,0,0,1-.18067-7.71143c2.2334,0,3.48584,1.53907,3.48584,3.80274a3.17385,3.17385,0,0,1-.03027.45263H148.0292a2.15526,2.15526,0,0,0,2.188,2.20313,1.97809,1.97809,0,0,0,2.0376-1.46387Zm-1.43359-2.30908a1.829,1.829,0,0,0-1.99219-1.856,1.9521,1.9521,0,0,0-1.97656,1.856Z" style="fill:#535f87"/><path d="M157.23379,522.20983h1.56934v1.28271h-1.56934v3.773c0,.66406.27148.99561,1.01074.99561a2.86748,2.86748,0,0,0,.5586-.06006v1.207a3.09541,3.09541,0,0,1-.96582.13623,1.88472,1.88472,0,0,1-2.02247-2.06787v-3.98389h-1.38818v-1.28271h.39258a1.01558,1.01558,0,0,0,1.1167-1.1167v-1.17725h1.29785Z" style="fill:#535f87"/><path d="M162.10781,529.46862h-1.41894V518.54283h1.41894V523.055a2.5674,2.5674,0,0,1,2.20313-1.05664c1.73535,0,2.5957,1.25293,2.5957,2.86768v4.60254h-1.41846v-4.36133c0-1.01123-.42285-1.82617-1.69043-1.82617-1.08642,0-1.65966.84521-1.68994,1.917Z" style="fill:#535f87"/><path d="M175.49209,527.40123a3.28993,3.28993,0,0,1-3.25976,2.29395,3.869,3.869,0,0,1-.18067-7.71143c2.2334,0,3.48584,1.53907,3.48584,3.80274a3.17534,3.17534,0,0,1-.03027.45263h-5.46289a2.15526,2.15526,0,0,0,2.188,2.20313,1.97767,1.97767,0,0,0,2.03759-1.46387Zm-1.43359-2.30908a1.82889,1.82889,0,0,0-1.9917-1.856,1.95222,1.95222,0,0,0-1.977,1.856Z" style="fill:#535f87"/><path d="M181.37637,523.64342a4.409,4.409,0,0,0-.61865-.04541c-1.1919,0-1.9917.63428-1.9917,2.23389v3.63672h-1.41895v-7.25879h1.38867v1.26758a2.27278,2.27278,0,0,1,2.17285-1.38819,2.65753,2.65753,0,0,1,.46778.04541Z" style="fill:#535f87"/><path d="M189.20791,527.40123a3.28992,3.28992,0,0,1-3.25976,2.29395,3.869,3.869,0,0,1-.18067-7.71143c2.2334,0,3.48584,1.53907,3.48584,3.80274a3.17534,3.17534,0,0,1-.03027.45263h-5.46289a2.15526,2.15526,0,0,0,2.188,2.20313,1.97767,1.97767,0,0,0,2.03759-1.46387Zm-1.43359-2.30908a1.82889,1.82889,0,0,0-1.9917-1.856,1.95222,1.95222,0,0,0-1.97705,1.856Z" style="fill:#535f87"/><path d="M193.704,529.69518a2.68459,2.68459,0,0,1-2.7163-2.9126v-4.57275h1.41845v4.36133c0,.99609.45264,1.87109,1.645,1.87109a1.64055,1.64055,0,0,0,1.72022-1.856v-4.37646h1.41845v5.91552a12.16961,12.16961,0,0,0,.07569,1.34327h-1.3584a6.49615,6.49615,0,0,1-.06006-.87549A2.368,2.368,0,0,1,193.704,529.69518Z" style="fill:#535f87"/><path d="M199.60391,529.46862v-7.25879h1.35791v.96582a2.50315,2.50315,0,0,1,2.20312-1.17725,2.2679,2.2679,0,0,1,2.17334,1.37354,2.60494,2.60494,0,0,1,2.42969-1.37354,2.48891,2.48891,0,0,1,2.50488,2.76172v4.7085h-1.40332V524.911a1.461,1.461,0,0,0-1.53906-1.65967,1.69225,1.69225,0,0,0-1.67529,1.82568v4.39161h-1.41846V524.911a1.46046,1.46046,0,0,0-1.53955-1.65967,1.68331,1.68331,0,0,0-1.68994,1.84082v4.37647Z" style="fill:#535f87"/><path d="M222.63027,527.40123a3.28991,3.28991,0,0,1-3.25976,2.29395,3.869,3.869,0,0,1-.18067-7.71143c2.2334,0,3.48584,1.53907,3.48584,3.80274a3.17385,3.17385,0,0,1-.03027.45263h-5.46289a2.15526,2.15526,0,0,0,2.188,2.20313,1.97809,1.97809,0,0,0,2.0376-1.46387Zm-1.43359-2.30908a1.829,1.829,0,0,0-1.99219-1.856,1.9521,1.9521,0,0,0-1.97656,1.856Z" style="fill:#535f87"/><path d="M225.33047,525.8319a2.28214,2.28214,0,0,0,2.21826,2.55029,1.97366,1.97366,0,0,0,2.02246-1.49414l1.25244.54346a3.33575,3.33575,0,0,1-3.2749,2.26367,3.861,3.861,0,0,1-.01465-7.71143,3.15662,3.15662,0,0,1,3.229,2.3086l-1.28272.54345a1.90321,1.90321,0,0,0-1.94629-1.53955A2.25787,2.25787,0,0,0,225.33047,525.8319Z" style="fill:#535f87"/><path d="M239.3041,525.8319a3.71479,3.71479,0,1,1-3.7124-3.84815A3.66435,3.66435,0,0,1,239.3041,525.8319Zm-1.44873,0a2.28485,2.28485,0,1,0-2.26367,2.59521A2.31559,2.31559,0,0,0,237.85537,525.8319Z" style="fill:#535f87"/><path d="M241.71768,527.12975a1.547,1.547,0,0,0,1.68994,1.35791c.7998,0,1.23779-.45264,1.23779-.96582,0-.45264-.332-.79981-.936-.93555l-1.23731-.27148a2.06536,2.06536,0,0,1-1.811-2.0376,2.47392,2.47392,0,0,1,2.58056-2.29346,2.57413,2.57413,0,0,1,2.76172,1.94629l-1.25244.46778a1.40846,1.40846,0,0,0-1.50928-1.207,1.09435,1.09435,0,0,0-1.207.96582c0,.4375.27149.7544.83008.87549l1.17676.25635a2.20645,2.20645,0,0,1,2.00732,2.1582,2.40816,2.40816,0,0,1-2.65625,2.24854,2.74113,2.74113,0,0,1-2.95752-2.11279Z" style="fill:#535f87"/><path d="M248.19082,532.50182l1.811-3.833-3.124-6.459h1.62989l2.26367,5.01025,2.17285-5.01025h1.52441l-4.72363,10.292Z" style="fill:#535f87"/><path d="M256.42959,527.12975a1.547,1.547,0,0,0,1.68994,1.35791c.79981,0,1.2378-.45264,1.2378-.96582,0-.45264-.332-.79981-.936-.93555l-1.2373-.27148a2.06536,2.06536,0,0,1-1.811-2.0376,2.47392,2.47392,0,0,1,2.58057-2.29346,2.57414,2.57414,0,0,1,2.76172,1.94629l-1.25245.46778a1.40845,1.40845,0,0,0-1.50927-1.207,1.09435,1.09435,0,0,0-1.207.96582c0,.4375.27148.7544.83007.87549l1.17676.25635a2.20646,2.20646,0,0,1,2.00733,2.1582,2.40816,2.40816,0,0,1-2.65625,2.24854,2.74112,2.74112,0,0,1-2.95752-2.11279Z" style="fill:#535f87"/><path d="M264.54775,522.20983h1.56934v1.28271h-1.56934v3.773c0,.66406.27149.99561,1.01075.99561a2.86728,2.86728,0,0,0,.55859-.06006v1.207a3.09535,3.09535,0,0,1-.96582.13623,1.88435,1.88435,0,0,1-2.022-2.06787v-3.98389h-1.38867v-1.28271h.39257a1.01558,1.01558,0,0,0,1.1167-1.1167v-1.17725h1.29785Z" style="fill:#535f87"/><path d="M274.32559,527.40123a3.28993,3.28993,0,0,1-3.25977,2.29395,3.869,3.869,0,0,1-.18066-7.71143c2.2334,0,3.48584,1.53907,3.48584,3.80274a3.17357,3.17357,0,0,1-.03028.45263h-5.46289a2.15526,2.15526,0,0,0,2.188,2.20313,1.97807,1.97807,0,0,0,2.0376-1.46387Zm-1.4336-2.30908a1.829,1.829,0,0,0-1.99218-1.856,1.9521,1.9521,0,0,0-1.97657,1.856Z" style="fill:#535f87"/><path d="M276.18106,529.46862v-7.25879H277.539v.96582a2.50314,2.50314,0,0,1,2.20312-1.17725,2.2679,2.2679,0,0,1,2.17334,1.37354,2.60494,2.60494,0,0,1,2.42969-1.37354,2.48891,2.48891,0,0,1,2.50488,2.76172v4.7085h-1.40332V524.911a1.461,1.461,0,0,0-1.53906-1.65967,1.69224,1.69224,0,0,0-1.67529,1.82568v4.39161h-1.41846V524.911a1.46046,1.46046,0,0,0-1.53955-1.65967,1.68331,1.68331,0,0,0-1.68994,1.84082v4.37647Z" style="fill:#535f87"/><path d="M372.42849,327.819v59.91863H368.829V327.819a1.79977,1.79977,0,0,1,3.59953,0Z" style="fill:#ff6895"/><path d="M384.9963,372.81349c0,.21465,0,.43247-.00325.647q-.00964,1.034-.04874,2.06145-.03906,1.034-.10733,2.06467c-.04548.68931-.10073,1.37866-.16908,2.06141-.065.68935-.143,1.37862-.23084,2.06146q-.12681,1.03878-.2926,2.06471-.161,1.03878-.35444,2.06137-.18039.95591-.38365,1.90214H372.42944V332.72627q1.57044,2.24838,2.95886,4.62682a69.53685,69.53685,0,0,1,6.077,13.41878q.3365,1.0242.64378,2.06142.30721,1.02425.57877,2.06471.273,1.02413.50717,2.06137c.16257.68284.309,1.37215.44549,2.06145.13653.68606.26338,1.37211.38039,2.06467.11384.6828.22116,1.37215.31546,2.06142.09423.68609.17877,1.3721.25029,2.06471.078.68279.13987,1.3721.19187,2.06141q.08288,1.0242.13328,2.06141.04882,1.02426.06835,2.06471C384.99305,371.86734,384.9963,372.342,384.9963,372.81349Z" style="fill:#ffe7c0"/><path d="M390.17377,372.34672a48.71021,48.71021,0,0,1-2.47627,15.39095h-4.29169a70.58681,70.58681,0,0,0-2.73154-39.2262h2.07863a2.05027,2.05027,0,0,1,1.8117,1.09731A48.57484,48.57484,0,0,1,390.17377,372.34672Z" style="fill:#ffc750"/><path d="M392.98972,391.14718v.28081h-30.4883v-.28081a3.409,3.409,0,0,1,3.4095-3.40951h23.6693A3.409,3.409,0,0,1,392.98972,391.14718Z" style="fill:#1f294f"/><path d="M382.109,352.83329h-6.97762a.47455.47455,0,0,1-.4747-.47145v-1.11527a.47526.47526,0,0,1,.4747-.4747h6.33384Q381.80176,351.79607,382.109,352.83329Z" style="fill:#5666f6"/><path d="M383.195,356.95937h-8.06356a.47522.47522,0,0,1-.4747-.4747v-1.11523a.47454.47454,0,0,1,.4747-.47144h7.55639Q382.96084,355.92213,383.195,356.95937Z" style="fill:#5666f6"/><path d="M384.02086,361.08549h-8.88944a.47525.47525,0,0,1-.4747-.4747v-1.11527a.47734.47734,0,0,1,.4747-.4747h8.50905C383.777,359.70688,383.90385,360.39293,384.02086,361.08549Z" style="fill:#5666f6"/><path d="M384.58661,365.21162h-9.45519a.47736.47736,0,0,1-.4747-.4747v-1.11527a.47526.47526,0,0,1,.4747-.47474h9.2049C384.43055,363.833,384.51509,364.519,384.58661,365.21162Z" style="fill:#5666f6"/><path d="M384.91176,369.33444h-9.78034a.47454.47454,0,0,1-.4747-.47144v-1.11527a.47525.47525,0,0,1,.4747-.4747h9.64706Q384.86136,368.29723,384.91176,369.33444Z" style="fill:#5666f6"/><path d="M384.9963,372.81349c0,.21465,0,.43247-.00325.647h-9.86163a.47523.47523,0,0,1-.4747-.4747V371.8706a.47455.47455,0,0,1,.4747-.47145h9.84869C384.99305,371.86734,384.9963,372.342,384.9963,372.81349Z" style="fill:#5666f6"/><path d="M384.94431,375.522q-.03906,1.034-.10733,2.06467h-9.70556a.47736.47736,0,0,1-.4747-.4747v-1.11527a.47734.47734,0,0,1,.4747-.4747Z" style="fill:#5666f6"/><path d="M384.6679,379.64806c-.065.68935-.143,1.37862-.23084,2.06146h-9.30564a.47454.47454,0,0,1-.4747-.47145v-1.11523a.4753.4753,0,0,1,.4747-.47478Z" style="fill:#5666f6"/><path d="M384.14446,383.77423q-.161,1.03878-.35444,2.06137h-8.6586a.47522.47522,0,0,1-.4747-.4747v-1.11523a.47454.47454,0,0,1,.4747-.47144Z" style="fill:#5666f6"/><path d="M208.89255,360.88349a11.18146,11.18146,0,0,1-8.35071,10.81473,11.1763,11.1763,0,0,1-8.35331-10.81473c0-4.86876,4.85541-7.47809,7.7877-10.25021a.76631.76631,0,0,1,1.08369.03646C203.65555,353.42863,208.89255,356.03848,208.89255,360.88349Z" style="fill:#ff6895"/><path d="M192.82791,364.28328h14.883a2.33886,2.33886,0,0,1,2.33886,2.33886v22.09507a0,0,0,0,1,0,0H190.489a0,0,0,0,1,0,0V366.62214A2.33886,2.33886,0,0,1,192.82791,364.28328Z" style="fill:#5666f6"/><path d="M220.55939,364.2799a6.38539,6.38539,0,0,1-4.76882,6.176,6.38244,6.38244,0,0,1-4.77031-6.17595c0-2.78039,2.77277-4.27049,4.44731-5.85356a.43762.43762,0,0,1,.61886.02082C217.56871,360.02267,220.55939,361.51307,220.55939,364.2799Z" style="fill:#ff6895"/><path d="M211.38539,366.22141h8.49918a1.33565,1.33565,0,0,1,1.33565,1.33565v19.819a1.34113,1.34113,0,0,1-1.34113,1.34113h-9.82935a0,0,0,0,1,0,0V367.55706A1.33565,1.33565,0,0,1,211.38539,366.22141Z" style="fill:#100b5a"/><path d="M189.82821,364.2799a6.38539,6.38539,0,0,1-4.76882,6.176,6.38243,6.38243,0,0,1-4.7703-6.17595c0-2.78039,2.77277-4.27049,4.4473-5.85356a.43762.43762,0,0,1,.61886.02082C186.83753,360.02267,189.82821,361.51307,189.82821,364.2799Z" style="fill:#ff6895"/><path d="M180.65422,366.22141h8.49918a1.33565,1.33565,0,0,1,1.33565,1.33565v21.16016a0,0,0,0,1,0,0H180.6597a1.34113,1.34113,0,0,1-1.34113-1.34113v-19.819A1.33565,1.33565,0,0,1,180.65422,366.22141Z" style="fill:#ffc750"/><path d="M200.67256,369.147a.59484.59484,0,0,0-.84118-.02831c-2.27615,2.15179-6.045,4.17723-6.045,7.9565V386.747h12.96609v-9.67177C206.75244,373.31438,202.68734,371.28853,200.67256,369.147Z" style="fill:#fff"/><path d="M184.92313,378.92892a.28735.28735,0,0,0-.40635-.01367c-1.09953,1.03946-2.92015,2.01788-2.92015,3.84352V386.747h6.26349v-3.98821C187.86012,380.942,185.8964,379.96341,184.92313,378.92892Z" style="fill:#fff"/><path d="M184.96422,368.447a.28736.28736,0,0,0-.40635-.01368c-1.09953,1.03946-2.92015,2.01788-2.92015,3.84353v3.98821h6.26349v-3.98821C187.90121,370.46015,185.9375,369.48153,184.96422,368.447Z" style="fill:#fff"/><path d="M215.80919,378.84685a.28735.28735,0,0,0-.40634-.01368c-1.09954,1.03946-2.92016,2.01789-2.92016,3.84353v3.98821h6.2635V382.6767C218.74619,380.86,216.78247,379.88134,215.80919,378.84685Z" style="fill:#fff"/><path d="M215.85028,368.365a.28733.28733,0,0,0-.40634-.01368c-1.09954,1.03946-2.92016,2.01788-2.92016,3.84353v3.9882h6.2635v-3.9882C218.78728,370.37808,216.82356,369.39946,215.85028,368.365Z" style="fill:#fff"/><path d="M90.90976,248.3577A16.5024,16.5024,0,0,1,74.426,231.87376v-2.15162h1.69776v2.15162a14.786,14.786,0,1,0,29.57194,0v-2.15162h1.69776v2.15162A16.5024,16.5024,0,0,1,90.90976,248.3577Z" style="fill:#f4b2f0"/><path d="M54.36731,248.3577v-1.69776a14.80283,14.80283,0,0,0,14.786-14.78618v-2.15162H70.851v2.15162A16.5024,16.5024,0,0,1,54.36731,248.3577Z" style="fill:#f4b2f0"/><path d="M127.42216,248.3577a16.5024,16.5024,0,0,1-16.48373-16.48394v-2.15162h1.69776v2.15162a14.80283,14.80283,0,0,0,14.786,14.78618Z" style="fill:#f4b2f0"/><path d="M70.686,225.49776h3.88058a1.36063,1.36063,0,0,1,1.36063,1.36063V264.4112a0,0,0,0,1,0,0H69.32537a0,0,0,0,1,0,0V226.85839A1.36063,1.36063,0,0,1,70.686,225.49776Z" style="fill:#ff6895"/><path d="M107.2529,225.49776h3.88058a1.36063,1.36063,0,0,1,1.36063,1.36063V264.4112a0,0,0,0,1,0,0h-6.60184a0,0,0,0,1,0,0V226.85839A1.36063,1.36063,0,0,1,107.2529,225.49776Z" style="fill:#ff6895"/><path d="M71.14156,223.34676H74.111a.2306.2306,0,0,1,.2306.2306v1.92039a0,0,0,0,1,0,0H70.911a0,0,0,0,1,0,0v-1.92039A.2306.2306,0,0,1,71.14156,223.34676Z" style="fill:#ff6895"/><path d="M107.70847,223.34676h2.96945a.2306.2306,0,0,1,.2306.2306v1.92039a0,0,0,0,1,0,0h-3.43066a0,0,0,0,1,0,0v-1.92039A.2306.2306,0,0,1,107.70847,223.34676Z" style="fill:#ff6895"/><path d="M54.83388,254.8295H126.9856a2.93317,2.93317,0,0,1,2.93317,2.93317v0a0,0,0,0,1,0,0H51.90071a0,0,0,0,1,0,0v0a2.93317,2.93317,0,0,1,2.93317-2.93317Z" style="fill:#100b5a"/><path d="M69.34207,264.4112h6.6651a.97466.97466,0,0,1,.97466.97466v1.95852a0,0,0,0,1,0,0H68.36741a0,0,0,0,1,0,0v-1.95852a.97466.97466,0,0,1,.97466-.97466Z" style="fill:#100b5a"/><path d="M105.86064,264.4112h6.6651a.97466.97466,0,0,1,.97466.97466v1.95852a0,0,0,0,1,0,0H104.886a0,0,0,0,1,0,0v-1.95852A.97466.97466,0,0,1,105.86064,264.4112Z" style="fill:#100b5a"/><rect x="81.07138" y="244.25796" width="1.69776" height="10.57162" style="fill:#f4b2f0"/><rect x="87.06431" y="247.20873" width="1.69776" height="7.62085" style="fill:#f4b2f0"/><rect x="117.31042" y="244.25796" width="1.69776" height="10.57162" style="fill:#f4b2f0"/><rect x="123.30335" y="247.20873" width="1.69776" height="7.62085" style="fill:#f4b2f0"/><rect x="99.05038" y="244.25796" width="1.69776" height="10.57162" style="fill:#f4b2f0"/><rect x="93.05745" y="247.20873" width="1.69776" height="7.62085" style="fill:#f4b2f0"/><rect x="62.79352" y="244.25796" width="1.69776" height="10.57162" style="fill:#f4b2f0"/><rect x="56.80059" y="247.20873" width="1.69776" height="7.62085" style="fill:#f4b2f0"/><path d="M353.79866,153.91461c6.60273,0,10.78637,6.76336,12.31487,9.75729a2.55961,2.55961,0,0,0,2.28123,1.39747h5.01441a1.635,1.635,0,0,0,1.17943-2.76739c-19.93022-20.77865-19.13128-47.28582-19.13128-47.28582a6.00174,6.00174,0,0,1,.108-.91843l-1.52833-1.81857a.31254.31254,0,0,0-.47886-.00043l-1.52735,1.81849a6.02466,6.02466,0,0,1,.10825.9209s.79983,26.50715-19.13114,47.2858a1.635,1.635,0,0,0,1.1794,2.76741H339.202a2.55953,2.55953,0,0,0,2.28137-1.39776C343.0116,160.6791,347.19538,153.91461,353.79866,153.91461Z" style="fill:#fe6447"/><rect x="348.31711" y="132.02977" width="10.65539" height="2.19797" rx="0.68486" style="fill:#ffc750"/><rect x="342.38482" y="145.65718" width="22.51996" height="2.19797" rx="0.68486" style="fill:#ffc750"/><g style="isolation:isolate"><polygon points="358.181 146.662 353.87 139.173 349.555 146.662 353.87 149.408 358.181 146.662" style="fill:#fff"/></g><circle cx="303.21037" cy="63.02728" r="1.30276" style="fill:none"/><path d="M290.69361,49.22094l6.215-10.058,11.39159,5.80741a1.0906,1.0906,0,0,1,.69682-.0606,2.56638,2.56638,0,0,1,1.81781-.818,1.79543,1.79543,0,0,1,1.33307.96951.73614.73614,0,0,1-.21208.9695,19.2356,19.2356,0,0,0-2.60552,4.02948,13.07748,13.07748,0,0,0-.9998,9.30113,26.146,26.146,0,0,1,.9998,4.66572q.59078,5.04443-1.54514,6.81679a12.55436,12.55436,0,0,1-7.11976,2.48434,5.36425,5.36425,0,0,1-.69682-.03029c-3.51443-.27267-6.18056-1.54515-7.96807-3.81741-2.63583-3.363-3.30236-8.90727-1.96929-16.3906Zm12.51676,15.10911a1.30277,1.30277,0,1,0-1.30276-1.30277A1.31245,1.31245,0,0,0,303.21037,64.33005Z" style="fill:#fe6447"/><circle cx="303.21037" cy="63.02728" r="1.30276" style="fill:none"/><path d="M304.24045,27.03462a2.77652,2.77652,0,0,1,2.36315,1.636,4.89145,4.89145,0,0,1,.27268.78772c2.33286.09089,3.72651.63623,4.15067,1.57543a2.29411,2.29411,0,0,1-.45445,2.18138,1.95721,1.95721,0,0,1-.60594,1.424,1.39155,1.39155,0,0,1-.66653.33326,2.41549,2.41549,0,0,1-.515,1.18158l-.1212.15148-.09088-.18178s-.78772-1.36336-1.51485-1.54515h0l-.69682-.18178a1.86505,1.86505,0,0,0-.72713.18178,1.0979,1.0979,0,0,0-.72713,1.06039s-.0606,1.0301,1.30276,1.424c.03029,0,.06059.0303.09088.0303.303.0606.54534.12118.818.18178.09089.0303.18178.0303.27268.0606a8.43853,8.43853,0,0,0,.21208-1.03009l.03029-.21208.18178.12119a2.13981,2.13981,0,0,1,.69682,1.48455.79494.79494,0,0,1,.48474.818,2.54624,2.54624,0,0,1-1.54513,2.09048l-5.514-2.21166C298.09019,33.76052,304.24045,27.03462,304.24045,27.03462Z" style="fill:#fe6447"/><path d="M303.69765,29.40258l1.57544-.72712.0606.0303c.63622.24237.75742,1.939.78771,2.12078v.21207l-.18178-.06059a4.42635,4.42635,0,0,1-2.12077-1.424Z" style="fill:#fff"/><path d="M294.78785,55.63485a1.43025,1.43025,0,0,1-1.51485,1.33306,1.45094,1.45094,0,0,1-1.51484-1.33306Z" style="fill:#f2cb8b"/><path d="M301.36225,51.39329a1.208,1.208,0,0,1-1.24217,1.121,1.16856,1.16856,0,0,1-1.24216-1.121Z" style="fill:#f2cb8b"/><path d="M299.12029,55.39247a1.20794,1.20794,0,0,1-1.24216,1.121,1.18718,1.18718,0,0,1-1.24216-1.121Z" style="fill:#f2cb8b"/><path d="M299.393,63.02728a1.20794,1.20794,0,0,1-1.24216,1.121,1.16856,1.16856,0,0,1-1.24216-1.121Z" style="fill:#f2cb8b"/><path d="M301.90761,68.26864a1.208,1.208,0,0,1-1.24217,1.121,1.18719,1.18719,0,0,1-1.24216-1.121Z" style="fill:#f2cb8b"/><path d="M294.30309,60.87621a.90909.90909,0,0,1-.9392.8483.88892.88892,0,0,1-.93919-.8483Z" style="fill:#f2cb8b"/><path d="M295.727,66.81438a.90909.90909,0,0,1-.93919.84831.88893.88893,0,0,1-.9392-.84831Z" style="fill:#f2cb8b"/><path d="M307.60341,66.35993a.8237.8237,0,0,1-1.636,0Z" style="fill:#f2cb8b"/><path d="M308.42143,63.45144a.57922.57922,0,0,1-1.1513,0Z" style="fill:#f2cb8b"/><path d="M306.69451,61.8154a.57922.57922,0,0,1-1.1513,0Z" style="fill:#f2cb8b"/><path d="M294.66665,68.78367c.18177.03033.33325.0909.51506.12116a18.48952,18.48952,0,0,0,4.93837.66659,19.8779,19.8779,0,0,0,4.9384-.66659c.15149-.03026.33326-.09083.515-.12116,7.51364-1.636,8.48312,4.66568,8.63461,4.90807h-28.1155C286.18353,73.44943,287.15305,67.14767,294.66665,68.78367Z" style="fill:#100b5a"/><path d="M301.39256,35.19512V32.98533a4.16453,4.16453,0,0,1,.58094-2.12159l2.267-3.82911-.23843-.2751a7.86971,7.86971,0,0,0-5.94706-2.7156h-4.47152a5.40033,5.40033,0,0,0-5.40033,5.40032V45.97017a6.60472,6.60472,0,0,0,6.60473,6.60472h0v-7.58a6.60463,6.60463,0,0,0,6.60466,6.60466h0v-8.655a6.60465,6.60465,0,0,0,6.6047,6.60465v-8.881l-4.69136-2.36553A3.48026,3.48026,0,0,1,301.39256,35.19512Z" style="fill:#ffc750"/><path d="M333.43289,324.43105l-9.05921,6.11318a.93672.93672,0,0,1-1.46068-.77647v-1.1891a.93672.93672,0,0,1,.37438-.74914l5.96231-4.47555a.9367.9367,0,0,0,0-1.49828l-5.96231-4.47555a.93672.93672,0,0,1-.37438-.74914v-1.18246a.93672.93672,0,0,1,1.46239-.77531l9.05921,6.1423a.93671.93671,0,0,1,.411.77531v2.06374A.93673.93673,0,0,1,333.43289,324.43105Z" style="fill:#ff6895"/><path d="M76.39863,74.79632l-9.05921,6.11319a.93672.93672,0,0,1-1.46068-.77647v-1.1891a.9367.9367,0,0,1,.37438-.74914l5.96232-4.47555a.93672.93672,0,0,0,0-1.49829l-5.96232-4.47554a.93672.93672,0,0,1-.37438-.74915V65.81382a.93672.93672,0,0,1,1.46239-.77531l9.05921,6.14229a.93671.93671,0,0,1,.41105.77532v2.06374A.93668.93668,0,0,1,76.39863,74.79632Z" style="fill:#ff6895"/><path d="M98.43319,175.73564l11.52489-7.777a1.19167,1.19167,0,0,1,1.85824.98781v1.51274a1.19166,1.19166,0,0,1-.47627.953l-7.58511,5.69367a1.19167,1.19167,0,0,0,0,1.90608l7.58511,5.69368a1.19165,1.19165,0,0,1,.47627.953v1.50428a1.19166,1.19166,0,0,1-1.86041.98633L98.431,180.3352a1.19164,1.19164,0,0,1-.52292-.98633v-2.62543A1.19165,1.19165,0,0,1,98.43319,175.73564Z" style="fill:#5fc5a6"/><path d="M399.56982,193.95609l-11.79572,7.95979a1.21968,1.21968,0,0,1-1.90191-1.011v-1.54829a1.21971,1.21971,0,0,1,.48747-.97544l7.76335-5.82746a1.21968,1.21968,0,0,0,0-1.95088l-7.76335-5.82747a1.21968,1.21968,0,0,1-.48747-.97543v-1.53964a1.21968,1.21968,0,0,1,1.90414-1.00951l11.79571,7.99769a1.21968,1.21968,0,0,1,.53521,1.00951v2.68714A1.21968,1.21968,0,0,1,399.56982,193.95609Z" style="fill:#5666f6"/><path d="M7.59237,214.43664a1.06227,1.06227,0,0,0,1.42559.702,10.31866,10.31866,0,0,0,0-19.15138,1.06228,1.06228,0,0,0-1.42556.702l-.24444.90034a1.05667,1.05667,0,0,0,.61438,1.2534,7.27585,7.27585,0,0,1,0,13.44,1.05667,1.05667,0,0,0-.61435,1.25339Z" style="fill:#ffc750"/><circle cx="0.05845" cy="205.56293" r="1.9407" style="fill:#ffc750"/><circle cx="6.84056" cy="205.56293" r="1.9407" style="fill:#ffc750"/><path d="M355.88868,67.73319a1.06228,1.06228,0,0,1-1.42559.702,10.31866,10.31866,0,0,1,0-19.15139,1.06228,1.06228,0,0,1,1.42555.702l.24444.90034a1.05667,1.05667,0,0,1-.61438,1.2534,7.27585,7.27585,0,0,0,0,13.44,1.05665,1.05665,0,0,1,.61435,1.25339Z" style="fill:#ffc750"/><path d="M371.07342,67.73319a1.06228,1.06228,0,0,0,1.4256.702,10.31867,10.31867,0,0,0,0-19.15139,1.06228,1.06228,0,0,0-1.42556.702l-.24444.90034a1.05668,1.05668,0,0,0,.61438,1.2534,7.27585,7.27585,0,0,1,0,13.44,1.05667,1.05667,0,0,0-.61435,1.25339Z" style="fill:#ffc750"/><circle cx="356.75739" cy="58.85947" r="1.9407" style="fill:#ffc750"/><circle cx="363.5395" cy="58.85947" r="1.9407" style="fill:#ffc750"/><circle cx="370.32161" cy="58.85947" r="1.9407" style="fill:#ffc750"/><polygon points="165.378 201.592 179.44 193.5 193.502 201.592 179.44 209.671 165.378 201.592" style="fill:#ffc750"/><polygon points="165.378 201.592 165.378 217.735 179.44 225.843 179.44 209.671 165.378 201.592" style="fill:#5666f6"/><polygon points="193.502 201.592 179.44 209.671 179.44 225.843 193.502 217.767 193.502 201.592" style="fill:#ff6895"/><polygon points="60.894 351.16 69.859 346.001 78.824 351.16 69.859 356.31 60.894 351.16" style="fill:#ffc750"/><polygon points="60.894 351.16 60.894 361.451 69.859 366.62 69.859 356.31 60.894 351.16" style="fill:#5666f6"/><polygon points="78.824 351.16 69.859 356.31 69.859 366.62 78.824 361.472 78.824 351.16" style="fill:#ff6895"/><rect x="6.54708" y="5.85479" width="22.10042" height="36.05777" rx="3.65698" style="fill:#100b5a"/><rect x="9.05895" y="8.565" width="17.0767" height="26.91004" rx="0.31107" style="fill:#fff"/><path d="M13.42319,21.5915l4.1741-6.5593,4.1741,6.5593-4.1741,2.3852Z" style="fill:#fecf64"/><path d="M13.42319,21.5915l4.1741,2.3852,4.1741-2.3852-4.1741,5.66485Z" style="fill:#fe6447"/><circle cx="17.46126" cy="38.75755" r="1.23374" style="fill:#fff"/><circle cx="293.45537" cy="7.972" r="1.91577" style="fill:#5666f6"/><circle cx="300.15037" cy="7.972" r="1.91577" style="fill:#ff6895"/><circle cx="306.84537" cy="7.972" r="1.91577" style="fill:#ffc750"/><circle cx="206.73515" cy="102.22722" r="1.91577" style="fill:#5666f6"/><circle cx="206.73515" cy="108.92222" r="1.91577" style="fill:#ff6895"/><circle cx="206.73515" cy="115.61721" r="1.91577" style="fill:#ffc750"/><path d="M298.26893,119.90031a10.97813,10.97813,0,1,0-19.105,7.38013,12.91069,12.91069,0,0,1,3.35348,8.68361v.27564a1.10374,1.10374,0,0,0,1.10373,1.10374h7.33949a1.10374,1.10374,0,0,0,1.10373-1.10374v-.27463a13.23654,13.23654,0,0,1,3.43474-8.775A10.93587,10.93587,0,0,0,298.26893,119.90031Z" style="fill:#ffc750"/><rect x="285.1859" y="124.36341" width="0.72047" height="12.9799" style="fill:#fff"/><rect x="288.81755" y="124.36341" width="0.72047" height="12.9799" style="fill:#fff"/><path d="M282.43965,121.5914l4.85122-7.62334,4.85121,7.62334-4.85121,2.77212Z" style="fill:#fff"/><path d="M282.43965,121.5914l4.85122,2.77213,4.85121-2.77213-4.85121,6.5838Z" style="fill:#ffe7c0"/><path d="M283.62112,137.34343h7.41027a0,0,0,0,1,0,0V139.437a3.70513,3.70513,0,0,1-3.70513,3.70513h0a3.70513,3.70513,0,0,1-3.70513-3.70513v-2.09359A0,0,0,0,1,283.62112,137.34343Z" style="fill:#100b5a"/><rect x="283.62113" y="137.34343" width="7.41026" height="1.27589" style="fill:#ff6895"/><path d="M362.69662,263.533l9.73282-4.17121,9.73283,4.17121-9.73283,5.56162Z" style="fill:#1f294f"/><path d="M362.69662,261.44718l9.73282-15.29444,9.73283,15.29444-9.73283,5.56161Z" style="fill:#ffc750"/><path d="M372.42944,246.15274l9.73283,15.29444-9.73283,5.56161Z" style="fill:#5666f6"/><path d="M362.69662,263.53279l9.73282,5.56161,9.73283-5.56161-9.73283,13.20883Z" style="fill:#ffc750"/><path d="M372.42944,269.0944l9.73283-5.56161-9.73283,13.20883Z" style="fill:#5666f6"/><path d="M15.32192,307.43363l10.09052-4.32451L35.503,307.43363l-10.09051,5.766Z" style="fill:#1f294f"/><path d="M15.32192,305.27117l10.09052-15.85652L35.503,305.27117l-10.09051,5.766Z" style="fill:#ffc750"/><path d="M25.41244,289.41465,35.503,305.27117l-10.09051,5.766Z" style="fill:#5666f6"/><path d="M15.32192,307.43342l10.09052,5.766,10.09051-5.766L25.41244,321.12769Z" style="fill:#ffc750"/><path d="M25.41244,313.19943l10.09051-5.766L25.41244,321.12769Z" style="fill:#5666f6"/><path d="M11.81649,97.72012,12.991,93.85961a.53271.53271,0,0,1,1.02109.006l1.13747,3.90394a.5327.5327,0,0,0,.36243.36243l3.76665,1.09746a.53271.53271,0,0,1-.01485,1.027l-3.87556,1.00862a.53272.53272,0,0,0-.38137.38137l-1.02062,3.92169a.53271.53271,0,0,1-1.025.02145l-1.15013-3.76526a.53269.53269,0,0,0-.35385-.35385l-3.896-1.19009a.53271.53271,0,0,1,.00057-1.01912l3.90015-1.18654A.53274.53274,0,0,0,11.81649,97.72012Z" style="fill:#e6eaff"/><path d="M106.53048,382.41925l1.17449-3.86051a.53271.53271,0,0,1,1.02109.006l1.13747,3.90394a.53272.53272,0,0,0,.36242.36243l3.76666,1.09746a.53271.53271,0,0,1-.01485,1.027l-3.87556,1.00861a.53274.53274,0,0,0-.38137.38137l-1.02062,3.9217a.53271.53271,0,0,1-1.025.02145l-1.15013-3.76527a.53274.53274,0,0,0-.35385-.35384l-3.89605-1.19009a.53271.53271,0,0,1,.00057-1.01912l3.90015-1.18654A.53271.53271,0,0,0,106.53048,382.41925Z" style="fill:#e6eaff"/><path d="M309.14044,380.70606l1.17449-3.86051a.53271.53271,0,0,1,1.02109.006l1.13746,3.90394a.53272.53272,0,0,0,.36243.36243l3.76666,1.09746a.53272.53272,0,0,1-.01485,1.027l-3.87556,1.00861a.53271.53271,0,0,0-.38137.38137l-1.02062,3.92169a.53271.53271,0,0,1-1.025.02146l-1.15014-3.76527a.5327.5327,0,0,0-.35384-.35385l-3.89605-1.19008a.53271.53271,0,0,1,.00057-1.01912l3.90015-1.18655A.53267.53267,0,0,0,309.14044,380.70606Z" style="fill:#e6eaff"/><path d="M389.46724,117.6707l1.17449-3.86052a.53271.53271,0,0,1,1.02109.006l1.13746,3.90394a.53271.53271,0,0,0,.36243.36242l3.76665,1.09747a.53271.53271,0,0,1-.01485,1.027l-3.87556,1.00861a.53271.53271,0,0,0-.38136.38137l-1.02063,3.9217a.53271.53271,0,0,1-1.025.02145l-1.15014-3.76527a.53273.53273,0,0,0-.35385-.35385l-3.89605-1.19008a.53271.53271,0,0,1,.00057-1.01912l3.90015-1.18655A.53271.53271,0,0,0,389.46724,117.6707Z" style="fill:#e6eaff"/><path d="M310.6423,223.83861l1.17448-3.86051a.53271.53271,0,0,1,1.02109.006l1.13747,3.90394a.53271.53271,0,0,0,.36242.36243l3.76666,1.09746a.53271.53271,0,0,1-.01485,1.027l-3.87556,1.00862a.53272.53272,0,0,0-.38137.38137l-1.02062,3.92169a.53271.53271,0,0,1-1.025.02145l-1.15013-3.76526a.53273.53273,0,0,0-.35385-.35385l-3.89605-1.19009a.53271.53271,0,0,1,.00057-1.01912l3.90015-1.18654A.53274.53274,0,0,0,310.6423,223.83861Z" style="fill:#e6eaff"/><path d="M198.66265,264.17641l1.17448-3.86051a.53271.53271,0,0,1,1.02109.006l1.13747,3.90394a.53272.53272,0,0,0,.36243.36243l3.76665,1.09746a.53271.53271,0,0,1-.01485,1.027l-3.87556,1.00861a.53276.53276,0,0,0-.38137.38137l-1.02062,3.9217a.53271.53271,0,0,1-1.025.02145l-1.15013-3.76527a.5327.5327,0,0,0-.35385-.35384l-3.89605-1.19009a.53271.53271,0,0,1,.00057-1.01912l3.90015-1.18654A.53274.53274,0,0,0,198.66265,264.17641Z" style="fill:#e6eaff"/><path d="M374.615,11.62434l1.17449-3.86052a.53271.53271,0,0,1,1.02109.006l1.13747,3.90394a.53269.53269,0,0,0,.36242.36242l3.76666,1.09747a.53271.53271,0,0,1-.01485,1.027l-3.87556,1.00861a.53274.53274,0,0,0-.38137.38137l-1.02062,3.9217a.53271.53271,0,0,1-1.025.02145l-1.15013-3.76527a.53277.53277,0,0,0-.35385-.35385l-3.89605-1.19008a.53271.53271,0,0,1,.00057-1.01912l3.90015-1.18654A.53271.53271,0,0,0,374.615,11.62434Z" style="fill:#e6eaff"/><circle cx="136.47106" cy="318.74609" r="22.74139" style="fill:#e6eaff"/><path d="M151.69789,318.70574a15.12036,15.12036,0,0,1-10.3812,14.35978,14.71435,14.71435,0,0,1-1.50914.40418,15.09918,15.09918,0,0,1-7.24093-.19056c-.2287-.061-.45735-.12988-.67837-.2058a15.11487,15.11487,0,1,1,19.80964-14.3676Z" style="fill:#fff"/><circle cx="136.53242" cy="319.67368" r="9.19151" style="fill:#1f294f"/><path d="M139.85328,330.22252V332.898a3.47863,3.47863,0,0,1-.04573.57166,15.09918,15.09918,0,0,1-7.24093-.19056c-.00763-.12207-.01526-.25158-.01526-.3811v-2.67552Z" style="fill:#ffabc7"/><path d="M139.85028,330.22007v1.43046a5.33932,5.33932,0,0,1-7.30053,0v-1.43046Z" style="fill:#ff6895"/><rect x="130.87151" y="315.85467" width="10.65598" height="16.18247" rx="5.32798" style="fill:#ffabc7"/><path d="M130.87151,320.51207h0a0,0,0,0,1,0,0v4.10482a0,0,0,0,1,0,0h0a1.10514,1.10514,0,0,1-1.10514-1.10514v-1.89453A1.10514,1.10514,0,0,1,130.87151,320.51207Z" style="fill:#ff6895"/><path d="M142.7806,320.51207h.16779a0,0,0,0,1,0,0v4.10482a0,0,0,0,1,0,0h-.16779a1.25311,1.25311,0,0,1-1.25311-1.25311v-1.59859A1.25311,1.25311,0,0,1,142.7806,320.51207Z" transform="translate(284.47588 645.12895) rotate(180)" style="fill:#ff6895"/><path d="M141.69526,320.51208c-.32948.05081-.24982-1.70964-1.47485-2.67451-1.86813-1.47145-4.65333.57479-6.26671-.96386a2.33792,2.33792,0,0,1-.71419-1.74072,3.344,3.344,0,0,1,2.67911-2.67912c2.43165-.51892,5.114,2.07919,5.88054,4.5943C142.30336,318.70237,142.02173,320.46177,141.69526,320.51208Z" style="fill:#1f294f"/><circle cx="142.70938" cy="311.70541" r="5.0853" style="fill:#1f294f"/><path d="M136.64885,329.79654a2.003,2.003,0,0,1-.45807-.05192.30086.30086,0,0,1,.1391-.58542,1.3414,1.3414,0,0,0,1.62636-.99686.301.301,0,0,1,.58464.14342,2.009,2.009,0,0,1-.96963,1.26194A1.93418,1.93418,0,0,1,136.64885,329.79654Z" style="fill:#100b5a"/><path d="M133.02916,323.70881a.30087.30087,0,0,1-.26332-.44651,1.42,1.42,0,0,1,.89165-.68161,1.4029,1.4029,0,0,1,.97295.13185.30086.30086,0,0,1-.286.52939.79429.79429,0,0,0-.54859-.07543.81722.81722,0,0,0-.50294.38694A.301.301,0,0,1,133.02916,323.70881Z" style="fill:#100b5a"/><path d="M139.94545,323.70881a.301.301,0,0,1-.26371-.15537.803.803,0,0,0-.50274-.38694.79463.79463,0,0,0-.54819.07543.30105.30105,0,0,1-.28684-.52939,1.4039,1.4039,0,0,1,.97335-.13185,1.42,1.42,0,0,1,.89145.68161.30086.30086,0,0,1-.26332.44651Z" style="fill:#100b5a"/><circle cx="133.95647" cy="323.8989" r="0.39147" style="fill:#100b5a"/><circle cx="138.98921" cy="323.8989" r="0.39147" style="fill:#100b5a"/><circle cx="127.35835" cy="41.7792" r="22.74139" style="fill:#e6eaff"/><path d="M140.9281,41.72648a13.49639,13.49639,0,1,1-13.49386-13.49385A13.49433,13.49433,0,0,1,140.9281,41.72648Z" style="fill:#fff"/><path d="M118.89027,45.86549c-.82948.61306-1.68406.5605-2.45165,1.61584l-.01885.02617a1.61833,1.61833,0,0,0,1.33981,2.53693h19.66119a1.62283,1.62283,0,0,0,1.58006-1.99188,3.94715,3.94715,0,0,0-.51593-1.23985c-1.00854-1.57478-2.45271-1.21366-3.436-2.73024-.77334-1.19272-.35422-1.92112-.94723-4.569A18.51185,18.51185,0,0,0,132.913,35.9517l-10.47547.63807a1.34069,1.34069,0,0,0-1.00271-.04375C119.462,37.34879,121.71979,43.77422,118.89027,45.86549Z" style="fill:#1f294f"/><path d="M131.65745,48.0154v6.52817a13.50108,13.50108,0,0,1-8.41077.01019V48.0154Z" style="fill:#ffc750"/><path d="M131.657,47.34477v1.64778a3.70015,3.70015,0,0,1-2.90033,1.39835h-2.61047a3.6966,3.6966,0,0,1-2.89857-1.39835V47.34477Z" style="fill:#fe6447"/><path d="M122.43749,34.421h10.02875a0,0,0,0,1,0,0V45.942a3.70889,3.70889,0,0,1-3.70889,3.70889h-2.611a3.70889,3.70889,0,0,1-3.70889-3.70889V34.421A0,0,0,0,1,122.43749,34.421Z" style="fill:#ffc750"/><path d="M122.43749,38.80423h0a0,0,0,0,1,0,0v3.86321a0,0,0,0,1,0,0h0a1.04009,1.04009,0,0,1-1.04009-1.04009v-1.783A1.04009,1.04009,0,0,1,122.43749,38.80423Z" style="fill:#fe6447"/><path d="M133.6456,38.80423h.15791a0,0,0,0,1,0,0v3.86321a0,0,0,0,1,0,0h-.15791a1.17935,1.17935,0,0,1-1.17935-1.17935v-1.5045A1.17935,1.17935,0,0,1,133.6456,38.80423Z" transform="translate(266.26976 81.47167) rotate(180)" style="fill:#fe6447"/><path d="M125.22289,44.45392a1.98428,1.98428,0,0,1-1.982-1.982v-.01767a1.982,1.982,0,1,1,3.96392,0V42.472A1.98428,1.98428,0,0,1,125.22289,44.45392Zm0-3.45458a1.4567,1.4567,0,0,0-1.455,1.455V42.472a1.45495,1.45495,0,1,0,2.90989,0v-.01767A1.45669,1.45669,0,0,0,125.22289,40.99934Z" style="fill:#100b5a"/><path d="M129.68088,44.45392a1.98428,1.98428,0,0,1-1.982-1.982v-.01767a1.98188,1.98188,0,1,1,3.96375,0v.01784A1.984,1.984,0,0,1,129.68088,44.45392Zm0-3.45458a1.4567,1.4567,0,0,0-1.45495,1.455V42.472a1.45487,1.45487,0,0,0,2.90973.00017v-.01784A1.45655,1.45655,0,0,0,129.68088,40.99934Z" style="fill:#100b5a"/><path d="M127.47539,47.34477a2.17728,2.17728,0,0,1-.49665-.05644.26348.26348,0,1,1,.12215-.5126,1.62129,1.62129,0,0,0,1.1235-.14273,1.6379,1.6379,0,0,0,.78829-1.029.26359.26359,0,1,1,.51192.12592,2.1774,2.1774,0,0,1-1.05026,1.36694A2.09588,2.09588,0,0,1,127.47539,47.34477Z" style="fill:#100b5a"/><circle cx="124.27617" cy="35.8755" r="3.11838" style="fill:#1f294f"/><circle cx="129.53072" cy="34.20791" r="4.78597" style="fill:#1f294f"/><circle cx="125.22288" cy="42.83923" r="0.47787" style="fill:#100b5a"/><circle cx="129.68086" cy="42.83923" r="0.47787" style="fill:#100b5a"/><circle cx="260.12558" cy="278.05082" r="22.74139" style="fill:#e6eaff"/><path d="M274.87009,278.04817A14.65065,14.65065,0,0,1,264.809,291.96582c-.12956.04577-.25917.08411-.38873.12207a14.64647,14.64647,0,0,1-4.19974.60961,14.46126,14.46126,0,0,1-3.55948-.44176c-.33537-.0763-.66311-.17567-.98322-.28211a14.64879,14.64879,0,1,1,19.19226-13.92546Z" style="fill:#fff"/><path d="M272.13672,277.68157c0,.74539-.84764,1.39784-.987,2.10233-.14359.72589.38719,1.65212.11024,2.32-.28178.67952-1.31485.95788-1.71922,1.56186-.40746.60862-.27179,1.66893-.78781,2.185s-1.57633.38033-2.18494.78777c-.604.40435-.88235,1.43742-1.56186,1.71919-.66786.27694-1.59407-.25386-2.31993-.11028-.70448.13935-1.35691.987-2.10228.987s-1.39784-.84765-2.10233-.987c-.72589-.14359-1.65212.3872-2.32.11025-.67952-.28179-.95787-1.31486-1.56186-1.71922-.60861-.40746-1.66893-.2718-2.18495-.78782s-.38032-1.57633-.78777-2.18494c-.40435-.604-1.43742-.88234-1.71919-1.56186-.27693-.66785.25386-1.59406.11028-2.31993-.13935-.70447-.987-1.3569-.987-2.10228s.84765-1.39784.987-2.10233c.14359-.72588-.38719-1.65212-.11024-2.32.28178-.67952,1.31485-.95787,1.71921-1.56186.40746-.60861.2718-1.66893.78782-2.18494s1.57633-.38033,2.18494-.78778c.604-.40435.88234-1.43741,1.56186-1.71919.66785-.27693,1.59406.25387,2.31993.11028.70448-.13935,1.35691-.987,2.10228-.987s1.39784.84765,2.10233.987c.72589.14359,1.65212-.3872,2.32-.11025.67952.28178.95787,1.31486,1.56186,1.71922.60861.40746,1.66893.27179,2.18494.78781s.38033,1.57633.78778,2.185c.40435.604,1.43742.88234,1.71919,1.56186.27693.66785-.25387,1.59406-.11028,2.31993C271.28908,276.28377,272.13672,276.9362,272.13672,277.68157Z" style="fill:#1f294f"/><path d="M264.51173,288.33791v2.92674a3.6823,3.6823,0,0,1-.09146.82324,14.64647,14.64647,0,0,1-4.19974.60961,14.46126,14.46126,0,0,1-3.55948-.44176,3.83988,3.83988,0,0,1-.12956-.99109v-2.92674Z" style="fill:#909ff4"/><path d="M264.50927,288.33812v1.56322a6.3759,6.3759,0,0,1-7.97787,0v-1.56322Z" style="fill:#5666f6"/><path d="M266.1,277.56707v7.175a5.57964,5.57964,0,0,1-5.57964,5.57964h0a5.57973,5.57973,0,0,1-5.57974-5.57973v-7.12412c.32256-.14462.80359-.20328.958-.434.221-.32849-.129-1.12807.14863-1.40572.27951-.27955,1.07919.07041,1.40767-.14858.32447-.21894.30691-1.09286.67243-1.2434.3617-.15052.96587.479,1.35688.40077.37927-.07427.69792-.88953,1.10067-.88953.40074,0,.71939.81526,1.09875.88953.391.07823.99509-.55129,1.35679-.40077.36552.15054.34795,1.02446.67252,1.2434.32839.219,1.12806-.131,1.40767.14858.2776.27765-.07236,1.07723.14854,1.40572C265.404,277.38521,265.78921,277.45562,266.1,277.56707Z" style="fill:#909ff4"/><path d="M254.93979,278.25046h0a0,0,0,0,1,0,0v4.29936a0,0,0,0,1,0,0h0a1.15752,1.15752,0,0,1-1.15752-1.15752V279.408A1.15752,1.15752,0,0,1,254.93979,278.25046Z" style="fill:#5666f6"/><path d="M267.41328,278.25046h.17574a0,0,0,0,1,0,0v4.29936a0,0,0,0,1,0,0h-.17574a1.3125,1.3125,0,0,1-1.3125-1.3125V279.563A1.3125,1.3125,0,0,1,267.41328,278.25046Z" transform="translate(533.6898 560.80028) rotate(180)" style="fill:#5666f6"/><path d="M260.68956,286.351a2.1045,2.1045,0,0,1-.48116-.05462.319.319,0,1,1,.14827-.6205,1.43581,1.43581,0,0,0,.998-.12667,1.45794,1.45794,0,0,0,.70087-.915.31892.31892,0,1,1,.61926.15284,2.10966,2.10966,0,0,1-1.01756,1.32365A2.02732,2.02732,0,0,1,260.68956,286.351Z" style="fill:#1f294f"/><path d="M256.89823,279.97487a.319.319,0,0,1-.27931-.47264,1.48542,1.48542,0,0,1,.93656-.71644,1.47007,1.47007,0,0,1,1.02213.13851.3189.3189,0,1,1-.304.56069.82082.82082,0,0,0-.57149-.07829.84907.84907,0,0,0-.52415.40287A.31886.31886,0,0,1,256.89823,279.97487Z" style="fill:#1f294f"/><path d="M264.14239,279.97487a.31886.31886,0,0,1-.27972-.1653.8491.8491,0,0,0-.52394-.40287.82743.82743,0,0,0-.57191.0785.319.319,0,1,1-.3036-.56111,1.44076,1.44076,0,0,1,1.95848.57814.319.319,0,0,1-.27931.47264Z" style="fill:#1f294f"/><circle cx="257.86952" cy="280.17003" r="0.41002" style="fill:#1f294f"/><circle cx="263.14078" cy="280.17003" r="0.41002" style="fill:#1f294f"/><circle cx="249.56272" cy="181.08612" r="22.74139" style="fill:#e6eaff"/><path d="M265.35486,181.033a15.69835,15.69835,0,1,1-15.69836-15.6984A15.71025,15.71025,0,0,1,265.35486,181.033Z" style="fill:#fff"/><path d="M255.06972,191.43246v4.34244a15.74941,15.74941,0,0,1-11.23544-.16241v-4.18Z" style="fill:#5fc5a6"/><path d="M255.07166,190.25344v2.23217a4.52926,4.52926,0,0,1-3.4565,1.59634h-4.32455a4.52925,4.52925,0,0,1-3.4565-1.59634v-2.23217Z" style="fill:#5f9a34"/><path d="M257.65147,175.5319v11.66373a5.55184,5.55184,0,0,1-5.55131,5.55367h-5.2936a5.5539,5.5539,0,0,1-5.55372-5.55367V175.5319a7.327,7.327,0,0,1,7.32872-7.32631h1.74366A7.32639,7.32639,0,0,1,257.65147,175.5319Z" style="fill:#5fc5a6"/><path d="M241.254,177.879h0a0,0,0,0,1,0,0v5.29629a0,0,0,0,1,0,0h0a1.42592,1.42592,0,0,1-1.42592-1.42592v-2.44444A1.42592,1.42592,0,0,1,241.254,177.879Z" style="fill:#5f9a34"/><path d="M259.269,177.879h.21649a0,0,0,0,1,0,0v5.29629a0,0,0,0,1,0,0H259.269a1.61684,1.61684,0,0,1-1.61684-1.61684v-2.0626A1.61684,1.61684,0,0,1,259.269,177.879Z" transform="translate(517.13766 361.05421) rotate(180)" style="fill:#5f9a34"/><path d="M249.4852,189.56605a2.95325,2.95325,0,0,1-.67578-.07671.33951.33951,0,0,1,.15739-.66053,2.2459,2.2459,0,0,0,1.55538-.19785,2.27028,2.27028,0,0,0,1.092-1.42473.33949.33949,0,0,1,.6592.1627,2.96308,2.96308,0,0,1-1.42893,1.85978A2.85076,2.85076,0,0,1,249.4852,189.56605Z" style="fill:#1f294f"/><path d="M243.9231,180.21078a.33953.33953,0,0,1-.2971-.50358,1.98511,1.98511,0,0,1,2.69914-.79648.33947.33947,0,1,1-.32275.59731,1.34272,1.34272,0,0,0-.92955-.12733,1.359,1.359,0,0,0-.85219.65456A.33962.33962,0,0,1,243.9231,180.21078Z" style="fill:#1f294f"/><path d="M254.55123,180.21078a.33961.33961,0,0,1-.29754-.17552,1.3591,1.3591,0,0,0-.85219-.65456,1.34192,1.34192,0,0,0-.92956.12733.33947.33947,0,0,1-.32275-.59731,1.98512,1.98512,0,0,1,2.69915.79648.33953.33953,0,0,1-.29711.50358Z" style="fill:#1f294f"/><circle cx="245.34801" cy="180.62579" r="0.60156" style="fill:#1f294f"/><circle cx="253.08177" cy="180.62579" r="0.60156" style="fill:#1f294f"/><path d="M257.65147,175.53184v2.34822a6.45384,6.45384,0,0,1-2.50345-2.18453,5.83665,5.83665,0,0,1-1.03281-3.15127.316.316,0,0,0-.52761-.22546,8.03345,8.03345,0,0,1-1.69882,1.17421c-3.13232,1.6294-5.95419-.14376-8.478,1.5668a5.585,5.585,0,0,0-2.15789,3.8197v-3.3452a7.32872,7.32872,0,0,1,7.32872-7.32872h1.74366A7.32625,7.32625,0,0,1,257.65147,175.53184Z" style="fill:#1f294f"/><circle cx="47.98112" cy="153.06738" r="22.74139" style="fill:#e6eaff"/><path d="M63.33912,153.02906A15.29915,15.29915,0,1,1,48.04,137.72987,15.31075,15.31075,0,0,1,63.33912,153.02906Z" style="fill:#fff"/><path d="M53.31552,163.164v4.232a15.34883,15.34883,0,0,1-10.94972-.15828V163.164Z" style="fill:#ffabc7"/><path d="M53.31741,163.16192v2.1754a4.414,4.414,0,0,1-3.3686,1.55575H45.73423a4.414,4.414,0,0,1-3.3686-1.55575v-2.1754Z" style="fill:#ff6895"/><path d="M55.83163,147.66782V159.035a5.41067,5.41067,0,0,1-5.41015,5.41244h-5.159A5.41267,5.41267,0,0,1,39.85,159.035V147.66782a7.14064,7.14064,0,0,1,7.14236-7.14h1.69932A7.14009,7.14009,0,0,1,55.83163,147.66782Z" style="fill:#ffabc7"/><path d="M39.85117,149.9552h0a0,0,0,0,1,0,0v5.16161a0,0,0,0,1,0,0h0a1.38966,1.38966,0,0,1-1.38966-1.38966v-2.38228A1.38966,1.38966,0,0,1,39.85117,149.9552Z" style="fill:#ff6895"/><path d="M57.408,149.9552h.211a0,0,0,0,1,0,0v5.16161a0,0,0,0,1,0,0h-.211a1.57573,1.57573,0,0,1-1.57573-1.57573v-2.01015A1.57573,1.57573,0,0,1,57.408,149.9552Z" transform="translate(113.45131 305.07201) rotate(180)" style="fill:#ff6895"/><path d="M47.873,161.34508a2.87854,2.87854,0,0,1-.65859-.07475.33088.33088,0,1,1,.15339-.64373,2.18883,2.18883,0,0,0,1.51583-.19282,2.21251,2.21251,0,0,0,1.06426-1.3885.33086.33086,0,1,1,.64244.15856,2.88765,2.88765,0,0,1-1.3926,1.81248A2.77809,2.77809,0,0,1,47.873,161.34508Z" style="fill:#1f294f"/><path d="M42.45236,152.22772a.3309.3309,0,0,1-.28955-.49077,1.93462,1.93462,0,0,1,2.63051-.77623.33083.33083,0,0,1-.31454.58212,1.30858,1.30858,0,0,0-.90592-.12409,1.32452,1.32452,0,0,0-.83052.63791A.331.331,0,0,1,42.45236,152.22772Z" style="fill:#1f294f"/><path d="M52.81022,152.22772a.331.331,0,0,1-.29-.17106,1.32452,1.32452,0,0,0-.83052-.63791,1.30778,1.30778,0,0,0-.90592.12409.33083.33083,0,0,1-.31454-.58212,1.93462,1.93462,0,0,1,2.63051.77623.3309.3309,0,0,1-.28955.49077Z" style="fill:#1f294f"/><circle cx="43.84103" cy="152.63218" r="0.58626" style="fill:#1f294f"/><circle cx="51.37813" cy="152.63218" r="0.58626" style="fill:#1f294f"/><path d="M55.83163,147.66776v2.28851a6.28979,6.28979,0,0,1-2.43979-2.129,5.68812,5.68812,0,0,1-1.00655-3.07113.30792.30792,0,0,0-.51419-.21974,7.82923,7.82923,0,0,1-1.65562,1.14436c-3.05268,1.588-5.80279-.1401-8.26246,1.52695a5.443,5.443,0,0,0-2.103,3.72258v-3.26014a7.14236,7.14236,0,0,1,7.14236-7.14236h1.69932A7.14,7.14,0,0,1,55.83163,147.66776Z" style="fill:#1f294f"/><path d="M196.71025,11.04672l1.17449-3.86051a.53271.53271,0,0,1,1.02109.006l1.13746,3.90394a.53272.53272,0,0,0,.36243.36243l3.76665,1.09746a.53271.53271,0,0,1-.01484,1.027L200.282,14.59166a.53272.53272,0,0,0-.38137.38137L198.88,18.89473a.53271.53271,0,0,1-1.025.02145l-1.15014-3.76527a.5327.5327,0,0,0-.35385-.35384L192.45493,13.607a.53271.53271,0,0,1,.00058-1.01912l3.90014-1.18654A.53274.53274,0,0,0,196.71025,11.04672Z" style="fill:#e6eaff"/><path d="M272.57026,342.71488H257.26583v-9.76562a7.65222,7.65222,0,0,1,15.30443,0Zm-10.41312-4.8913H267.679v-4.87432a2.76091,2.76091,0,0,0-5.52182,0Z" style="fill:#5fc5a6"/><rect x="253.48344" y="336.17176" width="22.86913" height="20.51326" rx="2.14938" style="fill:#ffc750"/><path d="M261.51788,346.747l3.40013-5.34305,3.40012,5.34305-3.40012,1.94293Z" style="fill:#fff"/><path d="M261.51788,346.747l3.40013,1.94293,3.40012-1.94293L264.918,351.3614Z" style="fill:#fe6447"/><rect x="224.83789" y="34.10036" width="6.34021" height="26.48883" transform="translate(275.35277 -180.66322) rotate(90)" style="fill:#ffc750"/><path d="M222.06965,40.0387h0a1.13918,1.13918,0,0,1,1.13918,1.13918v13.473a0,0,0,0,1,0,0h-2.27837a0,0,0,0,1,0,0v-13.473A1.13918,1.13918,0,0,1,222.06965,40.0387Z" transform="translate(269.41442 -174.72487) rotate(90)" style="fill:#fe6447"/><path d="M241.24975,44.17467h0a3.75754,3.75754,0,0,1,0,6.3402h0l-1.81148-3.17011Z" style="fill:#fe6447"/><path d="M234.9122,50.507h0a3.75755,3.75755,0,0,1,6.34021,0h0l-3.17011,1.81149Z" style="fill:#ffc750"/><path d="M228.572,50.507h0a3.75755,3.75755,0,0,1,6.34021,0h0l-3.17011,1.81149Z" style="fill:#ffc750"/><rect x="206.14576" y="38.72695" width="17.23565" height="17.23565" rx="8.61781" transform="translate(262.10835 -167.41881) rotate(90)" style="fill:#ffc750"/><rect x="207.7858" y="40.367" width="13.95555" height="13.95555" rx="6.97777" transform="translate(262.10835 -167.41881) rotate(90)" style="fill:#ffd88a"/><rect x="210.58466" y="44.82551" width="5.07069" height="5.03852" rx="2.51926" transform="translate(260.46478 -165.77524) rotate(90)" style="fill:#fff"/><path d="M156.70244,124.8833a17.26073,17.26073,0,0,1-5.48337,12.6201,17.83535,17.83535,0,0,1-24.96632-.61143,17.233,17.233,0,0,1-4.86715-12.00867,17.66007,17.66007,0,0,1,35.31684,0Z" style="fill:#f0f3ff"/><path d="M151.21907,137.5034a17.73886,17.73886,0,0,1-5.7916,3.62953c-.29844.1125-.60165.2201-.90987.31793-.24948.08315-.50373.15653-.75809.225-.36209.09784-.73373.18588-1.10561.25924a17.89085,17.89085,0,0,1-3.60988.36686c-.45488,0-.905-.01466-1.355-.0489-.088-.0098-.17125-.01469-.25927-.02445-.1076-.0098-.21519-.01959-.32279-.03425a17.66192,17.66192,0,0,1-2.56315-.4598c-.17615-.04891-.35218-.09784-.52832-.15164a.658.658,0,0,1-.09291-.02445,17.73446,17.73446,0,0,1-7.66987-4.66652,47.01144,47.01144,0,0,1,1.87337-8.21775c.57717-1.893,1.19362-4.4953,1.78548-6.403a61.80111,61.80111,0,0,1,2.338-7.01935c.905-1.79028,2.85179,2.974,3.12084,3.28712.78759-.587,5.2339-.55764,6.403-.05383-.16146-.80708,1.7266-3.6246,2.50929-3.45828,1.4333.30814,1.66307,5.35129,2.72951,8.746.313,1.00278,1.00278,3.28221,1.56036,4.9013.48426,1.42345.95382,2.4311,1.56037,4.23607A28.98636,28.98636,0,0,1,151.21907,137.5034Z" style="fill:#ffc750;fill-rule:evenodd"/><path d="M137.96791,141.1378a2.11184,2.11184,0,0,1-.53812,1.09083c-.1076-.0098-.21519-.01959-.32279-.03425a17.66192,17.66192,0,0,1-2.56315-.4598c-.17615-.04891-.35218-.09784-.52832-.15164a2.01649,2.01649,0,0,1-.1125-.39131,2.12585,2.12585,0,0,1-.01959-.67993.75624.75624,0,0,1,.02938-.15164,2.59352,2.59352,0,0,1,3.14032-1.97616,1.96441,1.96441,0,0,1,1.13976,1.41363C138.3983,140.53615,138.06571,140.6193,137.96791,141.1378Z" style="fill:#ffd383;fill-rule:evenodd"/><path d="M133.91282,140.36006a3.52054,3.52054,0,0,0,.631,1.37452c-.17615-.04891-.35218-.09784-.52832-.15164a.658.658,0,0,1-.09291-.02445,4.009,4.009,0,0,1-.47447-1.35986,2.15247,2.15247,0,0,0-1.01747-1.63864,1.202,1.202,0,0,0-.97341-.12229.20627.20627,0,0,1-.27885-.11252.20869.20869,0,0,1,.1125-.27393,1.60451,1.60451,0,0,1,1.34516.137,2.55816,2.55816,0,0,1,1.2279,1.94192C133.87855,140.20843,133.89324,140.28668,133.91282,140.36006Z" style="fill:#1f294f"/><path d="M138.3983,140.57039a2.27434,2.27434,0,0,1-.70924,1.68269c-.088-.0098-.17125-.01469-.25927-.02445-.1076-.0098-.21519-.01959-.32279-.03425a2.31908,2.31908,0,0,0,.24947-.20543,1.87044,1.87044,0,0,0,.61633-1.41856,3.75636,3.75636,0,0,0-.91966-2.18649,6.87083,6.87083,0,0,0-.7532-.8218,5.005,5.005,0,0,0-2.39691-1.28157.20775.20775,0,0,1-.17615-.23968.20445.20445,0,0,1,.2398-.17609,5.30132,5.30132,0,0,1,2.61689,1.38917A4.92972,4.92972,0,0,1,138.3983,140.57039Z" style="fill:#1f294f"/><path d="M141.81273,138.01615c1.32788-.93408,3.50631.30964,3.56477,1.83859a2.03328,2.03328,0,0,1-3.00843,1.6144C140.62811,140.5068,141.91038,138.80375,141.81273,138.01615Z" style="fill:#ffd383;fill-rule:evenodd"/><path d="M142.879,141.56825a2.11955,2.11955,0,0,0,.8805.10763c-.36209.09784-.73373.18588-1.10561.25924a2.27058,2.27058,0,0,1-1.5212-2.00551c-.137-2.00065,2.31368-4.49041,3.98654-5.06271a.21744.21744,0,0,1,.26906.13205.20744.20744,0,0,1-.13208.269c-1.5163.5185-3.8252,2.84686-3.70291,4.63228A1.86672,1.86672,0,0,0,142.879,141.56825Z" style="fill:#1f294f"/><path d="M147.477,137.01425a1.87782,1.87782,0,0,0-1.22778,1.83922,4.458,4.458,0,0,1-.82174,2.27946c-.29844.1125-.60165.2201-.90987.31793a1.13684,1.13684,0,0,0,.31312-.25434,3.978,3.978,0,0,0,.99789-2.39685,2.28459,2.28459,0,0,1,1.47223-2.16694.21011.21011,0,1,1,.17615.38152Z" style="fill:#1f294f"/><path d="M133.54932,125.056a.96588.96588,0,1,1-.96619.96619A.96658.96658,0,0,1,133.54932,125.056Z" style="fill:#1f294f;fill-rule:evenodd"/><path d="M143.5736,124.889a.96588.96588,0,1,1-.96556.9662A.96672.96672,0,0,1,143.5736,124.889Z" style="fill:#1f294f;fill-rule:evenodd"/><path d="M138.7908,126.9184c-.76961.02826-1.75636-.06425-1.94909.83514a.866.866,0,0,0,1.03108,1.03043,1.88311,1.88311,0,0,0,.94692-.69638.88683.88683,0,0,0,1.615.25119c.68995-.81009-.645-1.49555-1.28162-1.44865Z" style="fill:#ffd383;fill-rule:evenodd"/><path d="M138.71114,126.337c.67647,0,1.22573.29937,1.22573.66811s-.54926.66876-1.22573.66876-1.22573-.3-1.22573-.66876S138.03468,126.337,138.71114,126.337Z" style="fill:#1f294f;fill-rule:evenodd"/><path d="M128.86642,125.44963a.21021.21021,0,0,1-.10462-.028,6.60109,6.60109,0,0,0-1.64754-.5737c-.26559-.06759-.531-.13542-.78914-.21544a.21176.21176,0,0,1,.12516-.4046c.2515.07787.51017.14379.76859.20971a7.00558,7.00558,0,0,1,1.75264.61621.21182.21182,0,0,1-.10509.39577Z" style="fill:#1f294f"/><path d="M128.50457,126.5077l-.00693-.00023c-.38669-.01219-.76071-.06115-1.12232-.10844a9.41492,9.41492,0,0,0-1.40321-.11345h-.00191a.21186.21186,0,0,1-.00191-.42371,11.64634,11.64634,0,0,1,1.462.11727c.36758.048.7151.09339,1.08077.10509a.21179.21179,0,0,1-.00645.42347Z" style="fill:#1f294f"/><path d="M147.86164,126.28558a.21186.21186,0,0,1-.0652-.41344,19.58264,19.58264,0,0,1,3.04143-.64846.21186.21186,0,1,1,.06354.41893,19.18852,19.18852,0,0,0-2.97456.6327A.21459.21459,0,0,1,147.86164,126.28558Z" style="fill:#1f294f"/><path d="M148.13966,127.427a.21187.21187,0,0,1-.04132-.41964,8.31,8.31,0,0,1,3.02137-.08.21166.21166,0,0,1-.1113.40843,7.92855,7.92855,0,0,0-2.827.08717A.22715.22715,0,0,1,148.13966,127.427Z" style="fill:#1f294f"/><path d="M143.77274,119.12138c-.20685-.62764-.4953-1.7024.14391-1.86814.61286-.15868.94756,2.43989,0,2.31141C143.91279,119.52289,143.84727,119.352,143.77274,119.12138Z" style="fill:#ffd383;fill-rule:evenodd"/><path d="M132.3737,119.33981c-.18052-.60388-.23705-1.59769.37389-1.80713.821-.28266.40922,2.31592-.22292,2.172A1.54207,1.54207,0,0,1,132.3737,119.33981Z" style="fill:#ffd383;fill-rule:evenodd"/><path d="M29.05983,375.522a17.26077,17.26077,0,0,1-5.48337,12.62011,17.83536,17.83536,0,0,1-24.96632-.61144A17.23294,17.23294,0,0,1-6.257,375.522,17.54117,17.54117,0,0,1,11.40141,358.1033,17.538,17.538,0,0,1,29.05983,375.522Z" style="fill:#f0f3ff"/><path d="M23.57646,388.14209a17.73911,17.73911,0,0,1-5.7916,3.62952c-.29844.1125-.60165.2201-.90988.31793-.24947.08315-.50372.15654-.75809.225-.36208.09784-.73372.18588-1.1056.25924a17.891,17.891,0,0,1-3.60988.36686c-.45488,0-.905-.01466-1.355-.0489-.088-.00979-.17125-.01469-.25927-.02445-.1076-.0098-.2152-.01959-.3228-.03425a17.66178,17.66178,0,0,1-2.56314-.4598c-.17615-.0489-.35218-.09784-.52833-.15164a.65834.65834,0,0,1-.09291-.02445,17.73433,17.73433,0,0,1-7.66986-4.66652,47.01113,47.01113,0,0,1,1.87337-8.21774c.57716-1.893,1.19362-4.49531,1.78547-6.403a61.80217,61.80217,0,0,1,2.338-7.01934c.905-1.79029,2.8518,2.97405,3.12085,3.28711.78759-.587,5.2339-.55764,6.403-.05383-.16146-.80708,1.7266-3.6246,2.50929-3.45828,1.4333.30814,1.66307,5.35129,2.7295,8.746.313,1.00278,1.00279,3.28222,1.56037,4.90131.48425,1.42344.95382,2.43109,1.56036,4.23607A28.98459,28.98459,0,0,1,23.57646,388.14209Z" style="fill:#ffc750;fill-rule:evenodd"/><path d="M10.3253,391.77648a2.1118,2.1118,0,0,1-.53812,1.09083c-.1076-.0098-.2152-.01959-.3228-.03425a17.66178,17.66178,0,0,1-2.56314-.4598c-.17615-.0489-.35218-.09784-.52833-.15164a2.01678,2.01678,0,0,1-.11249-.39131,2.12556,2.12556,0,0,1-.01959-.67993.75624.75624,0,0,1,.02938-.15164,2.59352,2.59352,0,0,1,3.14032-1.97616,1.96441,1.96441,0,0,1,1.13976,1.41363C10.75569,391.17483,10.4231,391.258,10.3253,391.77648Z" style="fill:#ffd383;fill-rule:evenodd"/><path d="M6.27021,390.99874a3.52054,3.52054,0,0,0,.631,1.37452c-.17615-.0489-.35218-.09784-.52833-.15164a.65834.65834,0,0,1-.09291-.02445,4.00922,4.00922,0,0,1-.47446-1.35985,2.1525,2.1525,0,0,0-1.01747-1.63865,1.202,1.202,0,0,0-.97341-.12229.20626.20626,0,0,1-.27885-.11252.20869.20869,0,0,1,.1125-.27393,1.60451,1.60451,0,0,1,1.34516.137,2.55821,2.55821,0,0,1,1.2279,1.94192C6.23594,390.84711,6.25063,390.92536,6.27021,390.99874Z" style="fill:#1f294f"/><path d="M10.75569,391.20908a2.27433,2.27433,0,0,1-.70924,1.68268c-.088-.00979-.17125-.01469-.25927-.02445-.1076-.0098-.2152-.01959-.3228-.03425a2.31818,2.31818,0,0,0,.24948-.20543,1.87046,1.87046,0,0,0,.61633-1.41855,3.75642,3.75642,0,0,0-.91966-2.1865,6.87083,6.87083,0,0,0-.7532-.8218,5.00518,5.00518,0,0,0-2.39691-1.28157.20774.20774,0,0,1-.17615-.23968.20446.20446,0,0,1,.2398-.17609A5.30132,5.30132,0,0,1,8.941,387.89261,4.92972,4.92972,0,0,1,10.75569,391.20908Z" style="fill:#1f294f"/><path d="M14.17012,388.65483c1.32788-.93408,3.50631.30964,3.56477,1.8386a2.03328,2.03328,0,0,1-3.00844,1.61439C12.9855,391.14548,14.26777,389.44243,14.17012,388.65483Z" style="fill:#ffd383;fill-rule:evenodd"/><path d="M15.2364,392.20693a2.11952,2.11952,0,0,0,.88049.10763c-.36208.09784-.73372.18588-1.1056.25924a2.27058,2.27058,0,0,1-1.5212-2.00551c-.137-2.00064,2.31368-4.49041,3.98654-5.06271a.21744.21744,0,0,1,.26906.132.20744.20744,0,0,1-.13208.269c-1.5163.5185-3.8252,2.84687-3.70291,4.63228A1.86672,1.86672,0,0,0,15.2364,392.20693Z" style="fill:#1f294f"/><path d="M19.83437,387.65293a1.87783,1.87783,0,0,0-1.22777,1.83922,4.458,4.458,0,0,1-.82174,2.27946c-.29844.1125-.60165.2201-.90988.31793a1.13688,1.13688,0,0,0,.31313-.25434,3.9781,3.9781,0,0,0,.99789-2.39685,2.28459,2.28459,0,0,1,1.47223-2.16694.21011.21011,0,1,1,.17614.38152Z" style="fill:#1f294f"/><path d="M5.90671,375.69471a.96588.96588,0,1,1-.96619.9662A.96658.96658,0,0,1,5.90671,375.69471Z" style="fill:#1f294f;fill-rule:evenodd"/><path d="M15.931,375.52768a.96588.96588,0,1,1-.96555.9662A.96672.96672,0,0,1,15.931,375.52768Z" style="fill:#1f294f;fill-rule:evenodd"/><path d="M11.14819,377.55708c-.76962.02826-1.75637-.06424-1.94909.83514a.866.866,0,0,0,1.03108,1.03044,1.88321,1.88321,0,0,0,.94692-.69638.88683.88683,0,0,0,1.615.25118c.68995-.81009-.645-1.49555-1.28163-1.44865Z" style="fill:#ffd383;fill-rule:evenodd"/><path d="M11.06853,376.97569c.67646,0,1.22573.29937,1.22573.66811s-.54927.66876-1.22573.66876-1.22573-.3-1.22573-.66876S10.39207,376.97569,11.06853,376.97569Z" style="fill:#1f294f;fill-rule:evenodd"/><path d="M1.2238,376.08831a.2102.2102,0,0,1-.10461-.02795,6.60109,6.60109,0,0,0-1.64754-.5737c-.2656-.06759-.53095-.13542-.78914-.21543a.21166.21166,0,0,1-.13972-.26488.21225.21225,0,0,1,.26487-.13973c.25151.07787.51017.14379.7686.20971a7.0056,7.0056,0,0,1,1.75264.61622.21181.21181,0,0,1-.1051.39576Z" style="fill:#1f294f"/><path d="M.862,377.14639.855,377.14615c-.38669-.01218-.76072-.06115-1.12233-.10844a9.41478,9.41478,0,0,0-1.4032-.11345h-.00191a.212.212,0,0,1-.21186-.20994.212.212,0,0,1,.20995-.21377,11.64439,11.64439,0,0,1,1.462.11728c.36758.048.7151.09338,1.08077.10509a.21179.21179,0,0,1-.00645.42347Z" style="fill:#1f294f"/><path d="M20.219,376.92426a.21186.21186,0,0,1-.0652-.41344,19.58264,19.58264,0,0,1,3.04143-.64846.21186.21186,0,1,1,.06353.41893,19.18956,19.18956,0,0,0-2.97455.6327A.21459.21459,0,0,1,20.219,376.92426Z" style="fill:#1f294f"/><path d="M20.49705,378.06569a.21187.21187,0,0,1-.04132-.41964,8.31,8.31,0,0,1,3.02137-.08.21166.21166,0,0,1-.1113.40843,7.92861,7.92861,0,0,0-2.827.08717A.227.227,0,0,1,20.49705,378.06569Z" style="fill:#1f294f"/><path d="M16.13013,369.76006c-.20685-.62764-.4953-1.7024.1439-1.86814.61287-.15868.94757,2.43989,0,2.31141C16.27018,370.16157,16.20465,369.99069,16.13013,369.76006Z" style="fill:#ffd383;fill-rule:evenodd"/><path d="M4.73109,369.97849c-.18052-.60388-.237-1.59769.37389-1.80712.821-.28267.40921,2.31591-.22292,2.172A1.54207,1.54207,0,0,1,4.73109,369.97849Z" style="fill:#ffd383;fill-rule:evenodd"/></svg>