<svg xmlns="http://www.w3.org/2000/svg" xmlns:xlink="http://www.w3.org/1999/xlink" viewBox="0 0 677.76991 391.54915"><defs><linearGradient id="a" x1="138.01736" y1="3319.3692" x2="141.78653" y2="3319.3692" gradientTransform="matrix(1, 0, 0, -1, 0, 3671.83862)" gradientUnits="userSpaceOnUse"><stop offset="0" stop-color="#efc95e"/><stop offset="1" stop-color="#c5a54d"/></linearGradient><linearGradient id="b" x1="122.5153" y1="3318.44127" x2="125.54634" y2="3318.44127" xlink:href="#a"/><linearGradient id="c" x1="273.60775" y1="3555.58958" x2="276.76814" y2="3555.58958" xlink:href="#a"/><linearGradient id="d" x1="260.60946" y1="3554.81152" x2="263.15095" y2="3554.81152" xlink:href="#a"/></defs><title>Mobile Cover</title><path d="M501.32307,321.96425v59.91864h-3.59952V321.96425a1.79976,1.79976,0,0,1,3.59952,0Z" fill="#ff6895"/><path d="M513.89089,366.9587c0,.21465,0,.43247-.00326.647q-.00964,1.034-.04874,2.06145-.03906,1.034-.10732,2.06467c-.04549.68931-.10074,1.37866-.16909,2.06142-.065.68934-.143,1.37861-.23084,2.06145q-.12681,1.03878-.2926,2.06471-.161,1.03878-.35443,2.06137-.18041.95592-.38365,1.90214H501.324V326.87148q1.57044,2.24838,2.95886,4.62682a69.53741,69.53741,0,0,1,6.077,13.41878q.33651,1.0242.64379,2.06142.3072,1.02426.57877,2.06471.273,1.02414.50716,2.06137c.16258.68284.309,1.37215.44549,2.06146.13654.686.26339,1.3721.3804,2.06466.11383.6828.22115,1.37215.31546,2.06142.09422.68609.17877,1.37211.25029,2.06471.078.6828.13987,1.3721.19186,2.06141q.08287,1.0242.13328,2.06142.04882,1.02424.06835,2.0647C513.88763,366.01256,513.89089,366.48726,513.89089,366.9587Z" fill="#ffe7c0"/><path d="M519.06836,366.49193a48.71032,48.71032,0,0,1-2.47628,15.391h-4.29169a70.58668,70.58668,0,0,0-2.73153-39.22621h2.07862a2.05029,2.05029,0,0,1,1.81171,1.09731A48.57484,48.57484,0,0,1,519.06836,366.49193Z" fill="#ffc750"/><path d="M521.8843,385.29239v.28081H491.396v-.28081a3.409,3.409,0,0,1,3.40951-3.4095H518.4748A3.40894,3.40894,0,0,1,521.8843,385.29239Z" fill="#1f294f"/><path d="M511.00363,346.9785H504.026a.47454.47454,0,0,1-.4747-.47145v-1.11527a.47525.47525,0,0,1,.4747-.4747h6.33383Q510.69635,345.94128,511.00363,346.9785Z" fill="#5666f6"/><path d="M512.08956,351.10458H504.026a.47522.47522,0,0,1-.4747-.4747v-1.11523a.47454.47454,0,0,1,.4747-.47144h7.55639Q511.85543,350.06735,512.08956,351.10458Z" fill="#5666f6"/><path d="M512.91545,355.2307H504.026a.47524.47524,0,0,1-.4747-.4747v-1.11526a.47732.47732,0,0,1,.4747-.4747h8.509C512.67159,353.85209,512.79844,354.53814,512.91545,355.2307Z" fill="#5666f6"/><path d="M513.4812,359.35683H504.026a.47736.47736,0,0,1-.4747-.4747v-1.11527a.47525.47525,0,0,1,.4747-.47474h9.2049C513.32513,357.97821,513.40968,358.66423,513.4812,359.35683Z" fill="#5666f6"/><path d="M513.80634,363.47966H504.026a.47454.47454,0,0,1-.4747-.47145v-1.11527a.47524.47524,0,0,1,.4747-.4747h9.647Q513.75593,362.44244,513.80634,363.47966Z" fill="#5666f6"/><path d="M513.89089,366.9587c0,.21465,0,.43247-.00326.647H504.026a.47522.47522,0,0,1-.4747-.4747v-1.11523a.47454.47454,0,0,1,.4747-.47145h9.84868C513.88763,366.01256,513.89089,366.48726,513.89089,366.9587Z" fill="#5666f6"/><path d="M513.83889,369.66719q-.03906,1.034-.10732,2.06467H504.026a.47736.47736,0,0,1-.4747-.4747v-1.11527a.47733.47733,0,0,1,.4747-.4747Z" fill="#5666f6"/><path d="M513.56248,373.79328c-.065.68934-.143,1.37861-.23084,2.06145H504.026a.47454.47454,0,0,1-.4747-.47145v-1.11522a.47529.47529,0,0,1,.4747-.47478Z" fill="#5666f6"/><path d="M513.039,377.91944q-.161,1.03878-.35443,2.06137H504.026a.47522.47522,0,0,1-.4747-.4747v-1.11523a.47454.47454,0,0,1,.4747-.47144Z" fill="#5666f6"/><path d="M337.78714,355.0287a11.18147,11.18147,0,0,1-8.35071,10.81474,11.1763,11.1763,0,0,1-8.35331-10.81474c0-4.86876,4.85541-7.47809,7.7877-10.25021a.76632.76632,0,0,1,1.08369.03646C332.55013,347.57384,337.78714,350.18369,337.78714,355.0287Z" fill="#ff6895"/><path d="M321.72249,358.42849h14.883a2.33886,2.33886,0,0,1,2.33886,2.33886v22.09507a0,0,0,0,1,0,0h-19.5607a0,0,0,0,1,0,0V360.76735A2.33886,2.33886,0,0,1,321.72249,358.42849Z" fill="#5666f6"/><path d="M349.454,358.42511a4.92969,4.92969,0,1,1-9.53912,0c0-2.78039,2.77277-4.27049,4.4473-5.85356a.43762.43762,0,0,1,.61886.02082C346.46329,354.16789,349.454,355.65829,349.454,358.42511Z" fill="#ff6895"/><path d="M340.28,360.36662h8.49918a1.33565,1.33565,0,0,1,1.33565,1.33565v19.819a1.34113,1.34113,0,0,1-1.34113,1.34113h-9.82935a0,0,0,0,1,0,0V361.70227A1.33565,1.33565,0,0,1,340.28,360.36662Z" fill="#100b5a"/><path d="M318.7228,358.42511a6.38538,6.38538,0,0,1-4.76882,6.176,6.38243,6.38243,0,0,1-4.77031-6.17595c0-2.78039,2.77277-4.27049,4.44731-5.85356a.43762.43762,0,0,1,.61886.02082C315.73211,354.16789,318.7228,355.65829,318.7228,358.42511Z" fill="#ff6895"/><path d="M309.5488,360.36662H318.048a1.33565,1.33565,0,0,1,1.33565,1.33565v21.16016a0,0,0,0,1,0,0h-9.82935a1.34113,1.34113,0,0,1-1.34113-1.34113v-19.819A1.33565,1.33565,0,0,1,309.5488,360.36662Z" fill="#ffc750"/><path d="M329.56714,363.29223a.59485.59485,0,0,0-.84118-.0283c-2.27615,2.15178-6.045,4.17722-6.045,7.9565v9.67176H335.647v-9.67176C335.647,367.45959,331.58192,365.43374,329.56714,363.29223Z" fill="#fff"/><path d="M313.81772,373.07413a.28735.28735,0,0,0-.40635-.01367c-1.09954,1.03946-2.92016,2.01788-2.92016,3.84353v3.9882h6.2635V376.904C316.75471,375.08725,314.791,374.10863,313.81772,373.07413Z" fill="#fff"/><path d="M313.85881,362.59225a.28735.28735,0,0,0-.40635-.01367c-1.09954,1.03945-2.92016,2.01788-2.92016,3.84352v3.98821h6.2635V366.4221C316.7958,364.60536,314.83208,363.62674,313.85881,362.59225Z" fill="#fff"/><path d="M344.70378,372.99206a.28735.28735,0,0,0-.40635-.01367c-1.09953,1.03946-2.92016,2.01788-2.92016,3.84352v3.98821h6.2635v-3.98821C347.64077,375.00518,345.67705,374.02655,344.70378,372.99206Z" fill="#fff"/><path d="M344.74487,362.51018a.28736.28736,0,0,0-.40635-.01368c-1.09953,1.03946-2.92015,2.01789-2.92015,3.84353v3.98821h6.26349V366.34C347.68186,364.52329,345.71814,363.54467,344.74487,362.51018Z" fill="#fff"/><path d="M219.80434,242.50291A16.50239,16.50239,0,0,1,203.32062,226.019v-2.15163h1.69776V226.019a14.786,14.786,0,1,0,29.57193,0v-2.15163h1.69776V226.019A16.5024,16.5024,0,0,1,219.80434,242.50291Z" fill="#f4b2f0"/><path d="M183.2619,242.50291v-1.69776a14.80282,14.80282,0,0,0,14.786-14.78617v-2.15163h1.69776V226.019A16.50239,16.50239,0,0,1,183.2619,242.50291Z" fill="#f4b2f0"/><path d="M256.31674,242.50291A16.5024,16.5024,0,0,1,239.833,226.019v-2.15163h1.69776V226.019a14.80282,14.80282,0,0,0,14.786,14.78617Z" fill="#f4b2f0"/><path d="M199.58058,219.643h3.88058a1.36063,1.36063,0,0,1,1.36063,1.36063v37.55281a0,0,0,0,1,0,0H198.22a0,0,0,0,1,0,0V221.0036A1.36063,1.36063,0,0,1,199.58058,219.643Z" fill="#ff6895"/><path d="M236.14749,219.643h3.88058a1.36063,1.36063,0,0,1,1.36063,1.36063v37.55281a0,0,0,0,1,0,0h-6.60184a0,0,0,0,1,0,0V221.0036A1.36063,1.36063,0,0,1,236.14749,219.643Z" fill="#ff6895"/><path d="M200.03614,217.492h2.96945a.2306.2306,0,0,1,.2306.2306V219.643a0,0,0,0,1,0,0h-3.43066a0,0,0,0,1,0,0v-1.92039A.2306.2306,0,0,1,200.03614,217.492Z" fill="#ff6895"/><path d="M236.603,217.492h2.96945a.2306.2306,0,0,1,.2306.2306V219.643a0,0,0,0,1,0,0h-3.43066a0,0,0,0,1,0,0v-1.92039A.2306.2306,0,0,1,236.603,217.492Z" fill="#ff6895"/><path d="M183.72846,248.97471h72.15172a2.93317,2.93317,0,0,1,2.93317,2.93317v0a0,0,0,0,1,0,0H180.79529a0,0,0,0,1,0,0v0A2.93317,2.93317,0,0,1,183.72846,248.97471Z" fill="#100b5a"/><path d="M198.23665,258.55641h6.6651a.97466.97466,0,0,1,.97466.97466v1.95852a0,0,0,0,1,0,0H197.262a0,0,0,0,1,0,0v-1.95852A.97466.97466,0,0,1,198.23665,258.55641Z" fill="#100b5a"/><path d="M234.75523,258.55641h6.6651a.97466.97466,0,0,1,.97466.97466v1.95852a0,0,0,0,1,0,0h-8.61441a0,0,0,0,1,0,0v-1.95852a.97466.97466,0,0,1,.97466-.97466Z" fill="#100b5a"/><rect x="209.96596" y="238.40317" width="1.69776" height="10.57162" fill="#f4b2f0"/><rect x="215.95889" y="241.35394" width="1.69776" height="7.62085" fill="#f4b2f0"/><rect x="246.205" y="238.40317" width="1.69776" height="10.57162" fill="#f4b2f0"/><rect x="252.19793" y="241.35394" width="1.69776" height="7.62085" fill="#f4b2f0"/><rect x="227.94497" y="238.40317" width="1.69776" height="10.57162" fill="#f4b2f0"/><rect x="221.95203" y="241.35394" width="1.69776" height="7.62085" fill="#f4b2f0"/><rect x="191.68811" y="238.40317" width="1.69776" height="10.57162" fill="#f4b2f0"/><rect x="185.69517" y="241.35394" width="1.69776" height="7.62085" fill="#f4b2f0"/><path d="M482.69325,148.05982c6.60273,0,10.78636,6.76336,12.31487,9.75729a2.55959,2.55959,0,0,0,2.28123,1.39748h5.01441a1.635,1.635,0,0,0,1.17942-2.7674c-19.93021-20.77865-19.13127-47.28582-19.13127-47.28582a6.00268,6.00268,0,0,1,.108-.91842l-1.52833-1.81858a.31255.31255,0,0,0-.47886-.00043l-1.52734,1.81849a6.02582,6.02582,0,0,1,.10824.92091s.79984,26.50714-19.13114,47.28579a1.635,1.635,0,0,0,1.17941,2.76742h5.01474a2.55955,2.55955,0,0,0,2.28138-1.39776C471.90619,154.82431,476.09,148.05982,482.69325,148.05982Z" fill="#fe6447"/><rect x="477.2117" y="126.17498" width="10.65539" height="2.19797" rx="0.68486" fill="#ffc750"/><rect x="471.27941" y="139.80239" width="22.51996" height="2.19797" rx="0.68486" fill="#ffc750"/><g style="isolation:isolate"><polygon points="487.075 140.808 482.765 133.318 478.449 140.808 482.765 143.553 487.075 140.808" fill="#fff"/></g><circle cx="432.10495" cy="57.17249" r="1.30276" fill="none"/><path d="M419.58819,43.36615l6.215-10.058,11.39159,5.80741a1.09074,1.09074,0,0,1,.69682-.0606,2.5664,2.5664,0,0,1,1.81782-.818,1.79536,1.79536,0,0,1,1.33306.9695.73612.73612,0,0,1-.21208.9695,19.23606,19.23606,0,0,0-2.60552,4.02948,13.07745,13.07745,0,0,0-.99979,9.30114,26.14626,26.14626,0,0,1,.99979,4.66571q.59079,5.04442-1.54513,6.81679A12.55437,12.55437,0,0,1,429.56,67.47342a5.3625,5.3625,0,0,1-.69682-.0303c-3.51443-.27267-6.18057-1.54514-7.96807-3.81741-2.63583-3.36295-3.30237-8.90727-1.9693-16.3906ZM432.105,58.47526a1.30276,1.30276,0,1,0-1.30276-1.30276A1.31246,1.31246,0,0,0,432.105,58.47526Z" fill="#fe6447"/><circle cx="432.10495" cy="57.17249" r="1.30276" fill="none"/><path d="M433.135,21.17983a2.77653,2.77653,0,0,1,2.36315,1.636,4.8895,4.8895,0,0,1,.27268.78772c2.33286.09089,3.72651.63624,4.15068,1.57544a2.29407,2.29407,0,0,1-.45446,2.18137,1.95717,1.95717,0,0,1-.60593,1.424,1.39173,1.39173,0,0,1-.66654.33327,2.41541,2.41541,0,0,1-.51505,1.18157l-.12119.15148-.09089-.18178s-.78771-1.36336-1.51484-1.54514h0l-.69683-.18179a1.865,1.865,0,0,0-.72713.18179,1.09789,1.09789,0,0,0-.72713,1.06039s-.0606,1.03009,1.30276,1.42395c.03029,0,.0606.0303.09089.0303.303.0606.54534.12119.818.18178.09088.0303.18177.0303.27268.0606a8.442,8.442,0,0,0,.21208-1.03009l.03029-.21208.18177.12119a2.13981,2.13981,0,0,1,.69682,1.48455.795.795,0,0,1,.48475.818,2.54628,2.54628,0,0,1-1.54514,2.09048l-5.514-2.21167C426.98478,27.90573,433.135,21.17983,433.135,21.17983Z" fill="#fe6447"/><path d="M432.59223,23.54779l1.57544-.72712.0606.0303c.63623.24237.75742,1.939.78771,2.12078v.21207l-.18177-.06059a4.42639,4.42639,0,0,1-2.12078-1.42395Z" fill="#fff"/><path d="M423.68243,49.78006a1.43024,1.43024,0,0,1-1.51484,1.33306,1.45093,1.45093,0,0,1-1.51484-1.33306Z" fill="#f2cb8b"/><path d="M430.25683,45.5385a1.20794,1.20794,0,0,1-1.24216,1.121,1.16857,1.16857,0,0,1-1.24216-1.121Z" fill="#f2cb8b"/><path d="M428.01488,49.53769a1.208,1.208,0,0,1-1.24217,1.121,1.18719,1.18719,0,0,1-1.24216-1.121Z" fill="#f2cb8b"/><path d="M428.28754,57.17249a1.208,1.208,0,0,1-1.24217,1.121,1.16856,1.16856,0,0,1-1.24216-1.121Z" fill="#f2cb8b"/><path d="M430.80219,62.41385a1.20794,1.20794,0,0,1-1.24216,1.121,1.1872,1.1872,0,0,1-1.24217-1.121Z" fill="#f2cb8b"/><path d="M423.19767,55.02142a.90909.90909,0,0,1-.93919.84831.88893.88893,0,0,1-.9392-.84831Z" fill="#f2cb8b"/><path d="M424.62163,60.95959a.90909.90909,0,0,1-.9392.84831.88893.88893,0,0,1-.93919-.84831Z" fill="#f2cb8b"/><path d="M436.498,60.50514a.8237.8237,0,0,1-1.636,0Z" fill="#f2cb8b"/><path d="M437.316,57.59665a.57921.57921,0,0,1-1.15129,0Z" fill="#f2cb8b"/><path d="M435.58909,55.96061a.57922.57922,0,0,1-1.1513,0Z" fill="#f2cb8b"/><path d="M423.56123,62.92888c.18177.03033.33326.09091.51507.12116a18.4895,18.4895,0,0,0,4.93836.66659,19.87792,19.87792,0,0,0,4.93841-.66659c.15148-.03025.33325-.09083.515-.12116,7.51363-1.636,8.48312,4.66569,8.6346,4.90808H414.98721C415.07811,67.59464,416.04763,61.29288,423.56123,62.92888Z" fill="#100b5a"/><path d="M430.28715,29.34033V27.13054a4.16437,4.16437,0,0,1,.58094-2.12158l2.267-3.82911-.23843-.27511a7.8697,7.8697,0,0,0-5.947-2.7156h-4.47153a5.40033,5.40033,0,0,0-5.40032,5.40033V40.11539a6.60472,6.60472,0,0,0,6.60472,6.60472h0v-7.58a6.60462,6.60462,0,0,0,6.60465,6.60466h0v-8.655a6.60465,6.60465,0,0,0,6.60469,6.60466v-8.881l-4.69135-2.36552A3.48029,3.48029,0,0,1,430.28715,29.34033Z" fill="#ffc750"/><path d="M34.05111,340.90745a2.78729,2.78729,0,0,0,2.07689,1.324c1.57676.27388,2.20617,1.58728,2.224,3.63008s-5.26381.38886-5.49852.45291S34.05111,340.90745,34.05111,340.90745Z" fill="#00a89d"/><path d="M30.42784,338.906s.19564,2.15178-1.33016,2.05848c-1.12257-.06865.98716,2.18925,4.02969,3.45789a17.947,17.947,0,0,0,5.51987.96287s-3.02388-2.90918-4.20115-3.96338-.822-3.96342-.822-3.96342Z" fill="#ffc750"/><path d="M27.68021,335.16974s.06772,4.96424,4.46907,4.96424,4.75212-4.14266,4.81146-5.31635-1.34906-3.28635-1.34906-3.28635-1.93661-1.17369-2.28872-1.40844-2.23.17606-2.46473,0-1.76055,1.40844-1.76055,1.40844Z" fill="#ffc750"/><path d="M32.384,331.17917a5.04242,5.04242,0,0,1-5.27852,4.34268s.063-1.3275.00061-2.89379S31.97322,329.88813,32.384,331.17917Z" fill="#100b5a"/><path d="M32.38588,331.17917a5.0424,5.0424,0,0,0,5.27848,4.34268s-.063-1.3275-.00057-2.89379S32.79665,329.88813,32.38588,331.17917Z" fill="#100b5a"/><path d="M46.95318,346.84152s.98088.96734,1.4213,4.18363c.61728,4.50814-3.78406,11.3156-9.183,8.55741s-.4695-6.10106-.4695-6.10106.76292,2.21206,3.93187.66482,1.40844-5.303,1.40844-5.303Z" fill="#ffc750"/><path d="M48.6382,344.71419a14.842,14.842,0,0,1,.35356,3.48352c0,.52817-10.44588,7.629-10.44588,7.629v-3.93188Z" fill="#f4b2f0"/><path d="M21.67882,327.0708c.05157.05165-1.34471,13.55662,7.67976,13.90873,4.94808.193-4.32971,9.15479-4.32971,9.15479s-8.60709-5.399-7.66812-21.03776Z" fill="#ffc750"/><path d="M16.65653,325.878s.23472,4.85122,1.09545,5.94667a2.25282,2.25282,0,0,0,3.12984.313c.70422-.626.8607-6.57267.8607-6.57267Z" fill="#ff6895"/><path d="M18.92841,323.29589c-5.793,0-5.40175-4.53828-3.68032-6.18148a5.86315,5.86315,0,0,0,1.28025-6.96389s5.99663.93894,6.62262,5.86844S23.52877,323.29589,18.92841,323.29589Z" fill="#fe6447"/><path d="M24.2257,352.36434s-.76526-14.17213,1.89511-13.028c3.88571,1.67112,7.77564,3.50269,10.543,3.11147,1.77808-.2514-6.29653,9.91654-6.29653,9.91654Z" fill="#5666f6"/><path d="M39.77827,356.47227s.11739,22.30015,0,23.826-9.15479-.93893-9.15479-.93893l1.291-17.72276Z" fill="#1f294f"/><path d="M36.12458,344.73535s-1.96465,33.33285-2.50051,35.68027-9.5733-.58686-9.5733-.58686-.46946-26.64284,0-27.81653S32.58824,347.43483,36.12458,344.73535Z" fill="#1f294f"/><path d="M34.96612,344.03112a37.20966,37.20966,0,0,1-11.61953,16.787c-1.17373.9358-.82162,14.31591,0,15.72431s9.97053-4.44464,11.47228-8.92S36.72667,346.73061,34.96612,344.03112Z" fill="#5666f6"/><path d="M33.62407,363.74915s2.39838,3.87322,4.86315,3.87322,2.58213-20.30489-.70422-23.59125Z" fill="#5666f6"/><path d="M23.11183,378.88982H40.71725a5.75108,5.75108,0,0,1,5.75108,5.75108v0a0,0,0,0,1,0,0H17.36075a0,0,0,0,1,0,0v0A5.75108,5.75108,0,0,1,23.11183,378.88982Z" fill="#1f294f"/><path d="M29.09768,364.92284c-.58687,1.99531,2.34738,3.99057,4.10793,4.46s2.69948-5.98584,2.69948-8.09846S29.09768,364.92284,29.09768,364.92284Z" fill="#1f294f"/><path d="M35.227,342.94011c-.13537.40093-4.25139,18.10955-6.1293,21.98273a18.87443,18.87443,0,0,0,4.9295,0c2.81685-.35211,1.64316-1.17369,3.169-3.99053s1.31332-16.04049,1.07861-17.33153S35.52051,342.07042,35.227,342.94011Z" fill="#1f294f"/><path d="M13.99617,322.6699c-.73617.32717-.54775,3.28635.313,3.83406s9.05045.939,9.533,0,.76944-2.89508,0-3.83406S15.40457,322.04392,13.99617,322.6699Z" fill="#ffc750"/><path d="M43.82766,339.91985c-.53993-.14681-5.72437,5.67752-5.54856,6.195s.96149,6.25645,1.55134,6.4317,8.43293-7.248,8.80776-7.83233S44.88971,340.20871,43.82766,339.91985Z" fill="#ff6895"/><path d="M47.75937,346.65237c-.985-1.09762-3.35423.64315-3.71666,2.856-.32681,1.9953.74334,2.62125,2.11263,2.62125C48.07236,352.12959,50.498,349.704,47.75937,346.65237Z" fill="#ffe7c0"/><path d="M32.384,331.17917v-6.16189l-.99768,2.64083a5.321,5.321,0,0,0-4.28394,5.28161h0A10.31108,10.31108,0,0,1,32.384,331.17917Z" fill="#fe6447"/><polygon points="30.102 329.097 27.102 327.071 28.602 330.123 30.102 329.097" fill="#fe6447"/><polygon points="27.924 331.531 24.318 332.94 27.102 332.94 27.924 331.531" fill="#fe6447"/><path d="M32.384,331.17917v-6.16189l.99763,2.64083a5.321,5.321,0,0,1,4.284,5.28161h0A10.3113,10.3113,0,0,0,32.384,331.17917Z" fill="#fe6447"/><polygon points="34.666 329.097 37.666 327.071 36.166 330.123 34.666 329.097" fill="#fe6447"/><polygon points="36.844 331.531 40.45 332.94 37.666 332.94 36.844 331.531" fill="#fe6447"/><path d="M586.98723,83.14465s5.45033-14.36141,17.9677-10.366l-5.91709,12.8296-6.49433-3.03071Z" fill="#ffc750"/><path d="M562.23656,83.97448s8.65914-29.00808,33.33765-22.75612l-9.8137,23.66828H578.6889Z" fill="#5666f6"/><path d="M599.03784,84.598s-2.02044-11.83414-13.133-12.84437l-3.31933,12.26709Z" fill="#ff6895"/><path d="M593.276,74.66691a21.60279,21.60279,0,0,0-6.28881,8.47774l5.5563-.56708,4.15352,1.93825,2.34082.08225A18.037,18.037,0,0,0,593.276,74.66691Z" fill="#fff"/><path d="M553.14447,70.5991s-6.20571-1.39663-12.55572,3.94314l9.09207,10.3444,8.94778-.86591Z" fill="#ff6895"/><path d="M560.21609,67.71272a25.43653,25.43653,0,0,0-15.73075-1.87614l9.8137,18.32848,7.7932.433,2.88637-3.175Z" fill="#ffc750"/><path d="M582.58551,84.02073s0-29.00808-30.88422-30.01829l9.525,30.8842Z" fill="#5666f6"/><path d="M562.23659,83.97442l9.07664.50333,11.27231-.457s-.01381-10.76947-7.00427-19.414C565.98652,71.41635,562.23659,83.97442,562.23659,83.97442Z" fill="#ffe7c0"/><path d="M541.63711,82.57754H602.752a4.07906,4.07906,0,0,1,4.07906,4.07906v0a0,0,0,0,1,0,0H537.558a0,0,0,0,1,0,0v0A4.07906,4.07906,0,0,1,541.63711,82.57754Z" fill="#100b5a"/><polygon points="553.449 82.578 557.044 71.326 560.514 82.578 553.449 82.578" fill="#fff"/><path d="M462.32747,318.57626l-9.05921,6.11318a.93671.93671,0,0,1-1.46068-.77646v-1.1891a.93672.93672,0,0,1,.37438-.74915l5.96232-4.47554a.93672.93672,0,0,0,0-1.49829l-5.96232-4.47555a.93672.93672,0,0,1-.37438-.74914v-1.18245a.93671.93671,0,0,1,1.46239-.77531l9.05921,6.14229a.93673.93673,0,0,1,.411.77531v2.06374A.93674.93674,0,0,1,462.32747,318.57626Z" fill="#ff6895"/><path d="M645.46389,158.21884l-9.05921,6.11318a.93672.93672,0,0,1-1.46068-.77647v-1.1891a.93672.93672,0,0,1,.37438-.74914l5.96231-4.47555a.93671.93671,0,0,0,0-1.49829l-5.96231-4.47554a.93672.93672,0,0,1-.37438-.74915v-1.18245a.93672.93672,0,0,1,1.46239-.77531l9.05921,6.1423a.93671.93671,0,0,1,.411.77531v2.06374A.93673.93673,0,0,1,645.46389,158.21884Z" fill="#ff6895"/><path d="M205.29322,68.94154,196.234,75.05472a.93672.93672,0,0,1-1.46068-.77647v-1.1891a.93672.93672,0,0,1,.37438-.74914L201.11,67.86446a.93671.93671,0,0,0,0-1.49829l-5.96231-4.47554a.93672.93672,0,0,1-.37438-.74915V59.959a.93672.93672,0,0,1,1.46239-.77531l9.05921,6.1423a.93671.93671,0,0,1,.411.77531v2.06374A.93673.93673,0,0,1,205.29322,68.94154Z" fill="#ff6895"/><path d="M153.24627,360.70613a20.61612,20.61612,0,0,1-6.74,15.24481,21.17781,21.17781,0,0,1-14.34966,5.55948,21.37829,21.37829,0,0,1-4.56579-.48918,21.14794,21.14794,0,0,1-7.3379-3.14068,20.70126,20.70126,0,0,1-9.186-17.17443,21.09161,21.09161,0,0,1,42.17931,0Z" fill="#5666f6"/><ellipse cx="132.15724" cy="360.70621" rx="21.08966" ry="20.80429" fill="#f0f3ff"/><path d="M141.78653,350.18347s-.43824-1.0837-2.03831.60639a4.72381,4.72381,0,0,1-1.72576,1.35887l2.57335,2.94875Z" fill="url(#a)"/><path d="M122.53644,351.48628s-.2361-.975.86968-.52146a6.329,6.329,0,0,1,1.58987,1.403l.55035.87647-1.74276,2.70585Z" fill="url(#b)"/><path d="M147.17042,363.95892c-.68451.3669-2.36954,1.13467-3.43116.45523,0,0-.2174.26159-.5826.64037l3.34961,10.89642a21.314,21.314,0,0,1-26.25335,1.92962l2.23363-11.74066a1.49058,1.49058,0,0,1-.535-.91892l-.01189-.30405a3.00884,3.00884,0,0,1-1.13975.299.07724.07724,0,0,1-.073-.03226.0785.0785,0,0,1,.017-.10873,6.32989,6.32989,0,0,0,1.01915-1.11257,4.177,4.177,0,0,1-2.19628.46542.07818.07818,0,0,1-.02208-.15118,5.76111,5.76111,0,0,0,2.08077-1.75463,2.77765,2.77765,0,0,1-2.77549.52315.08773.08773,0,0,1-.04925-.04926.08092.08092,0,0,1,.04925-.10189,6.40215,6.40215,0,0,0,4.00866-3.832c.11382-.26159.214-.50958.30406-.77117.14267-.41785.40426-1.15165.744-1.967l-.10362-.372-1.4404-5.072a.75258.75258,0,0,1,1.11937-.84929l3.28,2.03831a6.09542,6.09542,0,0,1,1.97715-.97669l.07644-.02038a2.39119,2.39119,0,0,0-1.52873-.70152s1.81749-.87308,2.7721.06114a2.55958,2.55958,0,0,0-.33972-2.07566s2.0383.21232,2.15381,1.62386c0,0,1.2043-2.87572,2.82645-2.13854,0,0-1.36227,1.67482-.43484,2.57,0,0,1.60347-1.33508,2.502-.48579a2.30758,2.30758,0,0,0-1.01915,1.10918l.08323.02038a6.06055,6.06055,0,0,1,1.37585.53846l.1206.07813.05266-.06455,3.29356-2.43916a.75055.75055,0,0,1,1.16863.78812l-1.25185,5.14333-.034.16986c.69814,1.10918,1.30115,2.22686,1.668,2.93176.19194.3669.3618.7423.53165,1.11938,1.2128,2.75,2.87572,3.03536,3.36659,3.05746a.074.074,0,0,1,.04927.01868.07811.07811,0,0,1,.0068.11041c-.19364.23439-.76946.66584-2.29819.26327a8.84567,8.84567,0,0,0,3.2528,1.04124.08031.08031,0,0,1,.073.04246A.07878.07878,0,0,1,147.17042,363.95892Z" fill="#ffc750"/><path d="M129.13885,358.30781c0,2.39161-.82382,2.90968-2.15891,2.66168a6.01144,6.01144,0,0,0-1.99584-.04586c-1.41662.21232-2.35424-.36519-2.34065-2.5207a3.27658,3.27658,0,0,1,3.17636-3.27318,3.22732,3.22732,0,0,1,3.31808,3.13392Z" fill="#fff"/><path d="M129.13885,358.30781c0,2.39161-.82382,2.90968-2.15891,2.66168a6.01144,6.01144,0,0,0-1.99584-.04586c-1.41662.21232-2.35424-.36519-2.34065-2.5207a3.27658,3.27658,0,0,1,3.17636-3.27318,3.22732,3.22732,0,0,1,3.31808,3.13392Z" fill="#fff"/><path d="M138.55009,380.53713a21.51321,21.51321,0,0,1-10.95927.48411c.84419-3.69442.3414-4.18364,1.16012-6.5192.57923-1.651,1.189-3.285,2.7789-4.0562a4.09543,4.09543,0,0,1,3.13049-.16986c1.4438.5792,2.03831,2.0179,2.6379,3.55343C138.00315,375.62653,137.81121,376.28386,138.55009,380.53713Z" fill="#ff6895"/><path d="M136.013,357.86108c0,2.39161.82381,2.91138,2.1589,2.66169a6.01145,6.01145,0,0,1,1.99584-.04587c1.41662.21233,2.35424-.36519,2.34065-2.519a3.27317,3.27317,0,0,0-3.17635-3.26468,3.22731,3.22731,0,0,0-3.31825,3.13374Z" fill="#fff"/><path d="M134.09023,362.63751s.11041,1.899-1.01915,2.00943c-1.71388.16986-1.4421-1.61026-1.4421-1.61026s.44842.8374,1.01915.69981A2.51646,2.51646,0,0,0,134.09023,362.63751Z" fill="#efc95e"/><path d="M131.58481,363.18615s-.02548,1.00387,1.24337,1.01915,1.29262-1.74954,1.29262-1.74954l-1.52873-.86458Z" fill="#ff6895"/><path d="M132.83633,363.5535a.31318.31318,0,0,1-.31035-.275l-.18861-1.54564a.313.313,0,0,1,.62138-.076l.1886,1.54565a.313.313,0,0,1-.2727.34868A.33506.33506,0,0,1,132.83633,363.5535Z" fill="#fe6447"/><path d="M131.3589,366.41347s.197,1.809,1.71557,1.66291c1.46928-.14268,1.53723-1.84976,1.53723-1.84976a1.967,1.967,0,0,1-1.43871.84929A2.95813,2.95813,0,0,1,131.3589,366.41347Z" fill="#efc95e"/><path d="M129.16263,362.18907a8.3769,8.3769,0,0,1,1.30621.09853l-.0068.0051.00041,0a.124.124,0,0,0,.13888-.10708l.00079-.00572a.12232.12232,0,0,0-.1078-.13525,8.68891,8.68891,0,0,0-1.34358-.06965,8.79881,8.79881,0,0,0-1.33679.13079,7.77286,7.77286,0,0,0-2.52071.885,7.282,7.282,0,0,0-2.0383,1.69859,7.7556,7.7556,0,0,0-1.30451,2.30669,7.73377,7.73377,0,0,1,1.35887-2.26763,7.21879,7.21879,0,0,1,2.05528-1.63232,7.54473,7.54473,0,0,1,2.49014-.80853A8.22413,8.22413,0,0,1,129.16263,362.18907Z" fill="#1f294f"/><path d="M147.30524,363.19632a15.74,15.74,0,0,0-3.815-1.64762l-.50958-.13757c-.16986-.04587-.33972-.07645-.50958-.11552-.33971-.08153-.67943-.13249-1.01915-.19022a17.05294,17.05294,0,0,0-2.07907-.18176,17.51023,17.51023,0,0,0-4.153.39409l-.00339.00338a.12483.12483,0,1,0,.05774.2429,17.363,17.363,0,0,1,4.0936-.44845,16.7362,16.7362,0,0,1,2.06039.1478c.33972.04927.67944.09511,1.01915.16986.16986.03566.33972.06453.50958.107l.50107.12909a15.73637,15.73637,0,0,1,3.815,1.5797,16.53306,16.53306,0,0,1,3.29527,2.50541A16.47733,16.47733,0,0,0,147.30524,363.19632Z" fill="#1f294f"/><path d="M129.37665,361.71686l.02306.00317a.1257.1257,0,0,0,.01091-.25116,17.8165,17.8165,0,0,0-9.82632,1.37757q-.91234.41217-1.78012.91382a19.16229,19.16229,0,0,0-3.20863,2.38653,19.00329,19.00329,0,0,1,3.24769-2.32706,19.8818,19.8818,0,0,1,1.78692-.89006,17.87414,17.87414,0,0,1,1.86845-.67943A17.57019,17.57019,0,0,1,129.37665,361.71686Z" fill="#1f294f"/><path d="M135.85,360.8489l3.73688-.52827c.62679-.08833,1.24507-.18854,1.86844-.21573a11.92487,11.92487,0,0,1,1.86845.05607,11.67078,11.67078,0,0,1,3.6078,1.00045c1.13126.55034,2.25232,1.12618,3.37851,1.6867-1.11769-.57922-2.22687-1.172-3.35133-1.74273a11.84107,11.84107,0,0,0-5.51531-1.16185c-.63359.01531-1.26206.10872-1.88543.18517l-3.74878.47219h.00509a.12569.12569,0,0,0-.10531.14267l.00012.00087A.124.124,0,0,0,135.85,360.8489Z" fill="#1f294f"/><path d="M138.65092,362.73771a2.79689,2.79689,0,0,0-.32275-.31931c.17234-.08941.34353-.181.5147-.27009a.04587.04587,0,0,0,.02038-.05775l-.00025-.0005a.04416.04416,0,0,0-.0592-.01988c-.19265.0892-.382.18052-.5728.26787a2.80056,2.80056,0,0,0-.85572-.44963,3.1815,3.1815,0,0,0-1.54231-.09511l-.00509.00678a.12571.12571,0,0,0-.09512.1495l.00056.00253a.124.124,0,0,0,.14892.09258,2.96045,2.96045,0,0,1,1.437.03058,2.62233,2.62233,0,0,1,.74813.33748l-.01605.00734-.39236.13587-.19535.06795c-.06452.02208-.13249.03056-.20042.04757l-.40088.08833c-.13418.02716-.27176.02886-.40765.04586l-.20383.01866H136.047c-.13589-.00678-.27347,0-.40766-.01866a4.25517,4.25517,0,0,1-2.66776-1.3478l.01457-.01277a.28271.28271,0,0,0,.04247-.05777,1.00726,1.00726,0,0,1,.78474-.46031.50958.50958,0,0,0,.43144-.33971.36694.36694,0,0,0-.09342-.39579,1.9071,1.9071,0,0,0-1.55251-.40424,2.216,2.216,0,0,0-1.54911.67093.37539.37539,0,0,0-.05776.40427l.01019-.0034a.51979.51979,0,0,0,.46881.30235c.67435,0,.87987.29725.87987.29725l.0087.00832c.00644.006.01387.01009.02057.01563-.01033.03166-.02112.063-.03436.09324-.06625.15118-.124.30914-.19874.45864a4.3448,4.3448,0,0,1-.2378.43652c-.04416.06965-.08493.14268-.13249.21063l-.14778.197a3.409,3.409,0,0,1-.70831.67943,3.22721,3.22721,0,0,1-.88326.42975,4.155,4.155,0,0,1-1.98735.06623,6.79611,6.79611,0,0,1-.70286-.1748,2.63458,2.63458,0,0,1,.22216-.31268,2.27122,2.27122,0,0,1,1.16183-.7355,2.808,2.808,0,0,1,1.37416,0l.01019-.0017.00117.00023a.124.124,0,0,0,.14491-.09874.12568.12568,0,0,0-.09851-.14777,3.04227,3.04227,0,0,0-1.48287.06792,2.42063,2.42063,0,0,0-1.206.83741,2.71591,2.71591,0,0,0-.23073.35915,6.80139,6.80139,0,0,1-1.11624-.46106l-.01191.0017a.02887.02887,0,0,0-.03906.01189l-.00087.00147a.02888.02888,0,0,0,.01106.03931,6.83821,6.83821,0,0,0,1.09508.52612,2.71792,2.71792,0,0,0-.24918.86841,3.1152,3.1152,0,0,0,.16986,1.4285,3.0576,3.0576,0,0,1-.10871-1.42,2.63422,2.63422,0,0,1,.2829-.84224,6.83755,6.83755,0,0,0,.72775.22394,4.35869,4.35869,0,0,0,2.09266.0136,3.31916,3.31916,0,0,0,.97669-.43655,3.68021,3.68021,0,0,0,.79494-.7185l.16986-.21062c.05266-.07133.09852-.14608.14778-.22083a4.97008,4.97008,0,0,0,.26837-.45861,3.31407,3.31407,0,0,0,.22422-.48071l.00618-.01638a4.55846,4.55846,0,0,0,2.93237,1.33448c.14269.01191.28537,0,.428,0h.214l.21232-.03056c.13929-.02208.282-.03226.41955-.06455l.41107-.10871c.06792-.02038.13759-.03226.20382-.05944l.197-.07645.39236-.15456c.02953-.01427.05827-.03011.08759-.04475a2.62382,2.62382,0,0,1,.371.3284,2.40352,2.40352,0,0,1,.62,1.31471,3.06945,3.06945,0,0,1-.16986,1.4727,3.09676,3.09676,0,0,0,.23271-1.47948A2.50546,2.50546,0,0,0,138.65092,362.73771Z" fill="#1f294f"/><path d="M134.64164,366.07169a.06283.06283,0,0,0-.086.02243,2.03738,2.03738,0,0,1-.28026.37878,1.95625,1.95625,0,0,1-.3601.28027,1.92279,1.92279,0,0,1-.86288.24461,2.2216,2.2216,0,0,1-.89856-.15628,2.29,2.29,0,0,1-.78305-.52315.06453.06453,0,0,0-.07474-.0102l-.00275.00149a.06113.06113,0,0,0-.02272.08343,1.81237,1.81237,0,0,0,.75077.73551,2.10465,2.10465,0,0,0,1.048.24458,2.17145,2.17145,0,0,0,.54015-.09513,1.95114,1.95114,0,0,0,.48749-.25139,1.698,1.698,0,0,0,.37878-.39406,1.47434,1.47434,0,0,0,.20044-.496h0a.06454.06454,0,0,0-.034-.06453Z" fill="#1f294f"/><circle cx="126.17821" cy="357.62328" r="2.00943" fill="#ff6895"/><circle cx="126.12046" cy="357.65046" r="1.45569" fill="#1f294f"/><circle cx="126.93918" cy="356.50731" r="0.77456" fill="#fff"/><circle cx="138.97536" cy="357.15447" r="2.01113" fill="#ff6895"/><circle cx="139.03142" cy="357.18165" r="1.45569" fill="#1f294f"/><circle cx="140.20344" cy="356.0402" r="0.77456" fill="#fff"/><path d="M227.32778,169.88085l11.52489-7.777a1.19167,1.19167,0,0,1,1.85824.9878v1.51274a1.19167,1.19167,0,0,1-.47628.953l-7.5851,5.69367a1.19167,1.19167,0,0,0,0,1.90609l7.5851,5.69367a1.19166,1.19166,0,0,1,.47628.953v1.50428a1.19167,1.19167,0,0,1-1.86042.98633l-11.52489-7.81406a1.19168,1.19168,0,0,1-.52292-.98633v-2.62544A1.19166,1.19166,0,0,1,227.32778,169.88085Z" fill="#5fc5a6"/><path d="M3.21417,180.03262l11.79572-7.95978a1.21967,1.21967,0,0,1,1.90191,1.011v1.54829a1.21968,1.21968,0,0,1-.48747.97544L8.661,181.43505a1.21967,1.21967,0,0,0,0,1.95087l7.76335,5.82747a1.21968,1.21968,0,0,1,.48747.97544v1.53963a1.21968,1.21968,0,0,1-1.90414,1.00951L3.212,184.74028a1.21968,1.21968,0,0,1-.53521-1.00951v-2.68713A1.21969,1.21969,0,0,1,3.21417,180.03262Z" fill="#5666f6"/><path d="M528.4644,188.1013l-11.79572,7.95979a1.21967,1.21967,0,0,1-1.9019-1.011v-1.54829a1.21965,1.21965,0,0,1,.48747-.97543l7.76334-5.82747a1.21968,1.21968,0,0,0,0-1.95088l-7.76334-5.82746a1.21967,1.21967,0,0,1-.48747-.97544v-1.53963a1.21967,1.21967,0,0,1,1.90413-1.00951l11.79572,7.99769a1.21967,1.21967,0,0,1,.5352,1.00951v2.68713A1.21966,1.21966,0,0,1,528.4644,188.1013Z" fill="#5666f6"/><path d="M591.45576,273.877a1.14856,1.14856,0,0,0,1.5414.759,11.15686,11.15686,0,0,0,0-20.70707,1.14857,1.14857,0,0,0-1.54136.759l-.26429.97347a1.14249,1.14249,0,0,0,.66429,1.35521,7.86689,7.86689,0,0,1,0,14.53175,1.14249,1.14249,0,0,0-.66425,1.3552Z" fill="#ffc750"/><path d="M121.30222,208.58185a1.06228,1.06228,0,0,1-1.4256.702,10.31865,10.31865,0,0,1,0-19.15138,1.06228,1.06228,0,0,1,1.42556.702l.24443.90033a1.05666,1.05666,0,0,1-.61438,1.2534,7.27586,7.27586,0,0,0,0,13.44,1.05665,1.05665,0,0,1,.61434,1.25338Z" fill="#ffc750"/><path d="M136.487,208.58185a1.06228,1.06228,0,0,0,1.4256.702,10.31866,10.31866,0,0,0,0-19.15138,1.06228,1.06228,0,0,0-1.42556.702l-.24443.90033a1.05666,1.05666,0,0,0,.61438,1.2534,7.27586,7.27586,0,0,1,0,13.44,1.05666,1.05666,0,0,0-.61435,1.25338Z" fill="#ffc750"/><circle cx="122.17092" cy="199.70814" r="1.9407" fill="#ffc750"/><circle cx="128.95303" cy="199.70814" r="1.9407" fill="#ffc750"/><circle cx="135.73514" cy="199.70814" r="1.9407" fill="#ffc750"/><path d="M484.78327,61.8784a1.06229,1.06229,0,0,1-1.4256.702,10.31866,10.31866,0,0,1,0-19.15138,1.06228,1.06228,0,0,1,1.42556.702l.24443.90034a1.05667,1.05667,0,0,1-.61438,1.2534,7.27585,7.27585,0,0,0,0,13.44,1.05668,1.05668,0,0,1,.61435,1.25339Z" fill="#ffc750"/><path d="M499.968,61.8784a1.06229,1.06229,0,0,0,1.4256.702,10.31865,10.31865,0,0,0,0-19.15138,1.06228,1.06228,0,0,0-1.42556.702l-.24443.90034a1.05667,1.05667,0,0,0,.61438,1.2534,7.27585,7.27585,0,0,1,0,13.44,1.05666,1.05666,0,0,0-.61434,1.25339Z" fill="#ffc750"/><circle cx="485.65197" cy="53.00469" r="1.9407" fill="#ffc750"/><circle cx="492.43408" cy="53.00469" r="1.9407" fill="#ffc750"/><circle cx="499.21619" cy="53.00469" r="1.9407" fill="#ffc750"/><path d="M72.42578,248.81591H104.2085a2.03619,2.03619,0,0,1,2.03619,2.03619v24.09362a0,0,0,0,1,0,0H70.38958a0,0,0,0,1,0,0V250.85211A2.03619,2.03619,0,0,1,72.42578,248.81591Z" fill="#5666f6"/><path d="M70.38958,274.94573h35.85511a0,0,0,0,1,0,0v21.66646a1.41623,1.41623,0,0,1-1.41623,1.41623H71.80581a1.41623,1.41623,0,0,1-1.41623-1.41623V274.94573A0,0,0,0,1,70.38958,274.94573Z" fill="#100b5a"/><rect x="72.90153" y="251.43878" width="30.83122" height="21.12651" fill="#fff"/><rect x="72.90153" y="277.82181" width="3.89868" height="3.89868" fill="#ff6895"/><rect x="78.28803" y="277.82181" width="3.89868" height="3.89868" fill="#ff6895"/><rect x="83.67454" y="277.82181" width="3.89868" height="3.89868" fill="#ff6895"/><rect x="89.06105" y="277.82181" width="3.89868" height="3.89868" fill="#ff6895"/><rect x="94.44756" y="277.82181" width="3.89868" height="3.89868" fill="#ff6895"/><rect x="99.83406" y="277.82181" width="3.89868" height="3.89868" fill="#ff6895"/><rect x="72.90153" y="283.2544" width="3.89868" height="3.89868" fill="#ff6895"/><rect x="78.28803" y="283.2544" width="3.89868" height="3.89868" fill="#ff6895"/><rect x="83.67454" y="283.2544" width="3.89868" height="3.89868" fill="#ff6895"/><rect x="83.67454" y="288.68699" width="9.28519" height="6.57504" fill="#ff6895"/><rect x="89.06105" y="283.2544" width="3.89868" height="3.89868" fill="#ff6895"/><rect x="94.44756" y="283.2544" width="3.89868" height="3.89868" fill="#ff6895"/><rect x="99.83406" y="283.2544" width="3.89868" height="3.89868" fill="#ff6895"/><path d="M83.87056,261.68079l4.90288-7.70452,4.90288,7.70452-4.90288,2.80164Z" fill="#fecf64"/><path d="M83.87056,261.68079l4.90288,2.80164,4.90288-2.80164-4.90288,6.6539Z" fill="#fe6447"/><rect x="597.6797" y="347.52082" width="48.62286" height="35.39594" rx="2.48814" fill="#1f294f"/><rect x="601.77935" y="351.72573" width="40.42357" height="22.96116" rx="0.32783" fill="#fff"/><rect x="615.06645" y="382.91676" width="13.84936" height="5.81924" fill="#5fc5a6"/><path d="M615.16957,388.736h13.64312a2.81315,2.81315,0,0,1,2.81315,2.81315v0a0,0,0,0,1,0,0H612.35642a0,0,0,0,1,0,0v0A2.81315,2.81315,0,0,1,615.16957,388.736Z" fill="#1f294f"/><path d="M616.88338,363.75356l5.10775-8.02646,5.10774,8.02646-5.10774,2.91871Z" fill="#fecf64"/><path d="M616.88338,363.75356l5.10775,2.91872,5.10774-2.91872-5.10774,6.93194Z" fill="#fe6447"/><circle cx="621.99113" cy="378.52935" r="1.5097" fill="#fff"/><polygon points="80.717 71.178 93.704 63.704 106.691 71.178 93.704 78.639 80.717 71.178" fill="#ffc750"/><polygon points="80.717 71.178 80.717 86.087 93.704 93.575 93.704 78.639 80.717 71.178" fill="#5666f6"/><polygon points="106.691 71.178 93.704 78.639 93.704 93.575 106.691 86.116 106.691 71.178" fill="#ff6895"/><polygon points="556.735 7.778 565.7 2.619 574.665 7.778 565.7 12.928 556.735 7.778" fill="#ffc750"/><polygon points="556.735 7.778 556.735 18.069 565.7 23.238 565.7 12.928 556.735 7.778" fill="#5666f6"/><polygon points="574.665 7.778 565.7 12.928 565.7 23.238 574.665 18.09 574.665 7.778" fill="#ff6895"/><polygon points="294.272 195.737 308.334 187.645 322.396 195.737 308.334 203.817 294.272 195.737" fill="#ffc750"/><polygon points="294.272 195.737 294.272 211.88 308.334 219.988 308.334 203.817 294.272 195.737" fill="#5666f6"/><polygon points="322.396 195.737 308.334 203.817 308.334 219.988 322.396 211.912 322.396 195.737" fill="#ff6895"/><polygon points="189.789 345.305 198.754 340.146 207.719 345.305 198.754 350.456 189.789 345.305" fill="#ffc750"/><polygon points="189.789 345.305 189.789 355.596 198.754 360.765 198.754 350.456 189.789 345.305" fill="#5666f6"/><polygon points="207.719 345.305 198.754 350.456 198.754 360.765 207.719 355.617 207.719 345.305" fill="#ff6895"/><rect x="135.44167" width="22.10042" height="36.05777" rx="3.65698" fill="#100b5a"/><rect x="137.95353" y="2.71022" width="17.0767" height="26.91004" rx="0.31107" fill="#fff"/><path d="M142.31778,15.73671l4.1741-6.5593,4.1741,6.5593-4.1741,2.3852Z" fill="#fecf64"/><path d="M142.31778,15.73671l4.1741,2.3852,4.1741-2.3852-4.1741,5.66485Z" fill="#fe6447"/><circle cx="146.35585" cy="32.90276" r="1.23374" fill="#fff"/><rect x="569.6373" y="140.76867" width="42.34874" height="53.83819" rx="2.6821" fill="#5666f6"/><circle cx="590.81168" cy="191.26423" r="1.84211" fill="#fff"/><rect x="572.24403" y="143.44086" width="37.1353" height="44.42128" rx="0.58937" fill="#fff"/><path d="M584.57929,168.35558l6.23239-9.79375,6.23238,9.79375-6.23238,3.56136Z" fill="#fecf64"/><path d="M584.57929,168.35558l6.23239,3.56137,6.23238-3.56137-6.23238,8.45824Z" fill="#fe6447"/><circle cx="422.34996" cy="2.11721" r="1.91577" fill="#5666f6"/><circle cx="429.04495" cy="2.11721" r="1.91577" fill="#ff6895"/><circle cx="435.73995" cy="2.11721" r="1.91577" fill="#ffc750"/><circle cx="8.82719" cy="18.02889" r="1.91577" fill="#5666f6"/><circle cx="15.52219" cy="18.02889" r="1.91577" fill="#ff6895"/><circle cx="22.21719" cy="18.02889" r="1.91577" fill="#ffc750"/><circle cx="21.90691" cy="229.44557" r="1.91577" fill="#5666f6"/><circle cx="28.6019" cy="229.44557" r="1.91577" fill="#ff6895"/><circle cx="35.2969" cy="229.44557" r="1.91577" fill="#ffc750"/><circle cx="335.62973" cy="96.37243" r="1.91577" fill="#5666f6"/><circle cx="335.62973" cy="103.06743" r="1.91577" fill="#ff6895"/><circle cx="335.62973" cy="109.76242" r="1.91577" fill="#ffc750"/><circle cx="675.85413" cy="351.21" r="1.91577" fill="#5666f6"/><circle cx="675.85413" cy="357.905" r="1.91577" fill="#ff6895"/><circle cx="675.85413" cy="364.59999" r="1.91577" fill="#ffc750"/><circle cx="546.75402" cy="383.09783" r="1.91577" fill="#5666f6"/><circle cx="553.44902" cy="383.09783" r="1.91577" fill="#ff6895"/><circle cx="560.14401" cy="383.09783" r="1.91577" fill="#ffc750"/><circle cx="77.17557" cy="380.0965" r="1.91577" fill="#5666f6"/><circle cx="83.87056" cy="380.0965" r="1.91577" fill="#ff6895"/><circle cx="90.56556" cy="380.0965" r="1.91577" fill="#ffc750"/><circle cx="655.02852" cy="100.64679" r="22.74139" fill="#e6eaff"/><path d="M670.1432,100.64477A15.1154,15.1154,0,1,1,655.03064,85.5322,15.11311,15.11311,0,0,1,670.1432,100.64477Z" fill="#fff"/><path d="M645.46174,105.28028c-.929.68661-1.88607.62774-2.74575,1.80967l-.02111.02932a1.81246,1.81246,0,0,0,1.50053,2.84125h22.01973a1.8175,1.8175,0,0,0,1.7696-2.23082,4.42066,4.42066,0,0,0-.57783-1.38858c-1.12952-1.76369-2.74692-1.35925-3.8482-3.05775-.86612-1.33581-.39671-2.15158-1.06087-5.11708a20.73316,20.73316,0,0,0-1.33126-3.98905l-11.7321.71462a1.5015,1.5015,0,0,0-1.123-.049C646.102,95.74193,648.63069,102.93815,645.46174,105.28028Z" fill="#1f294f"/><path d="M659.76046,107.68809v7.31129a15.12073,15.12073,0,0,1-9.41972.01141v-7.3227Z" fill="#ffc750"/><path d="M659.76,107.69v1.84544a4.144,4.144,0,0,1-3.24825,1.5661H653.5881a4.14,4.14,0,0,1-3.24628-1.5661V107.69Z" fill="#fe6447"/><path d="M649.43448,92.4629h11.23179a0,0,0,0,1,0,0V105.366a4.1538,4.1538,0,0,1-4.1538,4.1538h-2.92418a4.1538,4.1538,0,0,1-4.1538-4.1538V92.4629A0,0,0,0,1,649.43448,92.4629Z" fill="#ffc750"/><path d="M649.43448,97.372h0a0,0,0,0,1,0,0v4.32663a0,0,0,0,1,0,0h0a1.16486,1.16486,0,0,1-1.16486-1.16486V98.53682A1.16486,1.16486,0,0,1,649.43448,97.372Z" fill="#fe6447"/><path d="M661.9871,97.372h.17685a0,0,0,0,1,0,0v4.32663a0,0,0,0,1,0,0h-.17685a1.32083,1.32083,0,0,1-1.32083-1.32083v-1.685A1.32083,1.32083,0,0,1,661.9871,97.372Z" transform="translate(1322.83023 199.07054) rotate(180)" fill="#fe6447"/><path d="M652.554,103.69938a2.2223,2.2223,0,0,1-2.21971-2.21971v-.01979a2.21971,2.21971,0,0,1,4.43942,0v.01979A2.2223,2.2223,0,0,1,652.554,103.69938Zm0-3.869a1.63144,1.63144,0,0,0-1.62948,1.62948v.01979a1.62948,1.62948,0,0,0,3.259,0v-.01979A1.63144,1.63144,0,0,0,652.554,99.8304Z" fill="#100b5a"/><path d="M657.54678,103.69938a2.2223,2.2223,0,0,1-2.21971-2.21971v-.01979a2.21962,2.21962,0,1,1,4.43923,0v.02A2.222,2.222,0,0,1,657.54678,103.69938Zm0-3.869a1.63144,1.63144,0,0,0-1.62948,1.62948v.01979a1.62939,1.62939,0,1,0,3.25877.00019v-.02A1.63128,1.63128,0,0,0,657.54678,99.8304Z" fill="#100b5a"/><path d="M655.07672,106.937a2.43878,2.43878,0,0,1-.55623-.06321.29509.29509,0,0,1,.1368-.5741,1.81573,1.81573,0,0,0,1.25828-.15985,1.83442,1.83442,0,0,0,.88285-1.15242.29521.29521,0,0,1,.57333.141,2.43858,2.43858,0,0,1-1.17624,1.53091A2.34721,2.34721,0,0,1,655.07672,106.937Z" fill="#100b5a"/><circle cx="651.49373" cy="94.0919" r="3.49246" fill="#1f294f"/><circle cx="657.3786" cy="92.22427" r="5.36009" fill="#1f294f"/><circle cx="652.554" cy="101.891" r="0.53519" fill="#100b5a"/><circle cx="657.54675" cy="101.891" r="0.53519" fill="#100b5a"/><path d="M427.16351,114.04552a10.97813,10.97813,0,1,0-19.105,7.38014,12.91066,12.91066,0,0,1,3.35349,8.6836v.27565a1.10373,1.10373,0,0,0,1.10373,1.10373h7.33948a1.10373,1.10373,0,0,0,1.10373-1.10373v-.27464a13.23663,13.23663,0,0,1,3.43474-8.775A10.93585,10.93585,0,0,0,427.16351,114.04552Z" fill="#ffc750"/><rect x="414.08048" y="118.50863" width="0.72047" height="12.9799" fill="#fff"/><rect x="417.71213" y="118.50863" width="0.72047" height="12.9799" fill="#fff"/><path d="M411.33424,115.73661l4.85121-7.62333,4.85122,7.62333-4.85122,2.77213Z" fill="#fff"/><path d="M411.33424,115.73662l4.85121,2.77212,4.85122-2.77212-4.85122,6.58379Z" fill="#ffe7c0"/><path d="M412.51571,131.48864H419.926a0,0,0,0,1,0,0v2.09359a3.70513,3.70513,0,0,1-3.70513,3.70513h0a3.70513,3.70513,0,0,1-3.70513-3.70513v-2.09359a0,0,0,0,1,0,0Z" fill="#100b5a"/><rect x="412.51572" y="131.48864" width="7.41026" height="1.27589" fill="#ff6895"/><path d="M677.76991,231.94764a16.352,16.352,0,1,0-28.45713,10.99279,19.23056,19.23056,0,0,1,4.995,12.93432v.41057a1.644,1.644,0,0,0,1.644,1.644h10.93224a1.644,1.644,0,0,0,1.644-1.644v-.40907a19.716,19.716,0,0,1,5.11608-13.07049A16.28909,16.28909,0,0,0,677.76991,231.94764Z" fill="#ffc750"/><rect x="658.2826" y="238.59548" width="1.07314" height="19.33369" fill="#fff"/><rect x="663.69198" y="238.59548" width="1.07314" height="19.33369" fill="#fff"/><path d="M654.192,234.46654l7.22593-11.355,7.22594,11.355-7.22594,4.12911Z" fill="#fff"/><path d="M654.192,234.46654l7.22593,4.12911,7.22594-4.12911-7.22594,9.80663Z" fill="#ffe7c0"/><path d="M655.95185,257.92934h11.03768a0,0,0,0,1,0,0v3.11843a5.51884,5.51884,0,0,1-5.51884,5.51884h0a5.51884,5.51884,0,0,1-5.51884-5.51884v-3.11843a0,0,0,0,1,0,0Z" fill="#100b5a"/><rect x="655.95187" y="257.92934" width="11.03766" height="1.90044" fill="#ff6895"/><path d="M491.5912,257.67819,501.324,253.507l9.73282,4.17121-9.73282,5.56162Z" fill="#1f294f"/><path d="M491.5912,255.59239,501.324,240.298l9.73282,15.29444L501.324,261.154Z" fill="#ffc750"/><path d="M501.324,240.298l9.73282,15.29444L501.324,261.154Z" fill="#5666f6"/><path d="M491.5912,257.678l9.73283,5.56161,9.73282-5.56161L501.324,270.88683Z" fill="#ffc750"/><path d="M501.324,263.23961l9.73282-5.56161L501.324,270.88683Z" fill="#5666f6"/><path d="M144.21651,301.57884l10.09051-4.32451,10.09052,4.32451-10.09052,5.766Z" fill="#1f294f"/><path d="M144.21651,299.41638,154.307,283.55986l10.09052,15.85652-10.09052,5.766Z" fill="#ffc750"/><path d="M154.307,283.55986l10.09052,15.85652-10.09052,5.766Z" fill="#5666f6"/><path d="M144.21651,301.57863l10.09051,5.766,10.09052-5.766L154.307,315.2729Z" fill="#ffc750"/><path d="M154.307,307.34464l10.09052-5.766L154.307,315.2729Z" fill="#5666f6"/><rect x="71.43595" y="133.60636" width="0.72166" height="4.61246" fill="#100b5a"/><rect x="62.38363" y="178.44786" width="18.82631" height="11.07272" fill="#ffc750"/><path d="M73.82061,182.03633c0-.57817-.90609-1.0469-2.02381-1.0469s-2.02384.46873-2.02384,1.0469a.55706.55706,0,0,0,.01792.09176H69.773v7.39248h4.04765v-7.39248h-.01792A.55293.55293,0,0,0,73.82061,182.03633Z" fill="#fff"/><path d="M68.3139,182.03633c0-.57817-.90608-1.0469-2.0238-1.0469s-2.02384.46873-2.02384,1.0469a.557.557,0,0,0,.01791.09176h-.01791v7.39248H68.3139v-7.39248H68.296A.55393.55393,0,0,0,68.3139,182.03633Z" fill="#fff"/><path d="M79.51557,182.03633c0-.57817-.90608-1.0469-2.0238-1.0469s-2.02384.46873-2.02384,1.0469a.557.557,0,0,0,.01791.09176h-.01791v7.39248h4.04764v-7.39248h-.01791A.55393.55393,0,0,0,79.51557,182.03633Z" fill="#fff"/><rect x="60.92457" y="177.64774" width="21.74443" height="1.60024" fill="#fe6447"/><rect x="62.38363" y="166.57502" width="18.82631" height="11.07272" fill="#ffc750"/><rect x="65.20756" y="146.21809" width="13.17846" height="1.98902" fill="#5666f6"/><rect x="61.81882" y="149.80734" width="19.95593" height="15.96756" fill="#ffc750"/><path d="M73.82061,170.1635c0-.57821-.90609-1.04694-2.02381-1.04694s-2.02384.46873-2.02384,1.04694a.55674.55674,0,0,0,.01792.09175H69.773v7.39249h4.04765v-7.39249h-.01792A.55262.55262,0,0,0,73.82061,170.1635Z" fill="#fff"/><path d="M68.3139,170.1635c0-.57821-.90608-1.04694-2.0238-1.04694s-2.02384.46873-2.02384,1.04694a.55671.55671,0,0,0,.01791.09175h-.01791v7.39249H68.3139v-7.39249H68.296A.55361.55361,0,0,0,68.3139,170.1635Z" fill="#fff"/><path d="M79.51557,170.1635c0-.57821-.90608-1.04694-2.0238-1.04694s-2.02384.46873-2.02384,1.04694a.55671.55671,0,0,0,.01791.09175h-.01791v7.39249h4.04764v-7.39249h-.01791A.55361.55361,0,0,0,79.51557,170.1635Z" fill="#fff"/><rect x="60.92457" y="165.7749" width="21.74443" height="1.60024" fill="#fe6447"/><rect x="60.92457" y="148.2071" width="21.74443" height="1.60024" fill="#fe6447"/><rect x="64.50157" y="144.61785" width="14.59044" height="1.60024" fill="#100b5a"/><rect x="62.38363" y="190.32069" width="18.82631" height="11.07272" fill="#ffc750"/><path d="M73.82061,193.90917c0-.57818-.90609-1.04691-2.02381-1.04691s-2.02384.46873-2.02384,1.04691a.5577.5577,0,0,0,.01792.09178H69.773v7.39246h4.04765V194.001h-.01792A.55356.55356,0,0,0,73.82061,193.90917Z" fill="#fff"/><path d="M68.3139,193.90917c0-.57818-.90608-1.04691-2.0238-1.04691s-2.02384.46873-2.02384,1.04691a.55767.55767,0,0,0,.01791.09178h-.01791v7.39246H68.3139V194.001H68.296A.55456.55456,0,0,0,68.3139,193.90917Z" fill="#fff"/><path d="M79.51557,193.90917c0-.57818-.90608-1.04691-2.0238-1.04691s-2.02384.46873-2.02384,1.04691a.55767.55767,0,0,0,.01791.09178h-.01791v7.39246h4.04764V194.001h-.01791A.55456.55456,0,0,0,79.51557,193.90917Z" fill="#fff"/><rect x="60.92457" y="189.52057" width="21.74443" height="1.60024" fill="#fe6447"/><path d="M63.92772,199.70814H79.66586a3.85031,3.85031,0,0,1,3.85031,3.85031v0a0,0,0,0,1,0,0H60.0774a0,0,0,0,1,0,0v0A3.85031,3.85031,0,0,1,63.92772,199.70814Z" fill="#100b5a"/><polygon points="65.245 144.618 71.797 136.132 78.349 144.618 65.245 144.618" fill="#5666f6"/><circle cx="71.79679" cy="157.79111" r="7.98379" transform="translate(-90.54637 96.98395) rotate(-45)" fill="#ffe7c0"/><circle cx="71.79679" cy="157.79111" r="4.74657" transform="translate(-94.05983 107.34913) rotate(-48.61782)" fill="#fff"/><rect x="71.57713" y="150.27627" width="0.4393" height="1.44336" fill="#100b5a"/><rect x="71.57713" y="163.86262" width="0.4393" height="1.44332" fill="#100b5a"/><rect x="78.37033" y="157.06943" width="0.43927" height="1.44336" transform="translate(236.38107 79.20114) rotate(90)" fill="#100b5a"/><rect x="64.78397" y="157.06943" width="0.43927" height="1.44335" transform="translate(222.79472 92.7875) rotate(90)" fill="#100b5a"/><path d="M71.7969,158.16737a.37635.37635,0,0,1-.2357-.08311l-2.98094-2.393a.37636.37636,0,1,1,.4714-.58682l2.74524,2.20325,4.26682-3.427a.37637.37637,0,1,1,.4714.58685l-4.50252,3.6167A.37631.37631,0,0,1,71.7969,158.16737Z" fill="#100b5a"/><path d="M548.694,216.14046l1.17449-3.86051a.53271.53271,0,0,1,1.02109.006l1.13746,3.90394a.53272.53272,0,0,0,.36243.36243l3.76665,1.09746a.53271.53271,0,0,1-.01484,1.027l-3.87556,1.00862a.53269.53269,0,0,0-.38137.38137l-1.02062,3.92169a.53271.53271,0,0,1-1.025.02145l-1.15014-3.76526a.53269.53269,0,0,0-.35385-.35385l-3.896-1.19009a.53271.53271,0,0,1,.00058-1.01912l3.90014-1.18654A.5327.5327,0,0,0,548.694,216.14046Z" fill="#e6eaff"/><path d="M669.92409,289.97032l1.17449-3.86052a.53271.53271,0,0,1,1.02109.006l1.13746,3.90394a.53272.53272,0,0,0,.36243.36243l3.76665,1.09746a.53271.53271,0,0,1-.01485,1.027l-3.87556,1.00861a.53273.53273,0,0,0-.38136.38137l-1.02063,3.9217a.5327.5327,0,0,1-1.025.02145l-1.15014-3.76527a.5327.5327,0,0,0-.35385-.35384l-3.89605-1.19009a.53271.53271,0,0,1,.00057-1.01912l3.90015-1.18654A.53274.53274,0,0,0,669.92409,289.97032Z" fill="#e6eaff"/><path d="M140.71107,91.86533l1.17449-3.86051a.53271.53271,0,0,1,1.02109.006l1.13746,3.90394a.5327.5327,0,0,0,.36243.36243l3.76665,1.09746a.53271.53271,0,0,1-.01484,1.027l-3.87556,1.00862a.53269.53269,0,0,0-.38137.38137l-1.02062,3.92169a.53271.53271,0,0,1-1.025.02146l-1.15014-3.76527a.53269.53269,0,0,0-.35385-.35385l-3.89605-1.19009a.53271.53271,0,0,1,.00058-1.01911l3.90014-1.18655A.53268.53268,0,0,0,140.71107,91.86533Z" fill="#e6eaff"/><path d="M235.42507,376.56446l1.17449-3.86051a.53271.53271,0,0,1,1.02109.006l1.13746,3.90394a.5327.5327,0,0,0,.36243.36243l3.76665,1.09746a.53271.53271,0,0,1-.01485,1.027l-3.87555,1.00862a.53269.53269,0,0,0-.38137.38137l-1.02062,3.92169a.53271.53271,0,0,1-1.025.02145l-1.15014-3.76526a.53269.53269,0,0,0-.35385-.35385l-3.89605-1.19009a.53271.53271,0,0,1,.00057-1.01912l3.90015-1.18654A.53274.53274,0,0,0,235.42507,376.56446Z" fill="#e6eaff"/><path d="M438.035,374.85128l1.17449-3.86052a.53271.53271,0,0,1,1.02109.006l1.13746,3.90393a.5327.5327,0,0,0,.36243.36243l3.76665,1.09747a.53271.53271,0,0,1-.01485,1.027l-3.87555,1.00861a.53271.53271,0,0,0-.38137.38137l-1.02062,3.92169a.53271.53271,0,0,1-1.025.02146l-1.15014-3.76527a.53269.53269,0,0,0-.35385-.35385l-3.89605-1.19008a.53271.53271,0,0,1,.00057-1.01912l3.90015-1.18655A.53271.53271,0,0,0,438.035,374.85128Z" fill="#e6eaff"/><path d="M518.36182,111.81591l1.17449-3.86051a.53271.53271,0,0,1,1.02109.006l1.13746,3.90394a.53274.53274,0,0,0,.36243.36243l3.76665,1.09746a.53271.53271,0,0,1-.01484,1.027l-3.87556,1.00861a.53272.53272,0,0,0-.38137.38137l-1.02062,3.9217a.53271.53271,0,0,1-1.025.02145l-1.15014-3.76527a.5327.5327,0,0,0-.35385-.35384l-3.89605-1.19009a.53271.53271,0,0,1,.00058-1.01912l3.90015-1.18654A.53271.53271,0,0,0,518.36182,111.81591Z" fill="#e6eaff"/><path d="M439.53688,217.98382l1.17449-3.86051a.53271.53271,0,0,1,1.02109.006l1.13746,3.90394a.5327.5327,0,0,0,.36243.36243l3.76665,1.09746a.53271.53271,0,0,1-.01484,1.027l-3.87556,1.00862a.53269.53269,0,0,0-.38137.38137l-1.02062,3.92169a.53271.53271,0,0,1-1.025.02146l-1.15014-3.76527a.53269.53269,0,0,0-.35385-.35385l-3.89605-1.19009a.5327.5327,0,0,1,.00058-1.01911l3.90014-1.18655A.53272.53272,0,0,0,439.53688,217.98382Z" fill="#e6eaff"/><path d="M31.20441,281.25021l1.17449-3.86052a.53271.53271,0,0,1,1.02109.006l1.13746,3.90394a.53269.53269,0,0,0,.36243.36242l3.76665,1.09747a.53271.53271,0,0,1-.01484,1.027l-3.87556,1.00861a.53271.53271,0,0,0-.38137.38137l-1.02062,3.9217a.53271.53271,0,0,1-1.025.02145L31.199,285.3544a.53273.53273,0,0,0-.35385-.35385l-3.896-1.19008a.53271.53271,0,0,1,.00058-1.01912l3.90014-1.18655A.53271.53271,0,0,0,31.20441,281.25021Z" fill="#e6eaff"/><path d="M327.55723,258.32162l1.17449-3.86051a.53271.53271,0,0,1,1.02109.006l1.13746,3.90394a.5327.5327,0,0,0,.36243.36243l3.76665,1.09746a.53271.53271,0,0,1-.01484,1.027l-3.87556,1.00862a.53269.53269,0,0,0-.38137.38137l-1.02062,3.92169a.53271.53271,0,0,1-1.025.02145l-1.15014-3.76526a.53269.53269,0,0,0-.35385-.35385l-3.89605-1.19009a.53271.53271,0,0,1,.00058-1.01912l3.90014-1.18654A.5327.5327,0,0,0,327.55723,258.32162Z" fill="#e6eaff"/><path d="M503.50959,5.76955,504.68408,1.909a.53271.53271,0,0,1,1.02109.006L506.84263,5.819a.53272.53272,0,0,0,.36243.36243l3.76665,1.09746a.53271.53271,0,0,1-.01485,1.027L507.08131,9.3145a.53269.53269,0,0,0-.38137.38136l-1.02062,3.9217a.53271.53271,0,0,1-1.025.02145l-1.15014-3.76526a.53269.53269,0,0,0-.35385-.35385l-3.89605-1.19009a.53271.53271,0,0,1,.00057-1.01912L503.155,6.12415A.53274.53274,0,0,0,503.50959,5.76955Z" fill="#e6eaff"/><circle cx="587.17356" cy="315.22607" r="4.89471" fill="#fff" stroke="#5666f6" stroke-miterlimit="10"/><circle cx="265.36565" cy="312.8913" r="22.74139" fill="#e6eaff"/><path d="M280.59248,312.851a15.12037,15.12037,0,0,1-10.3812,14.35978,14.712,14.712,0,0,1-1.50915.40418,15.09933,15.09933,0,0,1-7.24093-.19055c-.22869-.061-.45735-.12989-.67837-.20581a15.11487,15.11487,0,1,1,19.80965-14.3676Z" fill="#fff"/><circle cx="265.427" cy="313.81889" r="9.19151" fill="#1f294f"/><path d="M268.74786,324.36773v2.67553a3.4786,3.4786,0,0,1-.04573.57165,15.09933,15.09933,0,0,1-7.24093-.19055c-.00763-.12207-.01525-.25159-.01525-.3811v-2.67553Z" fill="#ffabc7"/><path d="M268.74487,324.36528v1.43046a5.33932,5.33932,0,0,1-7.30053,0v-1.43046Z" fill="#ff6895"/><rect x="259.7661" y="309.99989" width="10.65598" height="16.18247" rx="5.32798" fill="#ffabc7"/><path d="M259.7661,314.65728h0a0,0,0,0,1,0,0v4.10482a0,0,0,0,1,0,0h0A1.10514,1.10514,0,0,1,258.661,317.657v-1.89453A1.10514,1.10514,0,0,1,259.7661,314.65728Z" fill="#ff6895"/><path d="M271.67519,314.65728h.16779a0,0,0,0,1,0,0v4.10482a0,0,0,0,1,0,0h-.16779a1.25311,1.25311,0,0,1-1.25311-1.25311V315.9104A1.25311,1.25311,0,0,1,271.67519,314.65728Z" transform="translate(542.26505 633.41938) rotate(180)" fill="#ff6895"/><path d="M270.58984,314.65729c-.32947.05081-.24981-1.70963-1.47485-2.6745-1.86813-1.47146-4.65332.57478-6.26671-.96387a2.33787,2.33787,0,0,1-.71418-1.74071,3.344,3.344,0,0,1,2.6791-2.67913c2.43166-.51892,5.11405,2.07919,5.88055,4.59431C271.19794,312.84758,270.91631,314.607,270.58984,314.65729Z" fill="#1f294f"/><circle cx="271.60397" cy="305.85062" r="5.0853" fill="#1f294f"/><path d="M265.54343,323.94175a2.003,2.003,0,0,1-.45807-.05192.30086.30086,0,1,1,.13911-.58542,1.34142,1.34142,0,0,0,1.62636-.99685.301.301,0,1,1,.58463.14341,2.009,2.009,0,0,1-.96962,1.26194A1.93422,1.93422,0,0,1,265.54343,323.94175Z" fill="#100b5a"/><path d="M261.92375,317.854a.30086.30086,0,0,1-.26332-.44651,1.42,1.42,0,0,1,.89164-.68161,1.40293,1.40293,0,0,1,.973.13185.30086.30086,0,1,1-.286.52939.79429.79429,0,0,0-.54859-.07543.81719.81719,0,0,0-.50293.387A.30106.30106,0,0,1,261.92375,317.854Z" fill="#100b5a"/><path d="M268.84,317.854a.30106.30106,0,0,1-.26372-.15536.803.803,0,0,0-.50274-.387.79464.79464,0,0,0-.54819.07543.30105.30105,0,0,1-.28683-.52939,1.404,1.404,0,0,1,.97335-.13185,1.42014,1.42014,0,0,1,.89145.68161.30087.30087,0,0,1-.26332.44651Z" fill="#100b5a"/><circle cx="262.85105" cy="318.04411" r="0.39147" fill="#100b5a"/><circle cx="267.8838" cy="318.04411" r="0.39147" fill="#100b5a"/><circle cx="256.25293" cy="35.92442" r="22.74139" fill="#e6eaff"/><path d="M269.82268,35.8717a13.49639,13.49639,0,1,1-13.49385-13.49386A13.49434,13.49434,0,0,1,269.82268,35.8717Z" fill="#fff"/><path d="M247.78486,40.0107c-.82949.61307-1.68406.56051-2.45166,1.61584l-.01885.02618a1.61832,1.61832,0,0,0,1.33981,2.53692h19.66119a1.62282,1.62282,0,0,0,1.58006-1.99188,3.94715,3.94715,0,0,0-.51593-1.23985c-1.00854-1.57478-2.4527-1.21366-3.436-2.73023-.77334-1.19273-.35421-1.92113-.94723-4.569a18.5121,18.5121,0,0,0-1.18867-3.56178q-5.23775.319-10.47548.63807a1.34063,1.34063,0,0,0-1.00271-.04374C248.35656,31.494,250.61438,37.91944,247.78486,40.0107Z" fill="#1f294f"/><path d="M260.552,42.16061v6.52818a13.50117,13.50117,0,0,1-8.41077.01018V42.16061Z" fill="#ffc750"/><path d="M260.5516,41.49v1.64778a3.70015,3.70015,0,0,1-2.90033,1.39835H255.0408a3.6966,3.6966,0,0,1-2.89857-1.39835V41.49Z" fill="#fe6447"/><path d="M251.33208,28.56619h10.02875a0,0,0,0,1,0,0V40.08724a3.70889,3.70889,0,0,1-3.70889,3.70889h-2.611a3.70889,3.70889,0,0,1-3.70889-3.70889V28.56619A0,0,0,0,1,251.33208,28.56619Z" fill="#ffc750"/><path d="M251.33208,32.94944h0a0,0,0,0,1,0,0v3.86321a0,0,0,0,1,0,0h0a1.04009,1.04009,0,0,1-1.04009-1.04009v-1.783A1.04009,1.04009,0,0,1,251.33208,32.94944Z" fill="#fe6447"/><path d="M262.54019,32.94944h.15791a0,0,0,0,1,0,0v3.86321a0,0,0,0,1,0,0h-.15791a1.17935,1.17935,0,0,1-1.17935-1.17935V34.1288A1.17935,1.17935,0,0,1,262.54019,32.94944Z" transform="translate(524.05893 69.76209) rotate(180)" fill="#fe6447"/><path d="M254.11747,38.59913a1.98428,1.98428,0,0,1-1.982-1.982V36.5995a1.982,1.982,0,1,1,3.96392,0v.01767A1.98428,1.98428,0,0,1,254.11747,38.59913Zm0-3.45457a1.45669,1.45669,0,0,0-1.45495,1.45494v.01767a1.45495,1.45495,0,1,0,2.9099,0V36.5995A1.45669,1.45669,0,0,0,254.11747,35.14456Z" fill="#100b5a"/><path d="M258.57547,38.59913a1.98428,1.98428,0,0,1-1.982-1.982V36.5995a1.98187,1.98187,0,1,1,3.96374,0v.01784A1.984,1.984,0,0,1,258.57547,38.59913Zm0-3.45457a1.45669,1.45669,0,0,0-1.45495,1.45494v.01767a1.45486,1.45486,0,1,0,2.90972.00017V36.5995A1.45654,1.45654,0,0,0,258.57547,35.14456Z" fill="#100b5a"/><path d="M256.37,41.49a2.17686,2.17686,0,0,1-.49665-.05644.26348.26348,0,0,1,.12215-.5126,1.62123,1.62123,0,0,0,1.1235-.14273,1.6379,1.6379,0,0,0,.78829-1.029.26359.26359,0,1,1,.51192.12592,2.17734,2.17734,0,0,1-1.05025,1.36694A2.0958,2.0958,0,0,1,256.37,41.49Z" fill="#100b5a"/><circle cx="253.17075" cy="30.02071" r="3.11838" fill="#1f294f"/><circle cx="258.4253" cy="28.35312" r="4.78597" fill="#1f294f"/><circle cx="254.11747" cy="36.98444" r="0.47787" fill="#100b5a"/><circle cx="258.57544" cy="36.98444" r="0.47787" fill="#100b5a"/><circle cx="389.02016" cy="272.19603" r="22.74139" fill="#e6eaff"/><path d="M403.76467,272.19338A14.65063,14.65063,0,0,1,393.70359,286.111c-.12956.04578-.25917.08411-.38873.12207a14.64659,14.64659,0,0,1-4.19975.60961,14.4607,14.4607,0,0,1-3.55947-.44176c-.33537-.0763-.66312-.17567-.98323-.28211a14.64879,14.64879,0,1,1,19.19226-13.92546Z" fill="#fff"/><path d="M401.03131,271.82679c0,.74539-.84765,1.39784-.987,2.10232-.14359.72589.3872,1.65213.11025,2.32-.28179.67953-1.31486.95788-1.71922,1.56187-.40746.60861-.2718,1.66893-.78782,2.18494s-1.57633.38033-2.18494.78778c-.604.40435-.88234,1.43741-1.56186,1.71918-.66785.27694-1.59406-.25386-2.31993-.11028-.70447.13936-1.3569.987-2.10228.987s-1.39784-.84765-2.10233-.987c-.72588-.14359-1.65212.3872-2.32.11025-.67952-.28178-.95787-1.31486-1.56186-1.71922-.60861-.40746-1.66893-.27179-2.18494-.78782s-.38033-1.57632-.78778-2.18494c-.40435-.604-1.43741-.88234-1.71919-1.56186-.27693-.66785.25387-1.59406.11028-2.31993-.13935-.70447-.987-1.3569-.987-2.10227s.84765-1.39784.987-2.10233c.14359-.72589-.3872-1.65213-.11025-2.32.28178-.67952,1.31486-.95788,1.71922-1.56187.40746-.60861.27179-1.66893.78781-2.18494s1.57633-.38033,2.185-.78777c.604-.40436.88234-1.43742,1.56186-1.71919.66785-.27694,1.59406.25386,2.31993.11028.70447-.13935,1.3569-.987,2.10227-.987s1.39784.84765,2.10233.987c.72589.14359,1.65212-.3872,2.32-.11025.67952.28178.95788,1.31486,1.56186,1.71922.60862.40746,1.66893.2718,2.185.78782s.38033,1.57632.78777,2.18494c.40435.604,1.43742.88234,1.71919,1.56186.27694.66785-.25386,1.59406-.11028,2.31993C400.18366,270.429,401.03131,271.08141,401.03131,271.82679Z" fill="#1f294f"/><path d="M393.40632,282.48312v2.92674a3.68282,3.68282,0,0,1-.09146.82324,14.64659,14.64659,0,0,1-4.19975.60961,14.4607,14.4607,0,0,1-3.55947-.44176,3.83982,3.83982,0,0,1-.12956-.99109v-2.92674Z" fill="#909ff4"/><path d="M393.40385,282.48333v1.56322a6.37589,6.37589,0,0,1-7.97786,0v-1.56322Z" fill="#5666f6"/><path d="M394.99461,271.71228v7.175a5.57964,5.57964,0,0,1-5.57964,5.57965h0a5.57975,5.57975,0,0,1-5.57974-5.57974v-7.12412c.32257-.14462.8036-.20328.958-.434.221-.32848-.129-1.12806.14863-1.40571.27951-.27956,1.07919.0704,1.40767-.14859.32447-.21894.3069-1.09286.67242-1.2434.36171-.15052.96588.479,1.35689.40077.37926-.07427.69791-.88953,1.10066-.88953.40075,0,.7194.81526,1.09876.88953.391.07823.99508-.55129,1.35678-.40077.36552.15054.348,1.02446.67253,1.2434.32838.219,1.12806-.131,1.40766.14859.2776.27765-.07236,1.07723.14854,1.40571C394.29861,271.53043,394.68379,271.60083,394.99461,271.71228Z" fill="#909ff4"/><path d="M383.83437,272.39567h0a0,0,0,0,1,0,0V276.695a0,0,0,0,1,0,0h0a1.15752,1.15752,0,0,1-1.15752-1.15752v-1.98432A1.15752,1.15752,0,0,1,383.83437,272.39567Z" fill="#5666f6"/><path d="M396.30787,272.39567h.17574a0,0,0,0,1,0,0V276.695a0,0,0,0,1,0,0h-.17574a1.3125,1.3125,0,0,1-1.3125-1.3125v-1.67435A1.3125,1.3125,0,0,1,396.30787,272.39567Z" transform="translate(791.47897 549.0907) rotate(180)" fill="#5666f6"/><path d="M389.58414,280.49621a2.1047,2.1047,0,0,1-.48116-.05461.319.319,0,0,1,.14827-.62051,1.43584,1.43584,0,0,0,.998-.12667,1.458,1.458,0,0,0,.70087-.915.31892.31892,0,1,1,.61925.15284,2.10963,2.10963,0,0,1-1.01755,1.32365A2.02738,2.02738,0,0,1,389.58414,280.49621Z" fill="#1f294f"/><path d="M385.79281,274.12008a.319.319,0,0,1-.27931-.47264,1.48548,1.48548,0,0,1,.93657-.71644,1.47005,1.47005,0,0,1,1.02212.13851.3189.3189,0,1,1-.304.56069.82086.82086,0,0,0-.57149-.07829.84907.84907,0,0,0-.52414.40287A.31886.31886,0,0,1,385.79281,274.12008Z" fill="#1f294f"/><path d="M393.037,274.12008a.31886.31886,0,0,1-.27973-.1653.84917.84917,0,0,0-.52394-.40287.82746.82746,0,0,0-.5719.0785.319.319,0,0,1-.30361-.56111,1.44075,1.44075,0,0,1,1.95848.57814.319.319,0,0,1-.2793.47264Z" fill="#1f294f"/><circle cx="386.7641" cy="274.31524" r="0.41002" fill="#1f294f"/><circle cx="392.03536" cy="274.31524" r="0.41002" fill="#1f294f"/><circle cx="378.4573" cy="175.23133" r="22.74139" fill="#e6eaff"/><path d="M394.24945,175.17825a15.69835,15.69835,0,1,1-15.69837-15.69841A15.71025,15.71025,0,0,1,394.24945,175.17825Z" fill="#fff"/><path d="M383.9643,185.57767v4.34244a15.74924,15.74924,0,0,1-11.23543-.16241v-4.18Z" fill="#5fc5a6"/><path d="M383.96624,184.39865v2.23217a4.52925,4.52925,0,0,1-3.4565,1.59634h-4.32455a4.52925,4.52925,0,0,1-3.4565-1.59634v-2.23217Z" fill="#5f9a34"/><path d="M386.54606,169.67711v11.66374a5.55184,5.55184,0,0,1-5.55131,5.55366h-5.2936a5.55389,5.55389,0,0,1-5.55372-5.55366V169.67711a7.327,7.327,0,0,1,7.32872-7.32631h1.74366A7.32639,7.32639,0,0,1,386.54606,169.67711Z" fill="#5fc5a6"/><path d="M370.14862,172.02417h0a0,0,0,0,1,0,0v5.29629a0,0,0,0,1,0,0h0a1.42592,1.42592,0,0,1-1.42592-1.42592V173.4501A1.42592,1.42592,0,0,1,370.14862,172.02417Z" fill="#5f9a34"/><path d="M388.16359,172.02418h.21649a0,0,0,0,1,0,0v5.29629a0,0,0,0,1,0,0h-.21649a1.61684,1.61684,0,0,1-1.61684-1.61684V173.641A1.61684,1.61684,0,0,1,388.16359,172.02418Z" transform="translate(774.92683 349.34463) rotate(180)" fill="#5f9a34"/><path d="M378.37978,183.71126a2.95325,2.95325,0,0,1-.67578-.07671.33951.33951,0,1,1,.15739-.66053,2.2459,2.2459,0,0,0,1.55538-.19785,2.27022,2.27022,0,0,0,1.092-1.42473.33949.33949,0,0,1,.6592.1627,2.96306,2.96306,0,0,1-1.42893,1.85978A2.85065,2.85065,0,0,1,378.37978,183.71126Z" fill="#1f294f"/><path d="M372.81769,174.356a.33953.33953,0,0,1-.29711-.50357,1.98509,1.98509,0,0,1,2.69915-.79648.33946.33946,0,0,1-.32275.5973,1.34275,1.34275,0,0,0-.92956-.12733,1.3591,1.3591,0,0,0-.85219.65456A.33961.33961,0,0,1,372.81769,174.356Z" fill="#1f294f"/><path d="M383.44582,174.356a.33962.33962,0,0,1-.29755-.17552,1.359,1.359,0,0,0-.85219-.65456,1.34194,1.34194,0,0,0-.92956.12733.33946.33946,0,1,1-.32274-.5973,1.98509,1.98509,0,0,1,2.69914.79648.33953.33953,0,0,1-.2971.50357Z" fill="#1f294f"/><circle cx="374.24259" cy="174.77101" r="0.60156" fill="#1f294f"/><circle cx="381.97636" cy="174.77101" r="0.60156" fill="#1f294f"/><path d="M386.54606,169.67705v2.34823a6.454,6.454,0,0,1-2.50345-2.18453,5.83651,5.83651,0,0,1-1.03281-3.15128.316.316,0,0,0-.52761-.22546,8.03406,8.03406,0,0,1-1.69882,1.17422c-3.13233,1.62939-5.9542-.14377-8.478,1.56679a5.585,5.585,0,0,0-2.15789,3.81971v-3.34521a7.32872,7.32872,0,0,1,7.32872-7.32872h1.74366A7.32626,7.32626,0,0,1,386.54606,169.67705Z" fill="#1f294f"/><circle cx="176.8757" cy="147.2126" r="22.74139" fill="#e6eaff"/><path d="M192.2337,147.17427a15.29914,15.29914,0,1,1-15.29916-15.29919A15.31074,15.31074,0,0,1,192.2337,147.17427Z" fill="#fff"/><path d="M182.21011,157.30925v4.232a15.34886,15.34886,0,0,1-10.94973-.15828v-4.07373Z" fill="#ffabc7"/><path d="M182.212,157.30713v2.17541a4.41408,4.41408,0,0,1-3.36861,1.55574h-4.21457a4.41408,4.41408,0,0,1-3.36861-1.55574v-2.17541Z" fill="#ff6895"/><path d="M184.72621,141.813v11.36713a5.41066,5.41066,0,0,1-5.41014,5.41244h-5.159a5.41267,5.41267,0,0,1-5.41249-5.41244V141.813a7.14063,7.14063,0,0,1,7.14235-7.14h1.69932A7.14008,7.14008,0,0,1,184.72621,141.813Z" fill="#ffabc7"/><path d="M168.74575,144.10041h0a0,0,0,0,1,0,0V149.262a0,0,0,0,1,0,0h0a1.38966,1.38966,0,0,1-1.38966-1.38966v-2.38228A1.38966,1.38966,0,0,1,168.74575,144.10041Z" fill="#ff6895"/><path d="M186.30261,144.10041h.211a0,0,0,0,1,0,0V149.262a0,0,0,0,1,0,0h-.211a1.57573,1.57573,0,0,1-1.57573-1.57573v-2.01015A1.57573,1.57573,0,0,1,186.30261,144.10041Z" transform="translate(371.24047 293.36243) rotate(180)" fill="#ff6895"/><path d="M176.7676,155.4903a2.87852,2.87852,0,0,1-.6586-.07476.33088.33088,0,1,1,.15339-.64373,2.18883,2.18883,0,0,0,1.51583-.19282,2.21255,2.21255,0,0,0,1.06427-1.3885.33086.33086,0,1,1,.64244.15856,2.88776,2.88776,0,0,1-1.3926,1.81249A2.77824,2.77824,0,0,1,176.7676,155.4903Z" fill="#1f294f"/><path d="M171.34694,146.37293a.3309.3309,0,0,1-.28955-.49077,1.93463,1.93463,0,0,1,2.63051-.77622.33083.33083,0,1,1-.31454.58211,1.30864,1.30864,0,0,0-.90592-.12409,1.32452,1.32452,0,0,0-.83052.63791A.331.331,0,0,1,171.34694,146.37293Z" fill="#1f294f"/><path d="M181.70481,146.37293a.331.331,0,0,1-.29-.17106,1.32446,1.32446,0,0,0-.83051-.63791,1.30784,1.30784,0,0,0-.90592.12409.33083.33083,0,1,1-.31454-.58211,1.93461,1.93461,0,0,1,2.6305.77622.3309.3309,0,0,1-.28954.49077Z" fill="#1f294f"/><circle cx="172.73561" cy="146.77739" r="0.58626" fill="#1f294f"/><circle cx="180.27271" cy="146.77739" r="0.58626" fill="#1f294f"/><path d="M184.72621,141.813v2.28851a6.28975,6.28975,0,0,1-2.43979-2.129,5.68806,5.68806,0,0,1-1.00654-3.07114.30793.30793,0,0,0-.5142-.21973,7.829,7.829,0,0,1-1.65562,1.14435c-3.05267,1.588-5.80278-.1401-8.26245,1.527a5.44288,5.44288,0,0,0-2.103,3.72257v-3.26014a7.14235,7.14235,0,0,1,7.14235-7.14235h1.69932A7.13994,7.13994,0,0,1,184.72621,141.813Z" fill="#1f294f"/><circle cx="90.89773" cy="18.56914" r="4.89471" fill="#fff" stroke="#ffc750" stroke-miterlimit="10"/><circle cx="672.27456" cy="13.18303" r="4.89471" fill="#fff" stroke="#ffc750" stroke-miterlimit="10"/><path d="M325.60483,5.19193l1.17449-3.86051a.53271.53271,0,0,1,1.02109.006l1.13747,3.90394a.53269.53269,0,0,0,.36242.36243L333.067,6.70128a.53271.53271,0,0,1-.01485,1.027l-3.87556,1.00862a.53271.53271,0,0,0-.38137.38137l-1.02062,3.92169a.53271.53271,0,0,1-1.025.02145l-1.15013-3.76526a.53273.53273,0,0,0-.35385-.35385l-3.89605-1.19009a.53271.53271,0,0,1,.00057-1.01912l3.90015-1.18654A.53271.53271,0,0,0,325.60483,5.19193Z" fill="#e6eaff"/><path d="M286.377,123.15542a17.28639,17.28639,0,0,1-5.65141,12.78259,17.75734,17.75734,0,0,1-12.032,4.66155,17.9255,17.9255,0,0,1-3.82836-.41017,17.73237,17.73237,0,0,1-6.15274-2.63343,17.35773,17.35773,0,0,1-7.70231-14.40054,17.68506,17.68506,0,0,1,35.36683,0Z" fill="#5666f6"/><path d="M286.377,123.15542a17.28639,17.28639,0,0,1-5.65141,12.78259,17.75734,17.75734,0,0,1-12.032,4.66155,17.9255,17.9255,0,0,1-3.82836-.41017,17.73237,17.73237,0,0,1-6.15274-2.63343,17.35773,17.35773,0,0,1-7.70231-14.40054,17.68506,17.68506,0,0,1,35.36683,0Z" fill="#f0f3ff"/><ellipse cx="268.6941" cy="123.15549" rx="17.68341" ry="17.44414" fill="none"/><path d="M276.76814,114.3323s-.36745-.90867-1.70909.50845a3.96076,3.96076,0,0,1-1.447,1.1394l2.15773,2.47249Z" fill="url(#c)"/><path d="M260.62719,115.42469s-.198-.81751.72921-.43724a5.30694,5.30694,0,0,1,1.33309,1.17643l.46146.73491-1.46128,2.26882Z" fill="url(#d)"/><path d="M281.28247,125.88285c-.57395.30764-1.98683.9514-2.877.3817,0,0-.18229.21934-.48851.537l2.80861,9.13651a17.87151,17.87151,0,0,1-22.01311,1.618l1.87288-9.84439a1.24976,1.24976,0,0,1-.44863-.7705l-.01-.25495a2.523,2.523,0,0,1-.95568.25067.06477.06477,0,0,1-.06124-.02705.06581.06581,0,0,1,.01425-.09117,5.30773,5.30773,0,0,0,.85455-.93287,3.50236,3.50236,0,0,1-1.84156.39024.06555.06555,0,0,1-.01851-.12676,4.83043,4.83043,0,0,0,1.7447-1.47124,2.329,2.329,0,0,1-2.32721.43866.0735.0735,0,0,1-.0413-.0413.06785.06785,0,0,1,.0413-.08544,5.36815,5.36815,0,0,0,3.36121-3.2131c.09543-.21934.17945-.42727.25494-.64661.11963-.35036.339-.96565.62382-1.64927l-.08688-.31192-1.20776-4.25279a.631.631,0,0,1,.93858-.71212l2.75022,1.70909a5.1107,5.1107,0,0,1,1.65781-.81894l.06409-.01709a2.005,2.005,0,0,0-1.28182-.58821s1.524-.73207,2.32437.05127a2.14618,2.14618,0,0,0-.28485-1.74043s1.70909.178,1.80594,1.36159c0,0,1.00979-2.41125,2.36995-1.79314,0,0-1.14225,1.40432-.36461,2.15489,0,0,1.34449-1.11946,2.09791-.40734a1.93491,1.93491,0,0,0-.85455.93l.06979.01709a5.08115,5.08115,0,0,1,1.15363.45149l.10112.06551.04416-.05412,2.76161-2.04521a.62933.62933,0,0,1,.97988.66083L275.765,118.454l-.02849.14242c.58538.93,1.091,1.8672,1.39862,2.45825.16094.30764.30336.62241.44578.93859,1.01692,2.30584,2.41126,2.5451,2.82285,2.56364a.06208.06208,0,0,1,.04131.01566.0655.0655,0,0,1,.0057.09258c-.16237.19653-.64519.55829-1.927.22075a7.41707,7.41707,0,0,0,2.72743.87306.06733.06733,0,0,1,.06125.03561A.06605.06605,0,0,1,281.28247,125.88285Z" fill="#ffc750"/><path d="M266.16322,121.14446c0,2.00533-.69076,2.43973-1.81021,2.23179a5.04072,5.04072,0,0,0-1.67349-.03846c-1.18782.178-1.974-.30621-1.96261-2.11357a2.74737,2.74737,0,0,1,2.66334-2.74452,2.70606,2.70606,0,0,1,2.78217,2.62775Z" fill="#fff"/><path d="M266.16322,121.14446c0,2.00533-.69076,2.43973-1.81021,2.23179a5.04072,5.04072,0,0,0-1.67349-.03846c-1.18782.178-1.974-.30621-1.96261-2.11357a2.74737,2.74737,0,0,1,2.66334-2.74452,2.70606,2.70606,0,0,1,2.78217,2.62775Z" fill="#fff"/><path d="M274.05443,139.78347a18.0386,18.0386,0,0,1-9.18921.40592c.70784-3.09773.28626-3.50793.97275-5.46627.48567-1.38436.997-2.75446,2.33007-3.40107a3.434,3.434,0,0,1,2.62488-.14243c1.21061.48566,1.70909,1.692,2.21185,2.97951C273.59583,135.666,273.43489,136.21715,274.05443,139.78347Z" fill="#ff6895"/><path d="M271.92714,120.76988c0,2.00534.69076,2.44116,1.81021,2.23179a5.04046,5.04046,0,0,1,1.67349-.03845c1.18782.178,1.974-.30621,1.96261-2.11216a2.74452,2.74452,0,0,0-2.66334-2.73739,2.70605,2.70605,0,0,0-2.7823,2.62761Z" fill="#fff"/><path d="M270.3149,124.77486s.09257,1.5923-.85455,1.68488c-1.43706.14242-1.20918-1.35018-1.20918-1.35018s.376.70215.85454.58678A2.11,2.11,0,0,0,270.3149,124.77486Z" fill="#efc95e"/><path d="M268.21413,125.23489s-.02136.84173,1.04255.85454,1.08385-1.467,1.08385-1.467l-1.28182-.72494Z" fill="#ff6895"/><path d="M269.26352,125.5429a.26259.26259,0,0,1-.26023-.2306l-.15814-1.296a.26244.26244,0,1,1,.521-.0637l.15815,1.296a.26247.26247,0,0,1-.22866.29236A.2808.2808,0,0,1,269.26352,125.5429Z" fill="#fe6447"/><path d="M268.02471,127.941s.16521,1.51682,1.43849,1.39434c1.232-.11964,1.28894-1.551,1.28894-1.551a1.64928,1.64928,0,0,1-1.20634.71213A2.48037,2.48037,0,0,1,268.02471,127.941Z" fill="#efc95e"/><path d="M266.18317,124.39885a7.02236,7.02236,0,0,1,1.09524.08262l-.0057.00427.00034,0a.104.104,0,0,0,.11645-.08978l.00066-.0048a.10257.10257,0,0,0-.09039-.11341,7.2872,7.2872,0,0,0-1.12658-.0584,7.37982,7.37982,0,0,0-1.12087.10967,6.51744,6.51744,0,0,0-2.11359.742,6.10578,6.10578,0,0,0-1.70909,1.42424,6.503,6.503,0,0,0-1.09382,1.93414,6.48472,6.48472,0,0,1,1.1394-1.90138,6.0529,6.0529,0,0,1,1.72333-1.36868,6.326,6.326,0,0,1,2.08795-.67794A6.895,6.895,0,0,1,266.18317,124.39885Z" fill="#1f294f"/><path d="M281.39552,125.24342a13.19778,13.19778,0,0,0-3.19887-1.38151l-.42727-.11536c-.14243-.03846-.28485-.0641-.42727-.09685-.28485-.06837-.5697-.1111-.85455-.1595a14.2987,14.2987,0,0,0-1.74327-.15241,14.68268,14.68268,0,0,0-3.48227.33044l-.00285.00283a.10468.10468,0,0,0,.04842.20368,14.55793,14.55793,0,0,1,3.43244-.376,14.034,14.034,0,0,1,1.7276.12392c.28485.04131.5697.07975.85455.14243.14243.0299.28485.0541.42727.08971l.42015.10824a13.19516,13.19516,0,0,1,3.19885,1.32456,13.86226,13.86226,0,0,1,2.763,2.10076A13.81583,13.81583,0,0,0,281.39552,125.24342Z" fill="#1f294f"/><path d="M266.36262,124.00291l.01933.00266a.1054.1054,0,0,0,.00915-.2106,14.93884,14.93884,0,0,0-8.23925,1.15508q-.765.34558-1.4926.76623a16.06716,16.06716,0,0,0-2.6904,2.00106,15.93409,15.93409,0,0,1,2.72315-1.9512,16.66855,16.66855,0,0,1,1.49831-.74631,14.98758,14.98758,0,0,1,1.56667-.56969A14.7323,14.7323,0,0,1,266.36262,124.00291Z" fill="#1f294f"/><path d="M271.79041,123.27514l3.13333-.443c.52556-.07406,1.044-.15809,1.56667-.18088a9.99851,9.99851,0,0,1,1.56667.047,9.78579,9.78579,0,0,1,3.02509.83886c.94855.46146,1.88855.9443,2.83284,1.41429-.93716-.48568-1.8672-.98274-2.81-1.46126a9.92857,9.92857,0,0,0-4.62451-.9742c-.53126.01283-1.05822.09116-1.58091.15526l-3.14331.39592h.00427a.10539.10539,0,0,0-.0883.11964l.0001.00073A.104.104,0,0,0,271.79041,123.27514Z" fill="#1f294f"/><path d="M274.139,124.85888a2.34453,2.34453,0,0,0-.27063-.26774c.14452-.075.288-.15175.43157-.22647a.03844.03844,0,0,0,.01709-.04842l-.00021-.00042a.037.037,0,0,0-.04963-.01667c-.16153.07479-.32032.15136-.48029.22461a2.34811,2.34811,0,0,0-.71751-.377,2.6676,2.6676,0,0,0-1.2932-.07975l-.00427.00568a.10541.10541,0,0,0-.07976.12535l.00047.00212a.104.104,0,0,0,.12486.07763,2.48229,2.48229,0,0,1,1.20491.02565,2.19858,2.19858,0,0,1,.6273.283l-.01346.00615-.329.11393-.16379.057c-.05411.01852-.1111.02563-.168.03989l-.33614.07406c-.1125.02278-.22787.0242-.34181.03846l-.17091.01565h-.17091c-.11394-.00569-.2293,0-.34181-.01565a3.568,3.568,0,0,1-2.23688-1.13011l.01221-.01071a.23756.23756,0,0,0,.03561-.04844.84453.84453,0,0,1,.658-.386.4273.4273,0,0,0,.36175-.28485.30766.30766,0,0,0-.07833-.33186,1.59907,1.59907,0,0,0-1.30176-.339,1.85811,1.85811,0,0,0-1.29891.56257.31475.31475,0,0,0-.04843.339l.00855-.00285a.43583.43583,0,0,0,.39309.25352c.56543,0,.73776.24924.73776.24924l.00729.007.01725.01311c-.00866.02654-.01771.05285-.02881.07818-.05555.12676-.104.2592-.16665.38456a3.64326,3.64326,0,0,1-.19938.366c-.037.0584-.07122.11963-.1111.1766l-.12391.16522a2.85836,2.85836,0,0,1-.59391.5697,2.70625,2.70625,0,0,1-.7406.36034,3.484,3.484,0,0,1-1.66637.05553,5.69873,5.69873,0,0,1-.58934-.14657,2.20876,2.20876,0,0,1,.18628-.26217,1.90434,1.90434,0,0,1,.97418-.61671,2.35443,2.35443,0,0,1,1.15222,0l.00854-.00143.001.00019a.104.104,0,0,0,.12151-.08279.1054.1054,0,0,0-.0826-.12391,2.551,2.551,0,0,0-1.24337.057,2.02967,2.02967,0,0,0-1.01121.70216,2.27718,2.27718,0,0,0-.19347.30114,5.70343,5.70343,0,0,1-.936-.38659l-.01.00142a.0242.0242,0,0,0-.03275.01l-.00073.00123a.02421.02421,0,0,0,.00927.033,5.73312,5.73312,0,0,0,.91822.44115,2.27874,2.27874,0,0,0-.20894.72815,2.61192,2.61192,0,0,0,.14243,1.19778,2.56356,2.56356,0,0,1-.09116-1.19065,2.209,2.209,0,0,1,.23721-.70621,5.73252,5.73252,0,0,0,.61021.18777,3.65465,3.65465,0,0,0,1.75467.0114,2.78286,2.78286,0,0,0,.81894-.366,3.0858,3.0858,0,0,0,.66655-.60245l.14242-.17661c.04416-.0598.08261-.12248.12392-.18515a4.16884,4.16884,0,0,0,.225-.38454,2.77848,2.77848,0,0,0,.188-.40308l.00518-.01373a3.82222,3.82222,0,0,0,2.45876,1.11895c.11964.01.23928,0,.35892,0h.17945l.178-.02563c.11679-.01851.23643-.02705.35179-.05412l.34467-.09115c.057-.01709.11537-.02706.1709-.04985l.16522-.0641.329-.12959c.02476-.012.04886-.02525.07344-.03752a2.20009,2.20009,0,0,1,.31112.27535,2.01538,2.01538,0,0,1,.51985,1.10237,2.57372,2.57372,0,0,1-.14242,1.23484,2.59669,2.59669,0,0,0,.19512-1.24053A2.10077,2.10077,0,0,0,274.139,124.85888Z" fill="#1f294f"/><path d="M270.77725,127.65437a.0527.0527,0,0,0-.07211.01881,1.70866,1.70866,0,0,1-.235.31761,1.64066,1.64066,0,0,1-.30194.235,1.61227,1.61227,0,0,1-.72352.2051,1.863,1.863,0,0,1-.75343-.131,1.92,1.92,0,0,1-.65658-.43867.05413.05413,0,0,0-.06266-.00855l-.00232.00125a.05125.05125,0,0,0-.019.07,1.51962,1.51962,0,0,0,.62951.61671,1.7645,1.7645,0,0,0,.87876.20508,1.82061,1.82061,0,0,0,.45291-.07976,1.63577,1.63577,0,0,0,.40875-.21079,1.42374,1.42374,0,0,0,.31761-.33041,1.23634,1.23634,0,0,0,.16806-.41589h0a.05409.05409,0,0,0-.02848-.0541Z" fill="#1f294f"/><circle cx="263.68077" cy="120.57049" r="1.68488" fill="#ff6895"/><circle cx="263.63234" cy="120.59328" r="1.22058" fill="#1f294f"/><circle cx="264.31883" cy="119.63476" r="0.64945" fill="#fff"/><circle cx="274.41102" cy="120.1774" r="1.6863" fill="#ff6895"/><circle cx="274.45802" cy="120.20018" r="1.22058" fill="#1f294f"/><circle cx="275.44075" cy="119.24309" r="0.64945" fill="#fff"/><circle cx="11.47483" cy="182.40616" r="11.47483" fill="#e6eaff"/><path d="M401.46485,336.8601H386.16042v-9.76563a7.65222,7.65222,0,0,1,15.30443,0Zm-10.41313-4.89131h5.52182v-4.87432a2.76091,2.76091,0,0,0-5.52182,0Z" fill="#5fc5a6"/><rect x="382.37803" y="330.31697" width="22.86913" height="20.51326" rx="2.14938" fill="#ffc750"/><path d="M390.41247,340.89216l3.40012-5.34305,3.40013,5.34305-3.40013,1.94293Z" fill="#fff"/><path d="M390.41247,340.89216l3.40012,1.94293,3.40013-1.94293-3.40013,4.61446Z" fill="#fe6447"/><rect x="353.73247" y="28.24557" width="6.34021" height="26.48883" transform="translate(398.39256 -315.41259) rotate(90)" fill="#ffc750"/><path d="M350.96423,34.18392h0a1.13918,1.13918,0,0,1,1.13918,1.13918v13.473a0,0,0,0,1,0,0H349.825a0,0,0,0,1,0,0V35.3231a1.13918,1.13918,0,0,1,1.13918-1.13918Z" transform="translate(392.45422 -309.47425) rotate(90)" fill="#fe6447"/><path d="M370.14434,38.31988h0a3.75755,3.75755,0,0,1,0,6.34021h0L368.33285,41.49Z" fill="#fe6447"/><path d="M363.80678,44.65226h0a3.75754,3.75754,0,0,1,6.3402,0h0l-3.1701,1.81148Z" fill="#ffc750"/><path d="M357.46657,44.65226h0a3.75754,3.75754,0,0,1,6.3402,0h0l-3.1701,1.81148Z" fill="#ffc750"/><rect x="335.04034" y="32.87216" width="17.23565" height="17.23565" rx="8.61781" transform="translate(385.14815 -302.16818) rotate(90)" fill="#ffc750"/><rect x="336.68039" y="34.51221" width="13.95555" height="13.95555" rx="6.97777" transform="translate(385.14815 -302.16818) rotate(90)" fill="#ffd88a"/><rect x="339.47925" y="38.97072" width="5.07069" height="5.03852" rx="2.51926" transform="translate(383.50458 -300.52461) rotate(90)" fill="#fff"/><circle cx="26.57201" cy="71.17761" r="22.74139" fill="#e6eaff"/><path d="M41.31651,71.175A14.65063,14.65063,0,0,1,31.25543,85.09261c-.12956.04577-.25917.08411-.38873.12207a14.64659,14.64659,0,0,1-4.19975.60961,14.46118,14.46118,0,0,1-3.55947-.44176c-.33537-.0763-.66312-.17567-.98323-.28211A14.64879,14.64879,0,1,1,41.31651,71.175Z" fill="#fff"/><path d="M38.58315,70.80836c0,.7454-.84765,1.39784-.987,2.10233-.14359.72589.3872,1.65213.11025,2.32-.28178.67952-1.31486.95788-1.71922,1.56187-.40746.60861-.2718,1.66893-.78782,2.18494s-1.57633.38033-2.18494.78777c-.604.40436-.88234,1.43742-1.56186,1.71919-.66785.27694-1.59406-.25386-2.31993-.11028-.70447.13935-1.3569.987-2.10228.987s-1.39784-.84765-2.10232-.987c-.72589-.14359-1.65213.3872-2.32.11025-.67952-.28178-.95787-1.31486-1.56186-1.71922-.60861-.40746-1.66893-.2718-2.18494-.78782s-.38033-1.57632-.78778-2.18494c-.40435-.604-1.43741-.88234-1.71919-1.56186-.27693-.66785.25387-1.59406.11029-2.31993-.13936-.70447-.987-1.3569-.987-2.10228s.84765-1.39783.987-2.10232c.14359-.72589-.3872-1.65213-.11025-2.32.28178-.67953,1.31486-.95788,1.71922-1.56187.40746-.60861.27179-1.66893.78781-2.18494s1.57633-.38033,2.185-.78778c.604-.40435.88234-1.43741,1.56186-1.71918.66785-.27694,1.59406.25386,2.31993.11028.70447-.13936,1.3569-.987,2.10227-.987s1.39784.84765,2.10233.987c.72589.14359,1.65213-.3872,2.32-.11025.67952.28178.95788,1.31486,1.56186,1.71922.60862.40746,1.66894.27179,2.185.78782s.38033,1.57632.78777,2.18494c.40436.604,1.43742.88234,1.71919,1.56186.27694.66785-.25386,1.59406-.11028,2.31993C37.7355,69.41056,38.58315,70.063,38.58315,70.80836Z" fill="#1f294f"/><path d="M30.95816,81.4647v2.92674a3.6823,3.6823,0,0,1-.09146.82324,14.64659,14.64659,0,0,1-4.19975.60961,14.46118,14.46118,0,0,1-3.55947-.44176,3.83988,3.83988,0,0,1-.12956-.99109V81.4647Z" fill="#909ff4"/><path d="M30.95569,81.46491v1.56322a6.37589,6.37589,0,0,1-7.97786,0V81.46491Z" fill="#5666f6"/><path d="M32.54645,70.69386v7.175a5.57964,5.57964,0,0,1-5.57964,5.57964h0a5.57973,5.57973,0,0,1-5.57973-5.57973V70.74464c.32256-.14462.80359-.20328.958-.434.221-.32848-.129-1.12807.14863-1.40571.27951-.27956,1.07919.0704,1.40767-.14859.32447-.21894.3069-1.09286.67242-1.2434.36171-.15052.96588.479,1.35689.40077.37926-.07427.69791-.88953,1.10066-.88953.40075,0,.7194.81526,1.09876.88953.391.07823.99508-.55129,1.35678-.40077.36552.15054.348,1.02446.67253,1.2434.32838.219,1.12806-.131,1.40766.14859.27761.27764-.07235,1.07723.14854,1.40571C31.85045,70.512,32.23563,70.58241,32.54645,70.69386Z" fill="#909ff4"/><path d="M21.38621,71.37725h0a0,0,0,0,1,0,0v4.29936a0,0,0,0,1,0,0h0a1.15752,1.15752,0,0,1-1.15752-1.15752V72.53477A1.15752,1.15752,0,0,1,21.38621,71.37725Z" fill="#5666f6"/><path d="M33.85971,71.37725h.17574a0,0,0,0,1,0,0v4.29936a0,0,0,0,1,0,0h-.17574a1.3125,1.3125,0,0,1-1.3125-1.3125V72.68976A1.3125,1.3125,0,0,1,33.85971,71.37725Z" transform="translate(66.58265 147.05386) rotate(180)" fill="#5666f6"/><path d="M27.136,79.47779a2.104,2.104,0,0,1-.48116-.05462.319.319,0,0,1,.14827-.6205,1.43584,1.43584,0,0,0,.998-.12667,1.458,1.458,0,0,0,.70087-.915.31892.31892,0,1,1,.61925.15284,2.10963,2.10963,0,0,1-1.01755,1.32365A2.02738,2.02738,0,0,1,27.136,79.47779Z" fill="#1f294f"/><path d="M23.34465,73.10166a.319.319,0,0,1-.27931-.47264,1.48548,1.48548,0,0,1,.93657-.71644,1.47005,1.47005,0,0,1,1.02212.13851.3189.3189,0,1,1-.304.56069.82086.82086,0,0,0-.57149-.07829.84907.84907,0,0,0-.52414.40287A.31886.31886,0,0,1,23.34465,73.10166Z" fill="#1f294f"/><path d="M30.58882,73.10166a.31886.31886,0,0,1-.27973-.1653.84917.84917,0,0,0-.52394-.40287.82747.82747,0,0,0-.5719.0785.319.319,0,1,1-.30361-.56111,1.44075,1.44075,0,0,1,1.95848.57814.319.319,0,0,1-.2793.47264Z" fill="#1f294f"/><circle cx="24.31595" cy="73.29682" r="0.41002" fill="#1f294f"/><circle cx="29.5872" cy="73.29682" r="0.41002" fill="#1f294f"/><polygon points="15.522 182.179 11.475 175.818 7.427 182.179 11.475 184.491 15.522 182.179" fill="#5666f6"/><polygon points="7.427 183.046 11.475 188.539 15.522 183.046 11.475 185.359 7.427 183.046" fill="#5666f6"/><path d="M635.99838,32.67918l1.17449-3.86052a.53271.53271,0,0,1,1.02109.006l1.13746,3.90394a.53274.53274,0,0,0,.36243.36243l3.76666,1.09746a.53271.53271,0,0,1-.01485,1.027l-3.87556,1.00861a.53274.53274,0,0,0-.38137.38137l-1.02062,3.9217a.53271.53271,0,0,1-1.025.02145L635.993,36.78337a.5327.5327,0,0,0-.35384-.35384l-3.89605-1.19009a.53271.53271,0,0,1,.00057-1.01912l3.90015-1.18654A.53271.53271,0,0,0,635.99838,32.67918Z" fill="#e6eaff"/><circle cx="636.00345" cy="34.92902" r="11.47483" fill="#e6eaff"/><polygon points="640.051 34.683 636.004 28.323 631.956 34.683 636.004 36.996 640.051 34.683" fill="#5666f6"/><polygon points="631.956 35.551 636.004 41.044 640.051 35.551 636.004 37.863 631.956 35.551" fill="#5666f6"/></svg>