<?xml version="1.0" encoding="UTF-8"?>
<svg width="95px" height="95px" viewBox="0 0 95 95" version="1.1" xmlns="http://www.w3.org/2000/svg" xmlns:xlink="http://www.w3.org/1999/xlink">
    <!-- Generator: sketchtool 52 (66869) - http://www.bohemiancoding.com/sketch -->
    <title>6ACA5555-2969-428D-BE4B-3ED2A66453A9</title>
    <desc>Created with sketchtool.</desc>
    <defs>
        <polygon id="path-1" points="0 0.736744186 94.2623529 0.736744186 94.2623529 94.8832744 0 94.8832744"></polygon>
    </defs>
    <g id="Final-Version" stroke="none" stroke-width="1" fill="none" fill-rule="evenodd">
        <g id="EthglobalComponent" transform="translate(-479.000000, -1445.000000)">
            <g id="Group-20-Copy" transform="translate(479.000000, 1444.000000)">
                <g id="Group-3" transform="translate(0.000000, 0.379870)">
                    <mask id="mask-2" fill="white">
                        <use xlink:href="#path-1"></use>
                    </mask>
                    <g id="Clip-2"></g>
                    <path d="M94.2623529,47.809786 C94.2623529,48.5911814 94.24,49.3725767 94.2064706,50.1428093 C93.9941176,54.4404837 93.2005882,58.5930419 91.9152941,62.5111814 C90.9541176,65.4246698 89.7247059,68.2053209 88.2382353,70.8274605 C87.3441176,72.4248558 86.3717647,73.9530419 85.2988235,75.4265302 C84.2370588,76.8899721 83.0970588,78.2853209 81.8788235,79.6125767 C79.9341176,81.7346233 77.7994118,83.6646698 75.4970588,85.3949023 C75.2623529,85.573507 75.0276471,85.7521116 74.7817647,85.9206698 C73.0382353,87.1820651 71.2052941,88.3318326 69.2941176,89.3476465 C65.1588235,91.5567628 60.6435294,93.1653209 55.8823529,94.0572279 C54.6417647,94.3028093 53.3788235,94.4825302 52.0935294,94.6153674 C51.2441176,94.7046698 50.3723529,94.7716465 49.5005882,94.8162977 C48.7182353,94.8609488 47.9247059,94.8832744 47.1311765,94.8832744 C21.1011765,94.8832744 0,73.8079256 0,47.809786 C0,21.8127628 21.1011765,0.736297674 47.1311765,0.736297674 C65.93,0.736297674 82.1582353,11.7316465 89.7247059,27.6274605 C92.6305882,33.7446698 94.2623529,40.5874605 94.2623529,47.809786" id="Fill-1" fill="#FFC750" mask="url(#mask-2)"></path>
                </g>
                <path d="M69.2943412,69.5101395 L69.2943412,89.7270698 C65.1590471,91.9373023 60.6437529,93.5447442 55.8825765,94.4366512 C54.6419882,94.6833488 53.3790471,94.8619535 52.0937529,94.9947907 L52.0937529,69.5101395 L69.2943412,69.5101395 Z" id="Fill-4" fill="#1F294F"></path>
                <path d="M94.2061353,50.5224558 C93.9937824,54.8212465 93.2002529,58.9726884 91.9149588,62.8908279 C90.9537824,65.8043163 89.7243706,68.5849674 88.2379,71.207107 C87.3437824,72.8045023 86.3714294,74.3326884 85.2984882,75.8061767 L36.4796647,75.8061767 L36.4796647,32.6061767 L89.7243706,32.6061767 C92.3284882,38.0770605 93.9043706,44.1373395 94.2061353,50.5224558" id="Fill-6" fill="#FF6895"></path>
                <path d="M94.2623529,48.1896558 C94.2623529,53.3245395 93.4352941,58.2696558 91.9152941,62.8910512 C90.9541176,65.8045395 89.7247059,68.5851907 88.2382353,71.2073302 L36.48,71.2073302 L36.48,28.0073302 L89.7247059,28.0073302 C92.6305882,34.1245395 94.2623529,40.9673302 94.2623529,48.1896558" id="Fill-8" fill="#5666F6"></path>
                <path d="M48.9584176,71.2085581 L24.0002412,71.2085581 C21.9359471,71.2085581 20.2617118,69.5363721 20.2617118,67.4734884 L20.2617118,44.2102326 C20.2617118,35.2654884 27.5230647,28.0130233 36.4798882,28.0130233 C45.4367118,28.0130233 52.6980647,35.2654884 52.6980647,44.2102326 L52.6980647,67.4734884 C52.6980647,69.5363721 51.0238294,71.2085581 48.9584176,71.2085581" id="Fill-10" fill="#FFFFFF"></path>
                <path d="M42.5221118,75.8109767 L30.6750529,75.8109767 C28.1301706,75.8109767 26.0669941,73.7492093 26.0669941,71.2074419 L47.1312882,71.2074419 C47.1312882,73.7492093 45.0669941,75.8109767 42.5221118,75.8109767" id="Fill-12" fill="#1F294F"></path>
                <path d="M43.7914235,48.1896558 L28.5456,48.1896558 C27.1764824,48.1896558 26.0666588,47.0811907 26.0666588,45.7137488 C26.0666588,44.346307 27.1764824,43.2367256 28.5456,43.2367256 L43.7914235,43.2367256 C45.1605412,43.2367256 46.2703647,44.346307 46.2703647,45.7137488 C46.2703647,47.0811907 45.1605412,48.1896558 43.7914235,48.1896558" id="Fill-14" fill="#1F294F"></path>
                <path d="M69.5436882,22.7037767 L61.1177471,22.7037767 C59.3976882,22.7037767 58.0039824,21.3117767 58.0039824,19.5949395 L58.0039824,16.8410791 C58.0039824,15.1242419 59.3976882,13.7322419 61.1177471,13.7322419 L69.5436882,13.7322419 C71.2637471,13.7322419 72.6574529,15.1242419 72.6574529,16.8410791 L72.6574529,19.5949395 C72.6574529,21.3117767 71.2637471,22.7037767 69.5436882,22.7037767" id="Fill-16" fill="#FF6895"></path>
                <path d="M60.9583706,42.2932465 C59.3277235,42.2932465 58.0044294,40.9715721 58.0044294,39.3418047 L58.0044294,16.6835721 C58.0044294,15.0538047 59.3277235,13.7321302 60.9583706,13.7321302 C62.5901353,13.7321302 63.9134294,15.0538047 63.9134294,16.6835721 L63.9134294,39.3418047 C63.9134294,40.9715721 62.5901353,42.2932465 60.9583706,42.2932465" id="Fill-18" fill="#FFFFFF"></path>
            </g>
        </g>
    </g>
</svg>